G04 #@! TF.GenerationSoftware,KiCad,Pcbnew,(5.1.2-1)-1*
G04 #@! TF.CreationDate,2020-07-23T10:17:53-07:00*
G04 #@! TF.ProjectId,tiny-touch,74696e79-2d74-46f7-9563-682e6b696361,rev?*
G04 #@! TF.SameCoordinates,Original*
G04 #@! TF.FileFunction,Soldermask,Top*
G04 #@! TF.FilePolarity,Negative*
%FSLAX46Y46*%
G04 Gerber Fmt 4.6, Leading zero omitted, Abs format (unit mm)*
G04 Created by KiCad (PCBNEW (5.1.2-1)-1) date 2020-07-23 10:17:53*
%MOMM*%
%LPD*%
G04 APERTURE LIST*
%ADD10C,0.100000*%
G04 APERTURE END LIST*
D10*
G36*
X209774549Y-136031116D02*
G01*
X209885734Y-136053232D01*
X210095203Y-136139997D01*
X210283720Y-136265960D01*
X210444040Y-136426280D01*
X210570003Y-136614797D01*
X210656768Y-136824266D01*
X210701000Y-137046636D01*
X210701000Y-137273364D01*
X210656768Y-137495734D01*
X210570003Y-137705203D01*
X210444040Y-137893720D01*
X210283720Y-138054040D01*
X210095203Y-138180003D01*
X209885734Y-138266768D01*
X209774549Y-138288884D01*
X209663365Y-138311000D01*
X209436635Y-138311000D01*
X209325451Y-138288884D01*
X209214266Y-138266768D01*
X209004797Y-138180003D01*
X208816280Y-138054040D01*
X208655960Y-137893720D01*
X208529997Y-137705203D01*
X208443232Y-137495734D01*
X208399000Y-137273364D01*
X208399000Y-137046636D01*
X208443232Y-136824266D01*
X208529997Y-136614797D01*
X208655960Y-136426280D01*
X208816280Y-136265960D01*
X209004797Y-136139997D01*
X209214266Y-136053232D01*
X209325451Y-136031116D01*
X209436635Y-136009000D01*
X209663365Y-136009000D01*
X209774549Y-136031116D01*
X209774549Y-136031116D01*
G37*
G36*
X115032549Y-136031116D02*
G01*
X115143734Y-136053232D01*
X115353203Y-136139997D01*
X115541720Y-136265960D01*
X115702040Y-136426280D01*
X115828003Y-136614797D01*
X115914768Y-136824266D01*
X115959000Y-137046636D01*
X115959000Y-137273364D01*
X115914768Y-137495734D01*
X115828003Y-137705203D01*
X115702040Y-137893720D01*
X115541720Y-138054040D01*
X115353203Y-138180003D01*
X115143734Y-138266768D01*
X115032549Y-138288884D01*
X114921365Y-138311000D01*
X114694635Y-138311000D01*
X114583451Y-138288884D01*
X114472266Y-138266768D01*
X114262797Y-138180003D01*
X114074280Y-138054040D01*
X113913960Y-137893720D01*
X113787997Y-137705203D01*
X113701232Y-137495734D01*
X113657000Y-137273364D01*
X113657000Y-137046636D01*
X113701232Y-136824266D01*
X113787997Y-136614797D01*
X113913960Y-136426280D01*
X114074280Y-136265960D01*
X114262797Y-136139997D01*
X114472266Y-136053232D01*
X114583451Y-136031116D01*
X114694635Y-136009000D01*
X114921365Y-136009000D01*
X115032549Y-136031116D01*
X115032549Y-136031116D01*
G37*
G36*
X193131600Y-130155753D02*
G01*
X193189675Y-130173371D01*
X193243203Y-130201982D01*
X193290117Y-130240483D01*
X193328618Y-130287397D01*
X193357229Y-130340925D01*
X193374847Y-130399000D01*
X193381400Y-130465540D01*
X193381400Y-133934860D01*
X193374847Y-134001400D01*
X193357229Y-134059475D01*
X193328618Y-134113003D01*
X193290117Y-134159917D01*
X193243203Y-134198418D01*
X193189675Y-134227029D01*
X193131600Y-134244647D01*
X193065060Y-134251200D01*
X189595740Y-134251200D01*
X189529200Y-134244647D01*
X189471125Y-134227029D01*
X189417597Y-134198418D01*
X189370683Y-134159917D01*
X189332182Y-134113003D01*
X189303571Y-134059475D01*
X189285953Y-134001400D01*
X189279400Y-133934860D01*
X189279400Y-130465540D01*
X189285953Y-130399000D01*
X189303571Y-130340925D01*
X189332182Y-130287397D01*
X189370683Y-130240483D01*
X189417597Y-130201982D01*
X189471125Y-130173371D01*
X189529200Y-130155753D01*
X189595740Y-130149200D01*
X193065060Y-130149200D01*
X193131600Y-130155753D01*
X193131600Y-130155753D01*
G37*
G36*
X186631600Y-130155753D02*
G01*
X186689675Y-130173371D01*
X186743203Y-130201982D01*
X186790117Y-130240483D01*
X186828618Y-130287397D01*
X186857229Y-130340925D01*
X186874847Y-130399000D01*
X186881400Y-130465540D01*
X186881400Y-133934860D01*
X186874847Y-134001400D01*
X186857229Y-134059475D01*
X186828618Y-134113003D01*
X186790117Y-134159917D01*
X186743203Y-134198418D01*
X186689675Y-134227029D01*
X186631600Y-134244647D01*
X186565060Y-134251200D01*
X183095740Y-134251200D01*
X183029200Y-134244647D01*
X182971125Y-134227029D01*
X182917597Y-134198418D01*
X182870683Y-134159917D01*
X182832182Y-134113003D01*
X182803571Y-134059475D01*
X182785953Y-134001400D01*
X182779400Y-133934860D01*
X182779400Y-130465540D01*
X182785953Y-130399000D01*
X182803571Y-130340925D01*
X182832182Y-130287397D01*
X182870683Y-130240483D01*
X182917597Y-130201982D01*
X182971125Y-130173371D01*
X183029200Y-130155753D01*
X183095740Y-130149200D01*
X186565060Y-130149200D01*
X186631600Y-130155753D01*
X186631600Y-130155753D01*
G37*
G36*
X180131600Y-130155753D02*
G01*
X180189675Y-130173371D01*
X180243203Y-130201982D01*
X180290117Y-130240483D01*
X180328618Y-130287397D01*
X180357229Y-130340925D01*
X180374847Y-130399000D01*
X180381400Y-130465540D01*
X180381400Y-133934860D01*
X180374847Y-134001400D01*
X180357229Y-134059475D01*
X180328618Y-134113003D01*
X180290117Y-134159917D01*
X180243203Y-134198418D01*
X180189675Y-134227029D01*
X180131600Y-134244647D01*
X180065060Y-134251200D01*
X176595740Y-134251200D01*
X176529200Y-134244647D01*
X176471125Y-134227029D01*
X176417597Y-134198418D01*
X176370683Y-134159917D01*
X176332182Y-134113003D01*
X176303571Y-134059475D01*
X176285953Y-134001400D01*
X176279400Y-133934860D01*
X176279400Y-130465540D01*
X176285953Y-130399000D01*
X176303571Y-130340925D01*
X176332182Y-130287397D01*
X176370683Y-130240483D01*
X176417597Y-130201982D01*
X176471125Y-130173371D01*
X176529200Y-130155753D01*
X176595740Y-130149200D01*
X180065060Y-130149200D01*
X180131600Y-130155753D01*
X180131600Y-130155753D01*
G37*
G36*
X173621600Y-130155753D02*
G01*
X173679675Y-130173371D01*
X173733203Y-130201982D01*
X173780117Y-130240483D01*
X173818618Y-130287397D01*
X173847229Y-130340925D01*
X173864847Y-130399000D01*
X173871400Y-130465540D01*
X173871400Y-133934860D01*
X173864847Y-134001400D01*
X173847229Y-134059475D01*
X173818618Y-134113003D01*
X173780117Y-134159917D01*
X173733203Y-134198418D01*
X173679675Y-134227029D01*
X173621600Y-134244647D01*
X173555060Y-134251200D01*
X170085740Y-134251200D01*
X170019200Y-134244647D01*
X169961125Y-134227029D01*
X169907597Y-134198418D01*
X169860683Y-134159917D01*
X169822182Y-134113003D01*
X169793571Y-134059475D01*
X169775953Y-134001400D01*
X169769400Y-133934860D01*
X169769400Y-130465540D01*
X169775953Y-130399000D01*
X169793571Y-130340925D01*
X169822182Y-130287397D01*
X169860683Y-130240483D01*
X169907597Y-130201982D01*
X169961125Y-130173371D01*
X170019200Y-130155753D01*
X170085740Y-130149200D01*
X173555060Y-130149200D01*
X173621600Y-130155753D01*
X173621600Y-130155753D01*
G37*
G36*
X199641600Y-130155753D02*
G01*
X199699675Y-130173371D01*
X199753203Y-130201982D01*
X199800117Y-130240483D01*
X199838618Y-130287397D01*
X199867229Y-130340925D01*
X199884847Y-130399000D01*
X199891400Y-130465540D01*
X199891400Y-133934860D01*
X199884847Y-134001400D01*
X199867229Y-134059475D01*
X199838618Y-134113003D01*
X199800117Y-134159917D01*
X199753203Y-134198418D01*
X199699675Y-134227029D01*
X199641600Y-134244647D01*
X199575060Y-134251200D01*
X196105740Y-134251200D01*
X196039200Y-134244647D01*
X195981125Y-134227029D01*
X195927597Y-134198418D01*
X195880683Y-134159917D01*
X195842182Y-134113003D01*
X195813571Y-134059475D01*
X195795953Y-134001400D01*
X195789400Y-133934860D01*
X195789400Y-130465540D01*
X195795953Y-130399000D01*
X195813571Y-130340925D01*
X195842182Y-130287397D01*
X195880683Y-130240483D01*
X195927597Y-130201982D01*
X195981125Y-130173371D01*
X196039200Y-130155753D01*
X196105740Y-130149200D01*
X199575060Y-130149200D01*
X199641600Y-130155753D01*
X199641600Y-130155753D01*
G37*
G36*
X206171600Y-130155753D02*
G01*
X206229675Y-130173371D01*
X206283203Y-130201982D01*
X206330117Y-130240483D01*
X206368618Y-130287397D01*
X206397229Y-130340925D01*
X206414847Y-130399000D01*
X206421400Y-130465540D01*
X206421400Y-133934860D01*
X206414847Y-134001400D01*
X206397229Y-134059475D01*
X206368618Y-134113003D01*
X206330117Y-134159917D01*
X206283203Y-134198418D01*
X206229675Y-134227029D01*
X206171600Y-134244647D01*
X206105060Y-134251200D01*
X202635740Y-134251200D01*
X202569200Y-134244647D01*
X202511125Y-134227029D01*
X202457597Y-134198418D01*
X202410683Y-134159917D01*
X202372182Y-134113003D01*
X202343571Y-134059475D01*
X202325953Y-134001400D01*
X202319400Y-133934860D01*
X202319400Y-130465540D01*
X202325953Y-130399000D01*
X202343571Y-130340925D01*
X202372182Y-130287397D01*
X202410683Y-130240483D01*
X202457597Y-130201982D01*
X202511125Y-130173371D01*
X202569200Y-130155753D01*
X202635740Y-130149200D01*
X206105060Y-130149200D01*
X206171600Y-130155753D01*
X206171600Y-130155753D01*
G37*
G36*
X121621600Y-130145753D02*
G01*
X121679675Y-130163371D01*
X121733203Y-130191982D01*
X121780117Y-130230483D01*
X121818618Y-130277397D01*
X121847229Y-130330925D01*
X121864847Y-130389000D01*
X121871400Y-130455540D01*
X121871400Y-133924860D01*
X121864847Y-133991400D01*
X121847229Y-134049475D01*
X121818618Y-134103003D01*
X121780117Y-134149917D01*
X121733203Y-134188418D01*
X121679675Y-134217029D01*
X121621600Y-134234647D01*
X121555060Y-134241200D01*
X118085740Y-134241200D01*
X118019200Y-134234647D01*
X117961125Y-134217029D01*
X117907597Y-134188418D01*
X117860683Y-134149917D01*
X117822182Y-134103003D01*
X117793571Y-134049475D01*
X117775953Y-133991400D01*
X117769400Y-133924860D01*
X117769400Y-130455540D01*
X117775953Y-130389000D01*
X117793571Y-130330925D01*
X117822182Y-130277397D01*
X117860683Y-130230483D01*
X117907597Y-130191982D01*
X117961125Y-130163371D01*
X118019200Y-130145753D01*
X118085740Y-130139200D01*
X121555060Y-130139200D01*
X121621600Y-130145753D01*
X121621600Y-130145753D01*
G37*
G36*
X128121600Y-130145753D02*
G01*
X128179675Y-130163371D01*
X128233203Y-130191982D01*
X128280117Y-130230483D01*
X128318618Y-130277397D01*
X128347229Y-130330925D01*
X128364847Y-130389000D01*
X128371400Y-130455540D01*
X128371400Y-133924860D01*
X128364847Y-133991400D01*
X128347229Y-134049475D01*
X128318618Y-134103003D01*
X128280117Y-134149917D01*
X128233203Y-134188418D01*
X128179675Y-134217029D01*
X128121600Y-134234647D01*
X128055060Y-134241200D01*
X124585740Y-134241200D01*
X124519200Y-134234647D01*
X124461125Y-134217029D01*
X124407597Y-134188418D01*
X124360683Y-134149917D01*
X124322182Y-134103003D01*
X124293571Y-134049475D01*
X124275953Y-133991400D01*
X124269400Y-133924860D01*
X124269400Y-130455540D01*
X124275953Y-130389000D01*
X124293571Y-130330925D01*
X124322182Y-130277397D01*
X124360683Y-130230483D01*
X124407597Y-130191982D01*
X124461125Y-130163371D01*
X124519200Y-130145753D01*
X124585740Y-130139200D01*
X128055060Y-130139200D01*
X128121600Y-130145753D01*
X128121600Y-130145753D01*
G37*
G36*
X134621600Y-130145753D02*
G01*
X134679675Y-130163371D01*
X134733203Y-130191982D01*
X134780117Y-130230483D01*
X134818618Y-130277397D01*
X134847229Y-130330925D01*
X134864847Y-130389000D01*
X134871400Y-130455540D01*
X134871400Y-133924860D01*
X134864847Y-133991400D01*
X134847229Y-134049475D01*
X134818618Y-134103003D01*
X134780117Y-134149917D01*
X134733203Y-134188418D01*
X134679675Y-134217029D01*
X134621600Y-134234647D01*
X134555060Y-134241200D01*
X131085740Y-134241200D01*
X131019200Y-134234647D01*
X130961125Y-134217029D01*
X130907597Y-134188418D01*
X130860683Y-134149917D01*
X130822182Y-134103003D01*
X130793571Y-134049475D01*
X130775953Y-133991400D01*
X130769400Y-133924860D01*
X130769400Y-130455540D01*
X130775953Y-130389000D01*
X130793571Y-130330925D01*
X130822182Y-130277397D01*
X130860683Y-130230483D01*
X130907597Y-130191982D01*
X130961125Y-130163371D01*
X131019200Y-130145753D01*
X131085740Y-130139200D01*
X134555060Y-130139200D01*
X134621600Y-130145753D01*
X134621600Y-130145753D01*
G37*
G36*
X141111600Y-130145753D02*
G01*
X141169675Y-130163371D01*
X141223203Y-130191982D01*
X141270117Y-130230483D01*
X141308618Y-130277397D01*
X141337229Y-130330925D01*
X141354847Y-130389000D01*
X141361400Y-130455540D01*
X141361400Y-133924860D01*
X141354847Y-133991400D01*
X141337229Y-134049475D01*
X141308618Y-134103003D01*
X141270117Y-134149917D01*
X141223203Y-134188418D01*
X141169675Y-134217029D01*
X141111600Y-134234647D01*
X141045060Y-134241200D01*
X137575740Y-134241200D01*
X137509200Y-134234647D01*
X137451125Y-134217029D01*
X137397597Y-134188418D01*
X137350683Y-134149917D01*
X137312182Y-134103003D01*
X137283571Y-134049475D01*
X137265953Y-133991400D01*
X137259400Y-133924860D01*
X137259400Y-130455540D01*
X137265953Y-130389000D01*
X137283571Y-130330925D01*
X137312182Y-130277397D01*
X137350683Y-130230483D01*
X137397597Y-130191982D01*
X137451125Y-130163371D01*
X137509200Y-130145753D01*
X137575740Y-130139200D01*
X141045060Y-130139200D01*
X141111600Y-130145753D01*
X141111600Y-130145753D01*
G37*
G36*
X147611600Y-130145753D02*
G01*
X147669675Y-130163371D01*
X147723203Y-130191982D01*
X147770117Y-130230483D01*
X147808618Y-130277397D01*
X147837229Y-130330925D01*
X147854847Y-130389000D01*
X147861400Y-130455540D01*
X147861400Y-133924860D01*
X147854847Y-133991400D01*
X147837229Y-134049475D01*
X147808618Y-134103003D01*
X147770117Y-134149917D01*
X147723203Y-134188418D01*
X147669675Y-134217029D01*
X147611600Y-134234647D01*
X147545060Y-134241200D01*
X144075740Y-134241200D01*
X144009200Y-134234647D01*
X143951125Y-134217029D01*
X143897597Y-134188418D01*
X143850683Y-134149917D01*
X143812182Y-134103003D01*
X143783571Y-134049475D01*
X143765953Y-133991400D01*
X143759400Y-133924860D01*
X143759400Y-130455540D01*
X143765953Y-130389000D01*
X143783571Y-130330925D01*
X143812182Y-130277397D01*
X143850683Y-130230483D01*
X143897597Y-130191982D01*
X143951125Y-130163371D01*
X144009200Y-130145753D01*
X144075740Y-130139200D01*
X147545060Y-130139200D01*
X147611600Y-130145753D01*
X147611600Y-130145753D01*
G37*
G36*
X167121000Y-130145353D02*
G01*
X167179075Y-130162971D01*
X167232603Y-130191582D01*
X167279517Y-130230083D01*
X167318018Y-130276997D01*
X167346629Y-130330525D01*
X167364247Y-130388600D01*
X167370800Y-130455140D01*
X167370800Y-133924460D01*
X167364247Y-133991000D01*
X167346629Y-134049075D01*
X167318018Y-134102603D01*
X167279517Y-134149517D01*
X167232603Y-134188018D01*
X167179075Y-134216629D01*
X167121000Y-134234247D01*
X167054460Y-134240800D01*
X150585140Y-134240800D01*
X150518600Y-134234247D01*
X150460525Y-134216629D01*
X150406997Y-134188018D01*
X150360083Y-134149517D01*
X150321582Y-134102603D01*
X150292971Y-134049075D01*
X150275353Y-133991000D01*
X150268800Y-133924460D01*
X150268800Y-130455140D01*
X150275353Y-130388600D01*
X150292971Y-130330525D01*
X150321582Y-130276997D01*
X150360083Y-130230083D01*
X150406997Y-130191582D01*
X150460525Y-130162971D01*
X150518600Y-130145353D01*
X150585140Y-130138800D01*
X167054460Y-130138800D01*
X167121000Y-130145353D01*
X167121000Y-130145353D01*
G37*
G36*
X175251600Y-123655753D02*
G01*
X175309675Y-123673371D01*
X175363203Y-123701982D01*
X175410117Y-123740483D01*
X175448618Y-123787397D01*
X175477229Y-123840925D01*
X175494847Y-123899000D01*
X175501400Y-123965540D01*
X175501400Y-127434860D01*
X175494847Y-127501400D01*
X175477229Y-127559475D01*
X175448618Y-127613003D01*
X175410117Y-127659917D01*
X175363203Y-127698418D01*
X175309675Y-127727029D01*
X175251600Y-127744647D01*
X175185060Y-127751200D01*
X171715740Y-127751200D01*
X171649200Y-127744647D01*
X171591125Y-127727029D01*
X171537597Y-127698418D01*
X171490683Y-127659917D01*
X171452182Y-127613003D01*
X171423571Y-127559475D01*
X171405953Y-127501400D01*
X171399400Y-127434860D01*
X171399400Y-123965540D01*
X171405953Y-123899000D01*
X171423571Y-123840925D01*
X171452182Y-123787397D01*
X171490683Y-123740483D01*
X171537597Y-123701982D01*
X171591125Y-123673371D01*
X171649200Y-123655753D01*
X171715740Y-123649200D01*
X175185060Y-123649200D01*
X175251600Y-123655753D01*
X175251600Y-123655753D01*
G37*
G36*
X181761600Y-123655753D02*
G01*
X181819675Y-123673371D01*
X181873203Y-123701982D01*
X181920117Y-123740483D01*
X181958618Y-123787397D01*
X181987229Y-123840925D01*
X182004847Y-123899000D01*
X182011400Y-123965540D01*
X182011400Y-127434860D01*
X182004847Y-127501400D01*
X181987229Y-127559475D01*
X181958618Y-127613003D01*
X181920117Y-127659917D01*
X181873203Y-127698418D01*
X181819675Y-127727029D01*
X181761600Y-127744647D01*
X181695060Y-127751200D01*
X178225740Y-127751200D01*
X178159200Y-127744647D01*
X178101125Y-127727029D01*
X178047597Y-127698418D01*
X178000683Y-127659917D01*
X177962182Y-127613003D01*
X177933571Y-127559475D01*
X177915953Y-127501400D01*
X177909400Y-127434860D01*
X177909400Y-123965540D01*
X177915953Y-123899000D01*
X177933571Y-123840925D01*
X177962182Y-123787397D01*
X178000683Y-123740483D01*
X178047597Y-123701982D01*
X178101125Y-123673371D01*
X178159200Y-123655753D01*
X178225740Y-123649200D01*
X181695060Y-123649200D01*
X181761600Y-123655753D01*
X181761600Y-123655753D01*
G37*
G36*
X188261600Y-123655753D02*
G01*
X188319675Y-123673371D01*
X188373203Y-123701982D01*
X188420117Y-123740483D01*
X188458618Y-123787397D01*
X188487229Y-123840925D01*
X188504847Y-123899000D01*
X188511400Y-123965540D01*
X188511400Y-127434860D01*
X188504847Y-127501400D01*
X188487229Y-127559475D01*
X188458618Y-127613003D01*
X188420117Y-127659917D01*
X188373203Y-127698418D01*
X188319675Y-127727029D01*
X188261600Y-127744647D01*
X188195060Y-127751200D01*
X184725740Y-127751200D01*
X184659200Y-127744647D01*
X184601125Y-127727029D01*
X184547597Y-127698418D01*
X184500683Y-127659917D01*
X184462182Y-127613003D01*
X184433571Y-127559475D01*
X184415953Y-127501400D01*
X184409400Y-127434860D01*
X184409400Y-123965540D01*
X184415953Y-123899000D01*
X184433571Y-123840925D01*
X184462182Y-123787397D01*
X184500683Y-123740483D01*
X184547597Y-123701982D01*
X184601125Y-123673371D01*
X184659200Y-123655753D01*
X184725740Y-123649200D01*
X188195060Y-123649200D01*
X188261600Y-123655753D01*
X188261600Y-123655753D01*
G37*
G36*
X194781600Y-123653753D02*
G01*
X194839675Y-123671371D01*
X194893203Y-123699982D01*
X194940117Y-123738483D01*
X194978618Y-123785397D01*
X195007229Y-123838925D01*
X195024847Y-123897000D01*
X195031400Y-123963540D01*
X195031400Y-127432860D01*
X195024847Y-127499400D01*
X195007229Y-127557475D01*
X194978618Y-127611003D01*
X194940117Y-127657917D01*
X194893203Y-127696418D01*
X194839675Y-127725029D01*
X194781600Y-127742647D01*
X194715060Y-127749200D01*
X191245740Y-127749200D01*
X191179200Y-127742647D01*
X191121125Y-127725029D01*
X191067597Y-127696418D01*
X191020683Y-127657917D01*
X190982182Y-127611003D01*
X190953571Y-127557475D01*
X190935953Y-127499400D01*
X190929400Y-127432860D01*
X190929400Y-123963540D01*
X190935953Y-123897000D01*
X190953571Y-123838925D01*
X190982182Y-123785397D01*
X191020683Y-123738483D01*
X191067597Y-123699982D01*
X191121125Y-123671371D01*
X191179200Y-123653753D01*
X191245740Y-123647200D01*
X194715060Y-123647200D01*
X194781600Y-123653753D01*
X194781600Y-123653753D01*
G37*
G36*
X168751600Y-123645753D02*
G01*
X168809675Y-123663371D01*
X168863203Y-123691982D01*
X168910117Y-123730483D01*
X168948618Y-123777397D01*
X168977229Y-123830925D01*
X168994847Y-123889000D01*
X169001400Y-123955540D01*
X169001400Y-127424860D01*
X168994847Y-127491400D01*
X168977229Y-127549475D01*
X168948618Y-127603003D01*
X168910117Y-127649917D01*
X168863203Y-127688418D01*
X168809675Y-127717029D01*
X168751600Y-127734647D01*
X168685060Y-127741200D01*
X165215740Y-127741200D01*
X165149200Y-127734647D01*
X165091125Y-127717029D01*
X165037597Y-127688418D01*
X164990683Y-127649917D01*
X164952182Y-127603003D01*
X164923571Y-127549475D01*
X164905953Y-127491400D01*
X164899400Y-127424860D01*
X164899400Y-123955540D01*
X164905953Y-123889000D01*
X164923571Y-123830925D01*
X164952182Y-123777397D01*
X164990683Y-123730483D01*
X165037597Y-123691982D01*
X165091125Y-123663371D01*
X165149200Y-123645753D01*
X165215740Y-123639200D01*
X168685060Y-123639200D01*
X168751600Y-123645753D01*
X168751600Y-123645753D01*
G37*
G36*
X162251600Y-123645753D02*
G01*
X162309675Y-123663371D01*
X162363203Y-123691982D01*
X162410117Y-123730483D01*
X162448618Y-123777397D01*
X162477229Y-123830925D01*
X162494847Y-123889000D01*
X162501400Y-123955540D01*
X162501400Y-127424860D01*
X162494847Y-127491400D01*
X162477229Y-127549475D01*
X162448618Y-127603003D01*
X162410117Y-127649917D01*
X162363203Y-127688418D01*
X162309675Y-127717029D01*
X162251600Y-127734647D01*
X162185060Y-127741200D01*
X158715740Y-127741200D01*
X158649200Y-127734647D01*
X158591125Y-127717029D01*
X158537597Y-127688418D01*
X158490683Y-127649917D01*
X158452182Y-127603003D01*
X158423571Y-127549475D01*
X158405953Y-127491400D01*
X158399400Y-127424860D01*
X158399400Y-123955540D01*
X158405953Y-123889000D01*
X158423571Y-123830925D01*
X158452182Y-123777397D01*
X158490683Y-123730483D01*
X158537597Y-123691982D01*
X158591125Y-123663371D01*
X158649200Y-123645753D01*
X158715740Y-123639200D01*
X162185060Y-123639200D01*
X162251600Y-123645753D01*
X162251600Y-123645753D01*
G37*
G36*
X155751600Y-123645753D02*
G01*
X155809675Y-123663371D01*
X155863203Y-123691982D01*
X155910117Y-123730483D01*
X155948618Y-123777397D01*
X155977229Y-123830925D01*
X155994847Y-123889000D01*
X156001400Y-123955540D01*
X156001400Y-127424860D01*
X155994847Y-127491400D01*
X155977229Y-127549475D01*
X155948618Y-127603003D01*
X155910117Y-127649917D01*
X155863203Y-127688418D01*
X155809675Y-127717029D01*
X155751600Y-127734647D01*
X155685060Y-127741200D01*
X152215740Y-127741200D01*
X152149200Y-127734647D01*
X152091125Y-127717029D01*
X152037597Y-127688418D01*
X151990683Y-127649917D01*
X151952182Y-127603003D01*
X151923571Y-127549475D01*
X151905953Y-127491400D01*
X151899400Y-127424860D01*
X151899400Y-123955540D01*
X151905953Y-123889000D01*
X151923571Y-123830925D01*
X151952182Y-123777397D01*
X151990683Y-123730483D01*
X152037597Y-123691982D01*
X152091125Y-123663371D01*
X152149200Y-123645753D01*
X152215740Y-123639200D01*
X155685060Y-123639200D01*
X155751600Y-123645753D01*
X155751600Y-123645753D01*
G37*
G36*
X149251600Y-123645753D02*
G01*
X149309675Y-123663371D01*
X149363203Y-123691982D01*
X149410117Y-123730483D01*
X149448618Y-123777397D01*
X149477229Y-123830925D01*
X149494847Y-123889000D01*
X149501400Y-123955540D01*
X149501400Y-127424860D01*
X149494847Y-127491400D01*
X149477229Y-127549475D01*
X149448618Y-127603003D01*
X149410117Y-127649917D01*
X149363203Y-127688418D01*
X149309675Y-127717029D01*
X149251600Y-127734647D01*
X149185060Y-127741200D01*
X145715740Y-127741200D01*
X145649200Y-127734647D01*
X145591125Y-127717029D01*
X145537597Y-127688418D01*
X145490683Y-127649917D01*
X145452182Y-127603003D01*
X145423571Y-127549475D01*
X145405953Y-127491400D01*
X145399400Y-127424860D01*
X145399400Y-123955540D01*
X145405953Y-123889000D01*
X145423571Y-123830925D01*
X145452182Y-123777397D01*
X145490683Y-123730483D01*
X145537597Y-123691982D01*
X145591125Y-123663371D01*
X145649200Y-123645753D01*
X145715740Y-123639200D01*
X149185060Y-123639200D01*
X149251600Y-123645753D01*
X149251600Y-123645753D01*
G37*
G36*
X142751600Y-123645753D02*
G01*
X142809675Y-123663371D01*
X142863203Y-123691982D01*
X142910117Y-123730483D01*
X142948618Y-123777397D01*
X142977229Y-123830925D01*
X142994847Y-123889000D01*
X143001400Y-123955540D01*
X143001400Y-127424860D01*
X142994847Y-127491400D01*
X142977229Y-127549475D01*
X142948618Y-127603003D01*
X142910117Y-127649917D01*
X142863203Y-127688418D01*
X142809675Y-127717029D01*
X142751600Y-127734647D01*
X142685060Y-127741200D01*
X139215740Y-127741200D01*
X139149200Y-127734647D01*
X139091125Y-127717029D01*
X139037597Y-127688418D01*
X138990683Y-127649917D01*
X138952182Y-127603003D01*
X138923571Y-127549475D01*
X138905953Y-127491400D01*
X138899400Y-127424860D01*
X138899400Y-123955540D01*
X138905953Y-123889000D01*
X138923571Y-123830925D01*
X138952182Y-123777397D01*
X138990683Y-123730483D01*
X139037597Y-123691982D01*
X139091125Y-123663371D01*
X139149200Y-123645753D01*
X139215740Y-123639200D01*
X142685060Y-123639200D01*
X142751600Y-123645753D01*
X142751600Y-123645753D01*
G37*
G36*
X136251600Y-123645753D02*
G01*
X136309675Y-123663371D01*
X136363203Y-123691982D01*
X136410117Y-123730483D01*
X136448618Y-123777397D01*
X136477229Y-123830925D01*
X136494847Y-123889000D01*
X136501400Y-123955540D01*
X136501400Y-127424860D01*
X136494847Y-127491400D01*
X136477229Y-127549475D01*
X136448618Y-127603003D01*
X136410117Y-127649917D01*
X136363203Y-127688418D01*
X136309675Y-127717029D01*
X136251600Y-127734647D01*
X136185060Y-127741200D01*
X132715740Y-127741200D01*
X132649200Y-127734647D01*
X132591125Y-127717029D01*
X132537597Y-127688418D01*
X132490683Y-127649917D01*
X132452182Y-127603003D01*
X132423571Y-127549475D01*
X132405953Y-127491400D01*
X132399400Y-127424860D01*
X132399400Y-123955540D01*
X132405953Y-123889000D01*
X132423571Y-123830925D01*
X132452182Y-123777397D01*
X132490683Y-123730483D01*
X132537597Y-123691982D01*
X132591125Y-123663371D01*
X132649200Y-123645753D01*
X132715740Y-123639200D01*
X136185060Y-123639200D01*
X136251600Y-123645753D01*
X136251600Y-123645753D01*
G37*
G36*
X129753900Y-123645753D02*
G01*
X129811975Y-123663371D01*
X129865503Y-123691982D01*
X129912417Y-123730483D01*
X129950918Y-123777397D01*
X129979529Y-123830925D01*
X129997147Y-123889000D01*
X130003700Y-123955540D01*
X130003700Y-127424860D01*
X129997147Y-127491400D01*
X129979529Y-127549475D01*
X129950918Y-127603003D01*
X129912417Y-127649917D01*
X129865503Y-127688418D01*
X129811975Y-127717029D01*
X129753900Y-127734647D01*
X129687360Y-127741200D01*
X118093040Y-127741200D01*
X118026500Y-127734647D01*
X117968425Y-127717029D01*
X117914897Y-127688418D01*
X117867983Y-127649917D01*
X117829482Y-127603003D01*
X117800871Y-127549475D01*
X117783253Y-127491400D01*
X117776700Y-127424860D01*
X117776700Y-123955540D01*
X117783253Y-123889000D01*
X117800871Y-123830925D01*
X117829482Y-123777397D01*
X117867983Y-123730483D01*
X117914897Y-123691982D01*
X117968425Y-123663371D01*
X118026500Y-123645753D01*
X118093040Y-123639200D01*
X129687360Y-123639200D01*
X129753900Y-123645753D01*
X129753900Y-123645753D01*
G37*
G36*
X206168700Y-123645353D02*
G01*
X206226775Y-123662971D01*
X206280303Y-123691582D01*
X206327217Y-123730083D01*
X206365718Y-123776997D01*
X206394329Y-123830525D01*
X206411947Y-123888600D01*
X206418500Y-123955140D01*
X206418500Y-127424460D01*
X206411947Y-127491000D01*
X206394329Y-127549075D01*
X206365718Y-127602603D01*
X206327217Y-127649517D01*
X206280303Y-127688018D01*
X206226775Y-127716629D01*
X206168700Y-127734247D01*
X206102160Y-127740800D01*
X197757840Y-127740800D01*
X197691300Y-127734247D01*
X197633225Y-127716629D01*
X197579697Y-127688018D01*
X197532783Y-127649517D01*
X197494282Y-127602603D01*
X197465671Y-127549075D01*
X197448053Y-127491000D01*
X197441500Y-127424460D01*
X197441500Y-123955140D01*
X197448053Y-123888600D01*
X197465671Y-123830525D01*
X197494282Y-123776997D01*
X197532783Y-123730083D01*
X197579697Y-123691582D01*
X197633225Y-123662971D01*
X197691300Y-123645353D01*
X197757840Y-123638800D01*
X206102160Y-123638800D01*
X206168700Y-123645353D01*
X206168700Y-123645353D01*
G37*
G36*
X178531600Y-117155753D02*
G01*
X178589675Y-117173371D01*
X178643203Y-117201982D01*
X178690117Y-117240483D01*
X178728618Y-117287397D01*
X178757229Y-117340925D01*
X178774847Y-117399000D01*
X178781400Y-117465540D01*
X178781400Y-120934860D01*
X178774847Y-121001400D01*
X178757229Y-121059475D01*
X178728618Y-121113003D01*
X178690117Y-121159917D01*
X178643203Y-121198418D01*
X178589675Y-121227029D01*
X178531600Y-121244647D01*
X178465060Y-121251200D01*
X174995740Y-121251200D01*
X174929200Y-121244647D01*
X174871125Y-121227029D01*
X174817597Y-121198418D01*
X174770683Y-121159917D01*
X174732182Y-121113003D01*
X174703571Y-121059475D01*
X174685953Y-121001400D01*
X174679400Y-120934860D01*
X174679400Y-117465540D01*
X174685953Y-117399000D01*
X174703571Y-117340925D01*
X174732182Y-117287397D01*
X174770683Y-117240483D01*
X174817597Y-117201982D01*
X174871125Y-117173371D01*
X174929200Y-117155753D01*
X174995740Y-117149200D01*
X178465060Y-117149200D01*
X178531600Y-117155753D01*
X178531600Y-117155753D01*
G37*
G36*
X185031600Y-117155753D02*
G01*
X185089675Y-117173371D01*
X185143203Y-117201982D01*
X185190117Y-117240483D01*
X185228618Y-117287397D01*
X185257229Y-117340925D01*
X185274847Y-117399000D01*
X185281400Y-117465540D01*
X185281400Y-120934860D01*
X185274847Y-121001400D01*
X185257229Y-121059475D01*
X185228618Y-121113003D01*
X185190117Y-121159917D01*
X185143203Y-121198418D01*
X185089675Y-121227029D01*
X185031600Y-121244647D01*
X184965060Y-121251200D01*
X181495740Y-121251200D01*
X181429200Y-121244647D01*
X181371125Y-121227029D01*
X181317597Y-121198418D01*
X181270683Y-121159917D01*
X181232182Y-121113003D01*
X181203571Y-121059475D01*
X181185953Y-121001400D01*
X181179400Y-120934860D01*
X181179400Y-117465540D01*
X181185953Y-117399000D01*
X181203571Y-117340925D01*
X181232182Y-117287397D01*
X181270683Y-117240483D01*
X181317597Y-117201982D01*
X181371125Y-117173371D01*
X181429200Y-117155753D01*
X181495740Y-117149200D01*
X184965060Y-117149200D01*
X185031600Y-117155753D01*
X185031600Y-117155753D01*
G37*
G36*
X191541600Y-117155753D02*
G01*
X191599675Y-117173371D01*
X191653203Y-117201982D01*
X191700117Y-117240483D01*
X191738618Y-117287397D01*
X191767229Y-117340925D01*
X191784847Y-117399000D01*
X191791400Y-117465540D01*
X191791400Y-120934860D01*
X191784847Y-121001400D01*
X191767229Y-121059475D01*
X191738618Y-121113003D01*
X191700117Y-121159917D01*
X191653203Y-121198418D01*
X191599675Y-121227029D01*
X191541600Y-121244647D01*
X191475060Y-121251200D01*
X188005740Y-121251200D01*
X187939200Y-121244647D01*
X187881125Y-121227029D01*
X187827597Y-121198418D01*
X187780683Y-121159917D01*
X187742182Y-121113003D01*
X187713571Y-121059475D01*
X187695953Y-121001400D01*
X187689400Y-120934860D01*
X187689400Y-117465540D01*
X187695953Y-117399000D01*
X187713571Y-117340925D01*
X187742182Y-117287397D01*
X187780683Y-117240483D01*
X187827597Y-117201982D01*
X187881125Y-117173371D01*
X187939200Y-117155753D01*
X188005740Y-117149200D01*
X191475060Y-117149200D01*
X191541600Y-117155753D01*
X191541600Y-117155753D01*
G37*
G36*
X198041600Y-117155753D02*
G01*
X198099675Y-117173371D01*
X198153203Y-117201982D01*
X198200117Y-117240483D01*
X198238618Y-117287397D01*
X198267229Y-117340925D01*
X198284847Y-117399000D01*
X198291400Y-117465540D01*
X198291400Y-120934860D01*
X198284847Y-121001400D01*
X198267229Y-121059475D01*
X198238618Y-121113003D01*
X198200117Y-121159917D01*
X198153203Y-121198418D01*
X198099675Y-121227029D01*
X198041600Y-121244647D01*
X197975060Y-121251200D01*
X194505740Y-121251200D01*
X194439200Y-121244647D01*
X194381125Y-121227029D01*
X194327597Y-121198418D01*
X194280683Y-121159917D01*
X194242182Y-121113003D01*
X194213571Y-121059475D01*
X194195953Y-121001400D01*
X194189400Y-120934860D01*
X194189400Y-117465540D01*
X194195953Y-117399000D01*
X194213571Y-117340925D01*
X194242182Y-117287397D01*
X194280683Y-117240483D01*
X194327597Y-117201982D01*
X194381125Y-117173371D01*
X194439200Y-117155753D01*
X194505740Y-117149200D01*
X197975060Y-117149200D01*
X198041600Y-117155753D01*
X198041600Y-117155753D01*
G37*
G36*
X206173900Y-117155153D02*
G01*
X206231975Y-117172771D01*
X206285503Y-117201382D01*
X206332417Y-117239883D01*
X206370918Y-117286797D01*
X206399529Y-117340325D01*
X206417147Y-117398400D01*
X206423700Y-117464940D01*
X206423700Y-120934260D01*
X206417147Y-121000800D01*
X206399529Y-121058875D01*
X206370918Y-121112403D01*
X206332417Y-121159317D01*
X206285503Y-121197818D01*
X206231975Y-121226429D01*
X206173900Y-121244047D01*
X206107360Y-121250600D01*
X201013040Y-121250600D01*
X200946500Y-121244047D01*
X200888425Y-121226429D01*
X200834897Y-121197818D01*
X200787983Y-121159317D01*
X200749482Y-121112403D01*
X200720871Y-121058875D01*
X200703253Y-121000800D01*
X200696700Y-120934260D01*
X200696700Y-117464940D01*
X200703253Y-117398400D01*
X200720871Y-117340325D01*
X200749482Y-117286797D01*
X200787983Y-117239883D01*
X200834897Y-117201382D01*
X200888425Y-117172771D01*
X200946500Y-117155153D01*
X201013040Y-117148600D01*
X206107360Y-117148600D01*
X206173900Y-117155153D01*
X206173900Y-117155153D01*
G37*
G36*
X146021600Y-117145753D02*
G01*
X146079675Y-117163371D01*
X146133203Y-117191982D01*
X146180117Y-117230483D01*
X146218618Y-117277397D01*
X146247229Y-117330925D01*
X146264847Y-117389000D01*
X146271400Y-117455540D01*
X146271400Y-120924860D01*
X146264847Y-120991400D01*
X146247229Y-121049475D01*
X146218618Y-121103003D01*
X146180117Y-121149917D01*
X146133203Y-121188418D01*
X146079675Y-121217029D01*
X146021600Y-121234647D01*
X145955060Y-121241200D01*
X142485740Y-121241200D01*
X142419200Y-121234647D01*
X142361125Y-121217029D01*
X142307597Y-121188418D01*
X142260683Y-121149917D01*
X142222182Y-121103003D01*
X142193571Y-121049475D01*
X142175953Y-120991400D01*
X142169400Y-120924860D01*
X142169400Y-117455540D01*
X142175953Y-117389000D01*
X142193571Y-117330925D01*
X142222182Y-117277397D01*
X142260683Y-117230483D01*
X142307597Y-117191982D01*
X142361125Y-117163371D01*
X142419200Y-117145753D01*
X142485740Y-117139200D01*
X145955060Y-117139200D01*
X146021600Y-117145753D01*
X146021600Y-117145753D01*
G37*
G36*
X172031600Y-117145753D02*
G01*
X172089675Y-117163371D01*
X172143203Y-117191982D01*
X172190117Y-117230483D01*
X172228618Y-117277397D01*
X172257229Y-117330925D01*
X172274847Y-117389000D01*
X172281400Y-117455540D01*
X172281400Y-120924860D01*
X172274847Y-120991400D01*
X172257229Y-121049475D01*
X172228618Y-121103003D01*
X172190117Y-121149917D01*
X172143203Y-121188418D01*
X172089675Y-121217029D01*
X172031600Y-121234647D01*
X171965060Y-121241200D01*
X168495740Y-121241200D01*
X168429200Y-121234647D01*
X168371125Y-121217029D01*
X168317597Y-121188418D01*
X168270683Y-121149917D01*
X168232182Y-121103003D01*
X168203571Y-121049475D01*
X168185953Y-120991400D01*
X168179400Y-120924860D01*
X168179400Y-117455540D01*
X168185953Y-117389000D01*
X168203571Y-117330925D01*
X168232182Y-117277397D01*
X168270683Y-117230483D01*
X168317597Y-117191982D01*
X168371125Y-117163371D01*
X168429200Y-117145753D01*
X168495740Y-117139200D01*
X171965060Y-117139200D01*
X172031600Y-117145753D01*
X172031600Y-117145753D01*
G37*
G36*
X165531600Y-117145753D02*
G01*
X165589675Y-117163371D01*
X165643203Y-117191982D01*
X165690117Y-117230483D01*
X165728618Y-117277397D01*
X165757229Y-117330925D01*
X165774847Y-117389000D01*
X165781400Y-117455540D01*
X165781400Y-120924860D01*
X165774847Y-120991400D01*
X165757229Y-121049475D01*
X165728618Y-121103003D01*
X165690117Y-121149917D01*
X165643203Y-121188418D01*
X165589675Y-121217029D01*
X165531600Y-121234647D01*
X165465060Y-121241200D01*
X161995740Y-121241200D01*
X161929200Y-121234647D01*
X161871125Y-121217029D01*
X161817597Y-121188418D01*
X161770683Y-121149917D01*
X161732182Y-121103003D01*
X161703571Y-121049475D01*
X161685953Y-120991400D01*
X161679400Y-120924860D01*
X161679400Y-117455540D01*
X161685953Y-117389000D01*
X161703571Y-117330925D01*
X161732182Y-117277397D01*
X161770683Y-117230483D01*
X161817597Y-117191982D01*
X161871125Y-117163371D01*
X161929200Y-117145753D01*
X161995740Y-117139200D01*
X165465060Y-117139200D01*
X165531600Y-117145753D01*
X165531600Y-117145753D01*
G37*
G36*
X159021600Y-117145753D02*
G01*
X159079675Y-117163371D01*
X159133203Y-117191982D01*
X159180117Y-117230483D01*
X159218618Y-117277397D01*
X159247229Y-117330925D01*
X159264847Y-117389000D01*
X159271400Y-117455540D01*
X159271400Y-120924860D01*
X159264847Y-120991400D01*
X159247229Y-121049475D01*
X159218618Y-121103003D01*
X159180117Y-121149917D01*
X159133203Y-121188418D01*
X159079675Y-121217029D01*
X159021600Y-121234647D01*
X158955060Y-121241200D01*
X155485740Y-121241200D01*
X155419200Y-121234647D01*
X155361125Y-121217029D01*
X155307597Y-121188418D01*
X155260683Y-121149917D01*
X155222182Y-121103003D01*
X155193571Y-121049475D01*
X155175953Y-120991400D01*
X155169400Y-120924860D01*
X155169400Y-117455540D01*
X155175953Y-117389000D01*
X155193571Y-117330925D01*
X155222182Y-117277397D01*
X155260683Y-117230483D01*
X155307597Y-117191982D01*
X155361125Y-117163371D01*
X155419200Y-117145753D01*
X155485740Y-117139200D01*
X158955060Y-117139200D01*
X159021600Y-117145753D01*
X159021600Y-117145753D01*
G37*
G36*
X152521600Y-117145753D02*
G01*
X152579675Y-117163371D01*
X152633203Y-117191982D01*
X152680117Y-117230483D01*
X152718618Y-117277397D01*
X152747229Y-117330925D01*
X152764847Y-117389000D01*
X152771400Y-117455540D01*
X152771400Y-120924860D01*
X152764847Y-120991400D01*
X152747229Y-121049475D01*
X152718618Y-121103003D01*
X152680117Y-121149917D01*
X152633203Y-121188418D01*
X152579675Y-121217029D01*
X152521600Y-121234647D01*
X152455060Y-121241200D01*
X148985740Y-121241200D01*
X148919200Y-121234647D01*
X148861125Y-121217029D01*
X148807597Y-121188418D01*
X148760683Y-121149917D01*
X148722182Y-121103003D01*
X148693571Y-121049475D01*
X148675953Y-120991400D01*
X148669400Y-120924860D01*
X148669400Y-117455540D01*
X148675953Y-117389000D01*
X148693571Y-117330925D01*
X148722182Y-117277397D01*
X148760683Y-117230483D01*
X148807597Y-117191982D01*
X148861125Y-117163371D01*
X148919200Y-117145753D01*
X148985740Y-117139200D01*
X152455060Y-117139200D01*
X152521600Y-117145753D01*
X152521600Y-117145753D01*
G37*
G36*
X139521600Y-117135753D02*
G01*
X139579675Y-117153371D01*
X139633203Y-117181982D01*
X139680117Y-117220483D01*
X139718618Y-117267397D01*
X139747229Y-117320925D01*
X139764847Y-117379000D01*
X139771400Y-117445540D01*
X139771400Y-120914860D01*
X139764847Y-120981400D01*
X139747229Y-121039475D01*
X139718618Y-121093003D01*
X139680117Y-121139917D01*
X139633203Y-121178418D01*
X139579675Y-121207029D01*
X139521600Y-121224647D01*
X139455060Y-121231200D01*
X135985740Y-121231200D01*
X135919200Y-121224647D01*
X135861125Y-121207029D01*
X135807597Y-121178418D01*
X135760683Y-121139917D01*
X135722182Y-121093003D01*
X135693571Y-121039475D01*
X135675953Y-120981400D01*
X135669400Y-120914860D01*
X135669400Y-117445540D01*
X135675953Y-117379000D01*
X135693571Y-117320925D01*
X135722182Y-117267397D01*
X135760683Y-117220483D01*
X135807597Y-117181982D01*
X135861125Y-117153371D01*
X135919200Y-117135753D01*
X135985740Y-117129200D01*
X139455060Y-117129200D01*
X139521600Y-117135753D01*
X139521600Y-117135753D01*
G37*
G36*
X133021600Y-117135753D02*
G01*
X133079675Y-117153371D01*
X133133203Y-117181982D01*
X133180117Y-117220483D01*
X133218618Y-117267397D01*
X133247229Y-117320925D01*
X133264847Y-117379000D01*
X133271400Y-117445540D01*
X133271400Y-120914860D01*
X133264847Y-120981400D01*
X133247229Y-121039475D01*
X133218618Y-121093003D01*
X133180117Y-121139917D01*
X133133203Y-121178418D01*
X133079675Y-121207029D01*
X133021600Y-121224647D01*
X132955060Y-121231200D01*
X129485740Y-121231200D01*
X129419200Y-121224647D01*
X129361125Y-121207029D01*
X129307597Y-121178418D01*
X129260683Y-121139917D01*
X129222182Y-121093003D01*
X129193571Y-121039475D01*
X129175953Y-120981400D01*
X129169400Y-120914860D01*
X129169400Y-117445540D01*
X129175953Y-117379000D01*
X129193571Y-117320925D01*
X129222182Y-117267397D01*
X129260683Y-117220483D01*
X129307597Y-117181982D01*
X129361125Y-117153371D01*
X129419200Y-117135753D01*
X129485740Y-117129200D01*
X132955060Y-117129200D01*
X133021600Y-117135753D01*
X133021600Y-117135753D01*
G37*
G36*
X126508700Y-117135353D02*
G01*
X126566775Y-117152971D01*
X126620303Y-117181582D01*
X126667217Y-117220083D01*
X126705718Y-117266997D01*
X126734329Y-117320525D01*
X126751947Y-117378600D01*
X126758500Y-117445140D01*
X126758500Y-120914460D01*
X126751947Y-120981000D01*
X126734329Y-121039075D01*
X126705718Y-121092603D01*
X126667217Y-121139517D01*
X126620303Y-121178018D01*
X126566775Y-121206629D01*
X126508700Y-121224247D01*
X126442160Y-121230800D01*
X118097840Y-121230800D01*
X118031300Y-121224247D01*
X117973225Y-121206629D01*
X117919697Y-121178018D01*
X117872783Y-121139517D01*
X117834282Y-121092603D01*
X117805671Y-121039075D01*
X117788053Y-120981000D01*
X117781500Y-120914460D01*
X117781500Y-117445140D01*
X117788053Y-117378600D01*
X117805671Y-117320525D01*
X117834282Y-117266997D01*
X117872783Y-117220083D01*
X117919697Y-117181582D01*
X117973225Y-117152971D01*
X118031300Y-117135353D01*
X118097840Y-117128800D01*
X126442160Y-117128800D01*
X126508700Y-117135353D01*
X126508700Y-117135353D01*
G37*
G36*
X183401600Y-110655753D02*
G01*
X183459675Y-110673371D01*
X183513203Y-110701982D01*
X183560117Y-110740483D01*
X183598618Y-110787397D01*
X183627229Y-110840925D01*
X183644847Y-110899000D01*
X183651400Y-110965540D01*
X183651400Y-114434860D01*
X183644847Y-114501400D01*
X183627229Y-114559475D01*
X183598618Y-114613003D01*
X183560117Y-114659917D01*
X183513203Y-114698418D01*
X183459675Y-114727029D01*
X183401600Y-114744647D01*
X183335060Y-114751200D01*
X179865740Y-114751200D01*
X179799200Y-114744647D01*
X179741125Y-114727029D01*
X179687597Y-114698418D01*
X179640683Y-114659917D01*
X179602182Y-114613003D01*
X179573571Y-114559475D01*
X179555953Y-114501400D01*
X179549400Y-114434860D01*
X179549400Y-110965540D01*
X179555953Y-110899000D01*
X179573571Y-110840925D01*
X179602182Y-110787397D01*
X179640683Y-110740483D01*
X179687597Y-110701982D01*
X179741125Y-110673371D01*
X179799200Y-110655753D01*
X179865740Y-110649200D01*
X183335060Y-110649200D01*
X183401600Y-110655753D01*
X183401600Y-110655753D01*
G37*
G36*
X189901600Y-110655753D02*
G01*
X189959675Y-110673371D01*
X190013203Y-110701982D01*
X190060117Y-110740483D01*
X190098618Y-110787397D01*
X190127229Y-110840925D01*
X190144847Y-110899000D01*
X190151400Y-110965540D01*
X190151400Y-114434860D01*
X190144847Y-114501400D01*
X190127229Y-114559475D01*
X190098618Y-114613003D01*
X190060117Y-114659917D01*
X190013203Y-114698418D01*
X189959675Y-114727029D01*
X189901600Y-114744647D01*
X189835060Y-114751200D01*
X186365740Y-114751200D01*
X186299200Y-114744647D01*
X186241125Y-114727029D01*
X186187597Y-114698418D01*
X186140683Y-114659917D01*
X186102182Y-114613003D01*
X186073571Y-114559475D01*
X186055953Y-114501400D01*
X186049400Y-114434860D01*
X186049400Y-110965540D01*
X186055953Y-110899000D01*
X186073571Y-110840925D01*
X186102182Y-110787397D01*
X186140683Y-110740483D01*
X186187597Y-110701982D01*
X186241125Y-110673371D01*
X186299200Y-110655753D01*
X186365740Y-110649200D01*
X189835060Y-110649200D01*
X189901600Y-110655753D01*
X189901600Y-110655753D01*
G37*
G36*
X196401600Y-110655753D02*
G01*
X196459675Y-110673371D01*
X196513203Y-110701982D01*
X196560117Y-110740483D01*
X196598618Y-110787397D01*
X196627229Y-110840925D01*
X196644847Y-110899000D01*
X196651400Y-110965540D01*
X196651400Y-114434860D01*
X196644847Y-114501400D01*
X196627229Y-114559475D01*
X196598618Y-114613003D01*
X196560117Y-114659917D01*
X196513203Y-114698418D01*
X196459675Y-114727029D01*
X196401600Y-114744647D01*
X196335060Y-114751200D01*
X192865740Y-114751200D01*
X192799200Y-114744647D01*
X192741125Y-114727029D01*
X192687597Y-114698418D01*
X192640683Y-114659917D01*
X192602182Y-114613003D01*
X192573571Y-114559475D01*
X192555953Y-114501400D01*
X192549400Y-114434860D01*
X192549400Y-110965540D01*
X192555953Y-110899000D01*
X192573571Y-110840925D01*
X192602182Y-110787397D01*
X192640683Y-110740483D01*
X192687597Y-110701982D01*
X192741125Y-110673371D01*
X192799200Y-110655753D01*
X192865740Y-110649200D01*
X196335060Y-110649200D01*
X196401600Y-110655753D01*
X196401600Y-110655753D01*
G37*
G36*
X206176200Y-110655153D02*
G01*
X206234275Y-110672771D01*
X206287803Y-110701382D01*
X206334717Y-110739883D01*
X206373218Y-110786797D01*
X206401829Y-110840325D01*
X206419447Y-110898400D01*
X206426000Y-110964940D01*
X206426000Y-114434260D01*
X206419447Y-114500800D01*
X206401829Y-114558875D01*
X206373218Y-114612403D01*
X206334717Y-114659317D01*
X206287803Y-114697818D01*
X206234275Y-114726429D01*
X206176200Y-114744047D01*
X206109660Y-114750600D01*
X199390340Y-114750600D01*
X199323800Y-114744047D01*
X199265725Y-114726429D01*
X199212197Y-114697818D01*
X199165283Y-114659317D01*
X199126782Y-114612403D01*
X199098171Y-114558875D01*
X199080553Y-114500800D01*
X199074000Y-114434260D01*
X199074000Y-110964940D01*
X199080553Y-110898400D01*
X199098171Y-110840325D01*
X199126782Y-110786797D01*
X199165283Y-110739883D01*
X199212197Y-110701382D01*
X199265725Y-110672771D01*
X199323800Y-110655153D01*
X199390340Y-110648600D01*
X206109660Y-110648600D01*
X206176200Y-110655153D01*
X206176200Y-110655153D01*
G37*
G36*
X150881600Y-110645753D02*
G01*
X150939675Y-110663371D01*
X150993203Y-110691982D01*
X151040117Y-110730483D01*
X151078618Y-110777397D01*
X151107229Y-110830925D01*
X151124847Y-110889000D01*
X151131400Y-110955540D01*
X151131400Y-114424860D01*
X151124847Y-114491400D01*
X151107229Y-114549475D01*
X151078618Y-114603003D01*
X151040117Y-114649917D01*
X150993203Y-114688418D01*
X150939675Y-114717029D01*
X150881600Y-114734647D01*
X150815060Y-114741200D01*
X147345740Y-114741200D01*
X147279200Y-114734647D01*
X147221125Y-114717029D01*
X147167597Y-114688418D01*
X147120683Y-114649917D01*
X147082182Y-114603003D01*
X147053571Y-114549475D01*
X147035953Y-114491400D01*
X147029400Y-114424860D01*
X147029400Y-110955540D01*
X147035953Y-110889000D01*
X147053571Y-110830925D01*
X147082182Y-110777397D01*
X147120683Y-110730483D01*
X147167597Y-110691982D01*
X147221125Y-110663371D01*
X147279200Y-110645753D01*
X147345740Y-110639200D01*
X150815060Y-110639200D01*
X150881600Y-110645753D01*
X150881600Y-110645753D01*
G37*
G36*
X144381600Y-110645753D02*
G01*
X144439675Y-110663371D01*
X144493203Y-110691982D01*
X144540117Y-110730483D01*
X144578618Y-110777397D01*
X144607229Y-110830925D01*
X144624847Y-110889000D01*
X144631400Y-110955540D01*
X144631400Y-114424860D01*
X144624847Y-114491400D01*
X144607229Y-114549475D01*
X144578618Y-114603003D01*
X144540117Y-114649917D01*
X144493203Y-114688418D01*
X144439675Y-114717029D01*
X144381600Y-114734647D01*
X144315060Y-114741200D01*
X140845740Y-114741200D01*
X140779200Y-114734647D01*
X140721125Y-114717029D01*
X140667597Y-114688418D01*
X140620683Y-114649917D01*
X140582182Y-114603003D01*
X140553571Y-114549475D01*
X140535953Y-114491400D01*
X140529400Y-114424860D01*
X140529400Y-110955540D01*
X140535953Y-110889000D01*
X140553571Y-110830925D01*
X140582182Y-110777397D01*
X140620683Y-110730483D01*
X140667597Y-110691982D01*
X140721125Y-110663371D01*
X140779200Y-110645753D01*
X140845740Y-110639200D01*
X144315060Y-110639200D01*
X144381600Y-110645753D01*
X144381600Y-110645753D01*
G37*
G36*
X163891600Y-110645753D02*
G01*
X163949675Y-110663371D01*
X164003203Y-110691982D01*
X164050117Y-110730483D01*
X164088618Y-110777397D01*
X164117229Y-110830925D01*
X164134847Y-110889000D01*
X164141400Y-110955540D01*
X164141400Y-114424860D01*
X164134847Y-114491400D01*
X164117229Y-114549475D01*
X164088618Y-114603003D01*
X164050117Y-114649917D01*
X164003203Y-114688418D01*
X163949675Y-114717029D01*
X163891600Y-114734647D01*
X163825060Y-114741200D01*
X160355740Y-114741200D01*
X160289200Y-114734647D01*
X160231125Y-114717029D01*
X160177597Y-114688418D01*
X160130683Y-114649917D01*
X160092182Y-114603003D01*
X160063571Y-114549475D01*
X160045953Y-114491400D01*
X160039400Y-114424860D01*
X160039400Y-110955540D01*
X160045953Y-110889000D01*
X160063571Y-110830925D01*
X160092182Y-110777397D01*
X160130683Y-110730483D01*
X160177597Y-110691982D01*
X160231125Y-110663371D01*
X160289200Y-110645753D01*
X160355740Y-110639200D01*
X163825060Y-110639200D01*
X163891600Y-110645753D01*
X163891600Y-110645753D01*
G37*
G36*
X170391600Y-110645753D02*
G01*
X170449675Y-110663371D01*
X170503203Y-110691982D01*
X170550117Y-110730483D01*
X170588618Y-110777397D01*
X170617229Y-110830925D01*
X170634847Y-110889000D01*
X170641400Y-110955540D01*
X170641400Y-114424860D01*
X170634847Y-114491400D01*
X170617229Y-114549475D01*
X170588618Y-114603003D01*
X170550117Y-114649917D01*
X170503203Y-114688418D01*
X170449675Y-114717029D01*
X170391600Y-114734647D01*
X170325060Y-114741200D01*
X166855740Y-114741200D01*
X166789200Y-114734647D01*
X166731125Y-114717029D01*
X166677597Y-114688418D01*
X166630683Y-114649917D01*
X166592182Y-114603003D01*
X166563571Y-114549475D01*
X166545953Y-114491400D01*
X166539400Y-114424860D01*
X166539400Y-110955540D01*
X166545953Y-110889000D01*
X166563571Y-110830925D01*
X166592182Y-110777397D01*
X166630683Y-110730483D01*
X166677597Y-110691982D01*
X166731125Y-110663371D01*
X166789200Y-110645753D01*
X166855740Y-110639200D01*
X170325060Y-110639200D01*
X170391600Y-110645753D01*
X170391600Y-110645753D01*
G37*
G36*
X176901600Y-110645753D02*
G01*
X176959675Y-110663371D01*
X177013203Y-110691982D01*
X177060117Y-110730483D01*
X177098618Y-110777397D01*
X177127229Y-110830925D01*
X177144847Y-110889000D01*
X177151400Y-110955540D01*
X177151400Y-114424860D01*
X177144847Y-114491400D01*
X177127229Y-114549475D01*
X177098618Y-114603003D01*
X177060117Y-114649917D01*
X177013203Y-114688418D01*
X176959675Y-114717029D01*
X176901600Y-114734647D01*
X176835060Y-114741200D01*
X173365740Y-114741200D01*
X173299200Y-114734647D01*
X173241125Y-114717029D01*
X173187597Y-114688418D01*
X173140683Y-114649917D01*
X173102182Y-114603003D01*
X173073571Y-114549475D01*
X173055953Y-114491400D01*
X173049400Y-114424860D01*
X173049400Y-110955540D01*
X173055953Y-110889000D01*
X173073571Y-110830925D01*
X173102182Y-110777397D01*
X173140683Y-110730483D01*
X173187597Y-110691982D01*
X173241125Y-110663371D01*
X173299200Y-110645753D01*
X173365740Y-110639200D01*
X176835060Y-110639200D01*
X176901600Y-110645753D01*
X176901600Y-110645753D01*
G37*
G36*
X157381600Y-110645753D02*
G01*
X157439675Y-110663371D01*
X157493203Y-110691982D01*
X157540117Y-110730483D01*
X157578618Y-110777397D01*
X157607229Y-110830925D01*
X157624847Y-110889000D01*
X157631400Y-110955540D01*
X157631400Y-114424860D01*
X157624847Y-114491400D01*
X157607229Y-114549475D01*
X157578618Y-114603003D01*
X157540117Y-114649917D01*
X157493203Y-114688418D01*
X157439675Y-114717029D01*
X157381600Y-114734647D01*
X157315060Y-114741200D01*
X153845740Y-114741200D01*
X153779200Y-114734647D01*
X153721125Y-114717029D01*
X153667597Y-114688418D01*
X153620683Y-114649917D01*
X153582182Y-114603003D01*
X153553571Y-114549475D01*
X153535953Y-114491400D01*
X153529400Y-114424860D01*
X153529400Y-110955540D01*
X153535953Y-110889000D01*
X153553571Y-110830925D01*
X153582182Y-110777397D01*
X153620683Y-110730483D01*
X153667597Y-110691982D01*
X153721125Y-110663371D01*
X153779200Y-110645753D01*
X153845740Y-110639200D01*
X157315060Y-110639200D01*
X157381600Y-110645753D01*
X157381600Y-110645753D01*
G37*
G36*
X137881600Y-110635753D02*
G01*
X137939675Y-110653371D01*
X137993203Y-110681982D01*
X138040117Y-110720483D01*
X138078618Y-110767397D01*
X138107229Y-110820925D01*
X138124847Y-110879000D01*
X138131400Y-110945540D01*
X138131400Y-114414860D01*
X138124847Y-114481400D01*
X138107229Y-114539475D01*
X138078618Y-114593003D01*
X138040117Y-114639917D01*
X137993203Y-114678418D01*
X137939675Y-114707029D01*
X137881600Y-114724647D01*
X137815060Y-114731200D01*
X134345740Y-114731200D01*
X134279200Y-114724647D01*
X134221125Y-114707029D01*
X134167597Y-114678418D01*
X134120683Y-114639917D01*
X134082182Y-114593003D01*
X134053571Y-114539475D01*
X134035953Y-114481400D01*
X134029400Y-114414860D01*
X134029400Y-110945540D01*
X134035953Y-110879000D01*
X134053571Y-110820925D01*
X134082182Y-110767397D01*
X134120683Y-110720483D01*
X134167597Y-110681982D01*
X134221125Y-110653371D01*
X134279200Y-110635753D01*
X134345740Y-110629200D01*
X137815060Y-110629200D01*
X137881600Y-110635753D01*
X137881600Y-110635753D01*
G37*
G36*
X131381600Y-110635753D02*
G01*
X131439675Y-110653371D01*
X131493203Y-110681982D01*
X131540117Y-110720483D01*
X131578618Y-110767397D01*
X131607229Y-110820925D01*
X131624847Y-110879000D01*
X131631400Y-110945540D01*
X131631400Y-114414860D01*
X131624847Y-114481400D01*
X131607229Y-114539475D01*
X131578618Y-114593003D01*
X131540117Y-114639917D01*
X131493203Y-114678418D01*
X131439675Y-114707029D01*
X131381600Y-114724647D01*
X131315060Y-114731200D01*
X127845740Y-114731200D01*
X127779200Y-114724647D01*
X127721125Y-114707029D01*
X127667597Y-114678418D01*
X127620683Y-114639917D01*
X127582182Y-114593003D01*
X127553571Y-114539475D01*
X127535953Y-114481400D01*
X127529400Y-114414860D01*
X127529400Y-110945540D01*
X127535953Y-110879000D01*
X127553571Y-110820925D01*
X127582182Y-110767397D01*
X127620683Y-110720483D01*
X127667597Y-110681982D01*
X127721125Y-110653371D01*
X127779200Y-110635753D01*
X127845740Y-110629200D01*
X131315060Y-110629200D01*
X131381600Y-110635753D01*
X131381600Y-110635753D01*
G37*
G36*
X124877200Y-110635153D02*
G01*
X124935275Y-110652771D01*
X124988803Y-110681382D01*
X125035717Y-110719883D01*
X125074218Y-110766797D01*
X125102829Y-110820325D01*
X125120447Y-110878400D01*
X125127000Y-110944940D01*
X125127000Y-114414260D01*
X125120447Y-114480800D01*
X125102829Y-114538875D01*
X125074218Y-114592403D01*
X125035717Y-114639317D01*
X124988803Y-114677818D01*
X124935275Y-114706429D01*
X124877200Y-114724047D01*
X124810660Y-114730600D01*
X118091340Y-114730600D01*
X118024800Y-114724047D01*
X117966725Y-114706429D01*
X117913197Y-114677818D01*
X117866283Y-114639317D01*
X117827782Y-114592403D01*
X117799171Y-114538875D01*
X117781553Y-114480800D01*
X117775000Y-114414260D01*
X117775000Y-110944940D01*
X117781553Y-110878400D01*
X117799171Y-110820325D01*
X117827782Y-110766797D01*
X117866283Y-110719883D01*
X117913197Y-110681382D01*
X117966725Y-110652771D01*
X118024800Y-110635153D01*
X118091340Y-110628600D01*
X124810660Y-110628600D01*
X124877200Y-110635153D01*
X124877200Y-110635153D01*
G37*
G36*
X160651600Y-104145753D02*
G01*
X160709675Y-104163371D01*
X160763203Y-104191982D01*
X160810117Y-104230483D01*
X160848618Y-104277397D01*
X160877229Y-104330925D01*
X160894847Y-104389000D01*
X160901400Y-104455540D01*
X160901400Y-107924860D01*
X160894847Y-107991400D01*
X160877229Y-108049475D01*
X160848618Y-108103003D01*
X160810117Y-108149917D01*
X160763203Y-108188418D01*
X160709675Y-108217029D01*
X160651600Y-108234647D01*
X160585060Y-108241200D01*
X157115740Y-108241200D01*
X157049200Y-108234647D01*
X156991125Y-108217029D01*
X156937597Y-108188418D01*
X156890683Y-108149917D01*
X156852182Y-108103003D01*
X156823571Y-108049475D01*
X156805953Y-107991400D01*
X156799400Y-107924860D01*
X156799400Y-104455540D01*
X156805953Y-104389000D01*
X156823571Y-104330925D01*
X156852182Y-104277397D01*
X156890683Y-104230483D01*
X156937597Y-104191982D01*
X156991125Y-104163371D01*
X157049200Y-104145753D01*
X157115740Y-104139200D01*
X160585060Y-104139200D01*
X160651600Y-104145753D01*
X160651600Y-104145753D01*
G37*
G36*
X167141600Y-104145753D02*
G01*
X167199675Y-104163371D01*
X167253203Y-104191982D01*
X167300117Y-104230483D01*
X167338618Y-104277397D01*
X167367229Y-104330925D01*
X167384847Y-104389000D01*
X167391400Y-104455540D01*
X167391400Y-107924860D01*
X167384847Y-107991400D01*
X167367229Y-108049475D01*
X167338618Y-108103003D01*
X167300117Y-108149917D01*
X167253203Y-108188418D01*
X167199675Y-108217029D01*
X167141600Y-108234647D01*
X167075060Y-108241200D01*
X163605740Y-108241200D01*
X163539200Y-108234647D01*
X163481125Y-108217029D01*
X163427597Y-108188418D01*
X163380683Y-108149917D01*
X163342182Y-108103003D01*
X163313571Y-108049475D01*
X163295953Y-107991400D01*
X163289400Y-107924860D01*
X163289400Y-104455540D01*
X163295953Y-104389000D01*
X163313571Y-104330925D01*
X163342182Y-104277397D01*
X163380683Y-104230483D01*
X163427597Y-104191982D01*
X163481125Y-104163371D01*
X163539200Y-104145753D01*
X163605740Y-104139200D01*
X167075060Y-104139200D01*
X167141600Y-104145753D01*
X167141600Y-104145753D01*
G37*
G36*
X147651600Y-104145753D02*
G01*
X147709675Y-104163371D01*
X147763203Y-104191982D01*
X147810117Y-104230483D01*
X147848618Y-104277397D01*
X147877229Y-104330925D01*
X147894847Y-104389000D01*
X147901400Y-104455540D01*
X147901400Y-107924860D01*
X147894847Y-107991400D01*
X147877229Y-108049475D01*
X147848618Y-108103003D01*
X147810117Y-108149917D01*
X147763203Y-108188418D01*
X147709675Y-108217029D01*
X147651600Y-108234647D01*
X147585060Y-108241200D01*
X144115740Y-108241200D01*
X144049200Y-108234647D01*
X143991125Y-108217029D01*
X143937597Y-108188418D01*
X143890683Y-108149917D01*
X143852182Y-108103003D01*
X143823571Y-108049475D01*
X143805953Y-107991400D01*
X143799400Y-107924860D01*
X143799400Y-104455540D01*
X143805953Y-104389000D01*
X143823571Y-104330925D01*
X143852182Y-104277397D01*
X143890683Y-104230483D01*
X143937597Y-104191982D01*
X143991125Y-104163371D01*
X144049200Y-104145753D01*
X144115740Y-104139200D01*
X147585060Y-104139200D01*
X147651600Y-104145753D01*
X147651600Y-104145753D01*
G37*
G36*
X206171600Y-104145753D02*
G01*
X206229675Y-104163371D01*
X206283203Y-104191982D01*
X206330117Y-104230483D01*
X206368618Y-104277397D01*
X206397229Y-104330925D01*
X206414847Y-104389000D01*
X206421400Y-104455540D01*
X206421400Y-107924860D01*
X206414847Y-107991400D01*
X206397229Y-108049475D01*
X206368618Y-108103003D01*
X206330117Y-108149917D01*
X206283203Y-108188418D01*
X206229675Y-108217029D01*
X206171600Y-108234647D01*
X206105060Y-108241200D01*
X202635740Y-108241200D01*
X202569200Y-108234647D01*
X202511125Y-108217029D01*
X202457597Y-108188418D01*
X202410683Y-108149917D01*
X202372182Y-108103003D01*
X202343571Y-108049475D01*
X202325953Y-107991400D01*
X202319400Y-107924860D01*
X202319400Y-104455540D01*
X202325953Y-104389000D01*
X202343571Y-104330925D01*
X202372182Y-104277397D01*
X202410683Y-104230483D01*
X202457597Y-104191982D01*
X202511125Y-104163371D01*
X202569200Y-104145753D01*
X202635740Y-104139200D01*
X206105060Y-104139200D01*
X206171600Y-104145753D01*
X206171600Y-104145753D01*
G37*
G36*
X199661600Y-104145753D02*
G01*
X199719675Y-104163371D01*
X199773203Y-104191982D01*
X199820117Y-104230483D01*
X199858618Y-104277397D01*
X199887229Y-104330925D01*
X199904847Y-104389000D01*
X199911400Y-104455540D01*
X199911400Y-107924860D01*
X199904847Y-107991400D01*
X199887229Y-108049475D01*
X199858618Y-108103003D01*
X199820117Y-108149917D01*
X199773203Y-108188418D01*
X199719675Y-108217029D01*
X199661600Y-108234647D01*
X199595060Y-108241200D01*
X196125740Y-108241200D01*
X196059200Y-108234647D01*
X196001125Y-108217029D01*
X195947597Y-108188418D01*
X195900683Y-108149917D01*
X195862182Y-108103003D01*
X195833571Y-108049475D01*
X195815953Y-107991400D01*
X195809400Y-107924860D01*
X195809400Y-104455540D01*
X195815953Y-104389000D01*
X195833571Y-104330925D01*
X195862182Y-104277397D01*
X195900683Y-104230483D01*
X195947597Y-104191982D01*
X196001125Y-104163371D01*
X196059200Y-104145753D01*
X196125740Y-104139200D01*
X199595060Y-104139200D01*
X199661600Y-104145753D01*
X199661600Y-104145753D01*
G37*
G36*
X154151600Y-104145753D02*
G01*
X154209675Y-104163371D01*
X154263203Y-104191982D01*
X154310117Y-104230483D01*
X154348618Y-104277397D01*
X154377229Y-104330925D01*
X154394847Y-104389000D01*
X154401400Y-104455540D01*
X154401400Y-107924860D01*
X154394847Y-107991400D01*
X154377229Y-108049475D01*
X154348618Y-108103003D01*
X154310117Y-108149917D01*
X154263203Y-108188418D01*
X154209675Y-108217029D01*
X154151600Y-108234647D01*
X154085060Y-108241200D01*
X150615740Y-108241200D01*
X150549200Y-108234647D01*
X150491125Y-108217029D01*
X150437597Y-108188418D01*
X150390683Y-108149917D01*
X150352182Y-108103003D01*
X150323571Y-108049475D01*
X150305953Y-107991400D01*
X150299400Y-107924860D01*
X150299400Y-104455540D01*
X150305953Y-104389000D01*
X150323571Y-104330925D01*
X150352182Y-104277397D01*
X150390683Y-104230483D01*
X150437597Y-104191982D01*
X150491125Y-104163371D01*
X150549200Y-104145753D01*
X150615740Y-104139200D01*
X154085060Y-104139200D01*
X154151600Y-104145753D01*
X154151600Y-104145753D01*
G37*
G36*
X193161600Y-104145753D02*
G01*
X193219675Y-104163371D01*
X193273203Y-104191982D01*
X193320117Y-104230483D01*
X193358618Y-104277397D01*
X193387229Y-104330925D01*
X193404847Y-104389000D01*
X193411400Y-104455540D01*
X193411400Y-107924860D01*
X193404847Y-107991400D01*
X193387229Y-108049475D01*
X193358618Y-108103003D01*
X193320117Y-108149917D01*
X193273203Y-108188418D01*
X193219675Y-108217029D01*
X193161600Y-108234647D01*
X193095060Y-108241200D01*
X189625740Y-108241200D01*
X189559200Y-108234647D01*
X189501125Y-108217029D01*
X189447597Y-108188418D01*
X189400683Y-108149917D01*
X189362182Y-108103003D01*
X189333571Y-108049475D01*
X189315953Y-107991400D01*
X189309400Y-107924860D01*
X189309400Y-104455540D01*
X189315953Y-104389000D01*
X189333571Y-104330925D01*
X189362182Y-104277397D01*
X189400683Y-104230483D01*
X189447597Y-104191982D01*
X189501125Y-104163371D01*
X189559200Y-104145753D01*
X189625740Y-104139200D01*
X193095060Y-104139200D01*
X193161600Y-104145753D01*
X193161600Y-104145753D01*
G37*
G36*
X186651600Y-104145753D02*
G01*
X186709675Y-104163371D01*
X186763203Y-104191982D01*
X186810117Y-104230483D01*
X186848618Y-104277397D01*
X186877229Y-104330925D01*
X186894847Y-104389000D01*
X186901400Y-104455540D01*
X186901400Y-107924860D01*
X186894847Y-107991400D01*
X186877229Y-108049475D01*
X186848618Y-108103003D01*
X186810117Y-108149917D01*
X186763203Y-108188418D01*
X186709675Y-108217029D01*
X186651600Y-108234647D01*
X186585060Y-108241200D01*
X183115740Y-108241200D01*
X183049200Y-108234647D01*
X182991125Y-108217029D01*
X182937597Y-108188418D01*
X182890683Y-108149917D01*
X182852182Y-108103003D01*
X182823571Y-108049475D01*
X182805953Y-107991400D01*
X182799400Y-107924860D01*
X182799400Y-104455540D01*
X182805953Y-104389000D01*
X182823571Y-104330925D01*
X182852182Y-104277397D01*
X182890683Y-104230483D01*
X182937597Y-104191982D01*
X182991125Y-104163371D01*
X183049200Y-104145753D01*
X183115740Y-104139200D01*
X186585060Y-104139200D01*
X186651600Y-104145753D01*
X186651600Y-104145753D01*
G37*
G36*
X180141600Y-104145753D02*
G01*
X180199675Y-104163371D01*
X180253203Y-104191982D01*
X180300117Y-104230483D01*
X180338618Y-104277397D01*
X180367229Y-104330925D01*
X180384847Y-104389000D01*
X180391400Y-104455540D01*
X180391400Y-107924860D01*
X180384847Y-107991400D01*
X180367229Y-108049475D01*
X180338618Y-108103003D01*
X180300117Y-108149917D01*
X180253203Y-108188418D01*
X180199675Y-108217029D01*
X180141600Y-108234647D01*
X180075060Y-108241200D01*
X176605740Y-108241200D01*
X176539200Y-108234647D01*
X176481125Y-108217029D01*
X176427597Y-108188418D01*
X176380683Y-108149917D01*
X176342182Y-108103003D01*
X176313571Y-108049475D01*
X176295953Y-107991400D01*
X176289400Y-107924860D01*
X176289400Y-104455540D01*
X176295953Y-104389000D01*
X176313571Y-104330925D01*
X176342182Y-104277397D01*
X176380683Y-104230483D01*
X176427597Y-104191982D01*
X176481125Y-104163371D01*
X176539200Y-104145753D01*
X176605740Y-104139200D01*
X180075060Y-104139200D01*
X180141600Y-104145753D01*
X180141600Y-104145753D01*
G37*
G36*
X173641600Y-104145753D02*
G01*
X173699675Y-104163371D01*
X173753203Y-104191982D01*
X173800117Y-104230483D01*
X173838618Y-104277397D01*
X173867229Y-104330925D01*
X173884847Y-104389000D01*
X173891400Y-104455540D01*
X173891400Y-107924860D01*
X173884847Y-107991400D01*
X173867229Y-108049475D01*
X173838618Y-108103003D01*
X173800117Y-108149917D01*
X173753203Y-108188418D01*
X173699675Y-108217029D01*
X173641600Y-108234647D01*
X173575060Y-108241200D01*
X170105740Y-108241200D01*
X170039200Y-108234647D01*
X169981125Y-108217029D01*
X169927597Y-108188418D01*
X169880683Y-108149917D01*
X169842182Y-108103003D01*
X169813571Y-108049475D01*
X169795953Y-107991400D01*
X169789400Y-107924860D01*
X169789400Y-104455540D01*
X169795953Y-104389000D01*
X169813571Y-104330925D01*
X169842182Y-104277397D01*
X169880683Y-104230483D01*
X169927597Y-104191982D01*
X169981125Y-104163371D01*
X170039200Y-104145753D01*
X170105740Y-104139200D01*
X173575060Y-104139200D01*
X173641600Y-104145753D01*
X173641600Y-104145753D01*
G37*
G36*
X141151600Y-104135753D02*
G01*
X141209675Y-104153371D01*
X141263203Y-104181982D01*
X141310117Y-104220483D01*
X141348618Y-104267397D01*
X141377229Y-104320925D01*
X141394847Y-104379000D01*
X141401400Y-104445540D01*
X141401400Y-107914860D01*
X141394847Y-107981400D01*
X141377229Y-108039475D01*
X141348618Y-108093003D01*
X141310117Y-108139917D01*
X141263203Y-108178418D01*
X141209675Y-108207029D01*
X141151600Y-108224647D01*
X141085060Y-108231200D01*
X137615740Y-108231200D01*
X137549200Y-108224647D01*
X137491125Y-108207029D01*
X137437597Y-108178418D01*
X137390683Y-108139917D01*
X137352182Y-108093003D01*
X137323571Y-108039475D01*
X137305953Y-107981400D01*
X137299400Y-107914860D01*
X137299400Y-104445540D01*
X137305953Y-104379000D01*
X137323571Y-104320925D01*
X137352182Y-104267397D01*
X137390683Y-104220483D01*
X137437597Y-104181982D01*
X137491125Y-104153371D01*
X137549200Y-104135753D01*
X137615740Y-104129200D01*
X141085060Y-104129200D01*
X141151600Y-104135753D01*
X141151600Y-104135753D01*
G37*
G36*
X134641600Y-104135753D02*
G01*
X134699675Y-104153371D01*
X134753203Y-104181982D01*
X134800117Y-104220483D01*
X134838618Y-104267397D01*
X134867229Y-104320925D01*
X134884847Y-104379000D01*
X134891400Y-104445540D01*
X134891400Y-107914860D01*
X134884847Y-107981400D01*
X134867229Y-108039475D01*
X134838618Y-108093003D01*
X134800117Y-108139917D01*
X134753203Y-108178418D01*
X134699675Y-108207029D01*
X134641600Y-108224647D01*
X134575060Y-108231200D01*
X131105740Y-108231200D01*
X131039200Y-108224647D01*
X130981125Y-108207029D01*
X130927597Y-108178418D01*
X130880683Y-108139917D01*
X130842182Y-108093003D01*
X130813571Y-108039475D01*
X130795953Y-107981400D01*
X130789400Y-107914860D01*
X130789400Y-104445540D01*
X130795953Y-104379000D01*
X130813571Y-104320925D01*
X130842182Y-104267397D01*
X130880683Y-104220483D01*
X130927597Y-104181982D01*
X130981125Y-104153371D01*
X131039200Y-104135753D01*
X131105740Y-104129200D01*
X134575060Y-104129200D01*
X134641600Y-104135753D01*
X134641600Y-104135753D01*
G37*
G36*
X121631600Y-104135753D02*
G01*
X121689675Y-104153371D01*
X121743203Y-104181982D01*
X121790117Y-104220483D01*
X121828618Y-104267397D01*
X121857229Y-104320925D01*
X121874847Y-104379000D01*
X121881400Y-104445540D01*
X121881400Y-107914860D01*
X121874847Y-107981400D01*
X121857229Y-108039475D01*
X121828618Y-108093003D01*
X121790117Y-108139917D01*
X121743203Y-108178418D01*
X121689675Y-108207029D01*
X121631600Y-108224647D01*
X121565060Y-108231200D01*
X118095740Y-108231200D01*
X118029200Y-108224647D01*
X117971125Y-108207029D01*
X117917597Y-108178418D01*
X117870683Y-108139917D01*
X117832182Y-108093003D01*
X117803571Y-108039475D01*
X117785953Y-107981400D01*
X117779400Y-107914860D01*
X117779400Y-104445540D01*
X117785953Y-104379000D01*
X117803571Y-104320925D01*
X117832182Y-104267397D01*
X117870683Y-104220483D01*
X117917597Y-104181982D01*
X117971125Y-104153371D01*
X118029200Y-104135753D01*
X118095740Y-104129200D01*
X121565060Y-104129200D01*
X121631600Y-104135753D01*
X121631600Y-104135753D01*
G37*
G36*
X128131600Y-104133753D02*
G01*
X128189675Y-104151371D01*
X128243203Y-104179982D01*
X128290117Y-104218483D01*
X128328618Y-104265397D01*
X128357229Y-104318925D01*
X128374847Y-104377000D01*
X128381400Y-104443540D01*
X128381400Y-107912860D01*
X128374847Y-107979400D01*
X128357229Y-108037475D01*
X128328618Y-108091003D01*
X128290117Y-108137917D01*
X128243203Y-108176418D01*
X128189675Y-108205029D01*
X128131600Y-108222647D01*
X128065060Y-108229200D01*
X124595740Y-108229200D01*
X124529200Y-108222647D01*
X124471125Y-108205029D01*
X124417597Y-108176418D01*
X124370683Y-108137917D01*
X124332182Y-108091003D01*
X124303571Y-108037475D01*
X124285953Y-107979400D01*
X124279400Y-107912860D01*
X124279400Y-104443540D01*
X124285953Y-104377000D01*
X124303571Y-104318925D01*
X124332182Y-104265397D01*
X124370683Y-104218483D01*
X124417597Y-104179982D01*
X124471125Y-104151371D01*
X124529200Y-104133753D01*
X124595740Y-104127200D01*
X128065060Y-104127200D01*
X128131600Y-104133753D01*
X128131600Y-104133753D01*
G37*
G36*
X176913900Y-95345553D02*
G01*
X176971975Y-95363171D01*
X177025503Y-95391782D01*
X177072417Y-95430283D01*
X177110918Y-95477197D01*
X177139529Y-95530725D01*
X177157147Y-95588800D01*
X177163700Y-95655340D01*
X177163700Y-99124660D01*
X177157147Y-99191200D01*
X177139529Y-99249275D01*
X177110918Y-99302803D01*
X177072417Y-99349717D01*
X177025503Y-99388218D01*
X176971975Y-99416829D01*
X176913900Y-99434447D01*
X176847360Y-99441000D01*
X165253040Y-99441000D01*
X165186500Y-99434447D01*
X165128425Y-99416829D01*
X165074897Y-99388218D01*
X165027983Y-99349717D01*
X164989482Y-99302803D01*
X164960871Y-99249275D01*
X164943253Y-99191200D01*
X164936700Y-99124660D01*
X164936700Y-95655340D01*
X164943253Y-95588800D01*
X164960871Y-95530725D01*
X164989482Y-95477197D01*
X165027983Y-95430283D01*
X165074897Y-95391782D01*
X165128425Y-95363171D01*
X165186500Y-95345553D01*
X165253040Y-95339000D01*
X176847360Y-95339000D01*
X176913900Y-95345553D01*
X176913900Y-95345553D01*
G37*
G36*
X191543900Y-95345553D02*
G01*
X191601975Y-95363171D01*
X191655503Y-95391782D01*
X191702417Y-95430283D01*
X191740918Y-95477197D01*
X191769529Y-95530725D01*
X191787147Y-95588800D01*
X191793700Y-95655340D01*
X191793700Y-99124660D01*
X191787147Y-99191200D01*
X191769529Y-99249275D01*
X191740918Y-99302803D01*
X191702417Y-99349717D01*
X191655503Y-99388218D01*
X191601975Y-99416829D01*
X191543900Y-99434447D01*
X191477360Y-99441000D01*
X179883040Y-99441000D01*
X179816500Y-99434447D01*
X179758425Y-99416829D01*
X179704897Y-99388218D01*
X179657983Y-99349717D01*
X179619482Y-99302803D01*
X179590871Y-99249275D01*
X179573253Y-99191200D01*
X179566700Y-99124660D01*
X179566700Y-95655340D01*
X179573253Y-95588800D01*
X179590871Y-95530725D01*
X179619482Y-95477197D01*
X179657983Y-95430283D01*
X179704897Y-95391782D01*
X179758425Y-95363171D01*
X179816500Y-95345553D01*
X179883040Y-95339000D01*
X191477360Y-95339000D01*
X191543900Y-95345553D01*
X191543900Y-95345553D01*
G37*
G36*
X206173900Y-95345553D02*
G01*
X206231975Y-95363171D01*
X206285503Y-95391782D01*
X206332417Y-95430283D01*
X206370918Y-95477197D01*
X206399529Y-95530725D01*
X206417147Y-95588800D01*
X206423700Y-95655340D01*
X206423700Y-99124660D01*
X206417147Y-99191200D01*
X206399529Y-99249275D01*
X206370918Y-99302803D01*
X206332417Y-99349717D01*
X206285503Y-99388218D01*
X206231975Y-99416829D01*
X206173900Y-99434447D01*
X206107360Y-99441000D01*
X194513040Y-99441000D01*
X194446500Y-99434447D01*
X194388425Y-99416829D01*
X194334897Y-99388218D01*
X194287983Y-99349717D01*
X194249482Y-99302803D01*
X194220871Y-99249275D01*
X194203253Y-99191200D01*
X194196700Y-99124660D01*
X194196700Y-95655340D01*
X194203253Y-95588800D01*
X194220871Y-95530725D01*
X194249482Y-95477197D01*
X194287983Y-95430283D01*
X194334897Y-95391782D01*
X194388425Y-95363171D01*
X194446500Y-95345553D01*
X194513040Y-95339000D01*
X206107360Y-95339000D01*
X206173900Y-95345553D01*
X206173900Y-95345553D01*
G37*
G36*
X162270900Y-95345553D02*
G01*
X162328975Y-95363171D01*
X162382503Y-95391782D01*
X162429417Y-95430283D01*
X162467918Y-95477197D01*
X162496529Y-95530725D01*
X162514147Y-95588800D01*
X162520700Y-95655340D01*
X162520700Y-99124660D01*
X162514147Y-99191200D01*
X162496529Y-99249275D01*
X162467918Y-99302803D01*
X162429417Y-99349717D01*
X162382503Y-99388218D01*
X162328975Y-99416829D01*
X162270900Y-99434447D01*
X162204360Y-99441000D01*
X150610040Y-99441000D01*
X150543500Y-99434447D01*
X150485425Y-99416829D01*
X150431897Y-99388218D01*
X150384983Y-99349717D01*
X150346482Y-99302803D01*
X150317871Y-99249275D01*
X150300253Y-99191200D01*
X150293700Y-99124660D01*
X150293700Y-95655340D01*
X150300253Y-95588800D01*
X150317871Y-95530725D01*
X150346482Y-95477197D01*
X150384983Y-95430283D01*
X150431897Y-95391782D01*
X150485425Y-95363171D01*
X150543500Y-95345553D01*
X150610040Y-95339000D01*
X162204360Y-95339000D01*
X162270900Y-95345553D01*
X162270900Y-95345553D01*
G37*
G36*
X128131400Y-95335553D02*
G01*
X128189475Y-95353171D01*
X128243003Y-95381782D01*
X128289917Y-95420283D01*
X128328418Y-95467197D01*
X128357029Y-95520725D01*
X128374647Y-95578800D01*
X128381200Y-95645340D01*
X128381200Y-99114660D01*
X128374647Y-99181200D01*
X128357029Y-99239275D01*
X128328418Y-99292803D01*
X128289917Y-99339717D01*
X128243003Y-99378218D01*
X128189475Y-99406829D01*
X128131400Y-99424447D01*
X128064860Y-99431000D01*
X118095540Y-99431000D01*
X118029000Y-99424447D01*
X117970925Y-99406829D01*
X117917397Y-99378218D01*
X117870483Y-99339717D01*
X117831982Y-99292803D01*
X117803371Y-99239275D01*
X117785753Y-99181200D01*
X117779200Y-99114660D01*
X117779200Y-95645340D01*
X117785753Y-95578800D01*
X117803371Y-95520725D01*
X117831982Y-95467197D01*
X117870483Y-95420283D01*
X117917397Y-95381782D01*
X117970925Y-95353171D01*
X118029000Y-95335553D01*
X118095540Y-95329000D01*
X128064860Y-95329000D01*
X128131400Y-95335553D01*
X128131400Y-95335553D01*
G37*
G36*
X137886200Y-95335553D02*
G01*
X137944275Y-95353171D01*
X137997803Y-95381782D01*
X138044717Y-95420283D01*
X138083218Y-95467197D01*
X138111829Y-95520725D01*
X138129447Y-95578800D01*
X138136000Y-95645340D01*
X138136000Y-99114660D01*
X138129447Y-99181200D01*
X138111829Y-99239275D01*
X138083218Y-99292803D01*
X138044717Y-99339717D01*
X137997803Y-99378218D01*
X137944275Y-99406829D01*
X137886200Y-99424447D01*
X137819660Y-99431000D01*
X131100340Y-99431000D01*
X131033800Y-99424447D01*
X130975725Y-99406829D01*
X130922197Y-99378218D01*
X130875283Y-99339717D01*
X130836782Y-99292803D01*
X130808171Y-99239275D01*
X130790553Y-99181200D01*
X130784000Y-99114660D01*
X130784000Y-95645340D01*
X130790553Y-95578800D01*
X130808171Y-95520725D01*
X130836782Y-95467197D01*
X130875283Y-95420283D01*
X130922197Y-95381782D01*
X130975725Y-95353171D01*
X131033800Y-95335553D01*
X131100340Y-95329000D01*
X137819660Y-95329000D01*
X137886200Y-95335553D01*
X137886200Y-95335553D01*
G37*
G36*
X147646200Y-95325553D02*
G01*
X147704275Y-95343171D01*
X147757803Y-95371782D01*
X147804717Y-95410283D01*
X147843218Y-95457197D01*
X147871829Y-95510725D01*
X147889447Y-95568800D01*
X147896000Y-95635340D01*
X147896000Y-99104660D01*
X147889447Y-99171200D01*
X147871829Y-99229275D01*
X147843218Y-99282803D01*
X147804717Y-99329717D01*
X147757803Y-99368218D01*
X147704275Y-99396829D01*
X147646200Y-99414447D01*
X147579660Y-99421000D01*
X140860340Y-99421000D01*
X140793800Y-99414447D01*
X140735725Y-99396829D01*
X140682197Y-99368218D01*
X140635283Y-99329717D01*
X140596782Y-99282803D01*
X140568171Y-99229275D01*
X140550553Y-99171200D01*
X140544000Y-99104660D01*
X140544000Y-95635340D01*
X140550553Y-95568800D01*
X140568171Y-95510725D01*
X140596782Y-95457197D01*
X140635283Y-95410283D01*
X140682197Y-95371782D01*
X140735725Y-95343171D01*
X140793800Y-95325553D01*
X140860340Y-95319000D01*
X147579660Y-95319000D01*
X147646200Y-95325553D01*
X147646200Y-95325553D01*
G37*
G36*
X183428700Y-86545553D02*
G01*
X183486775Y-86563171D01*
X183540303Y-86591782D01*
X183587217Y-86630283D01*
X183625718Y-86677197D01*
X183654329Y-86730725D01*
X183671947Y-86788800D01*
X183678500Y-86855340D01*
X183678500Y-90324660D01*
X183671947Y-90391200D01*
X183654329Y-90449275D01*
X183625718Y-90502803D01*
X183587217Y-90549717D01*
X183540303Y-90588218D01*
X183486775Y-90616829D01*
X183428700Y-90634447D01*
X183362160Y-90641000D01*
X175017840Y-90641000D01*
X174951300Y-90634447D01*
X174893225Y-90616829D01*
X174839697Y-90588218D01*
X174792783Y-90549717D01*
X174754282Y-90502803D01*
X174725671Y-90449275D01*
X174708053Y-90391200D01*
X174701500Y-90324660D01*
X174701500Y-86855340D01*
X174708053Y-86788800D01*
X174725671Y-86730725D01*
X174754282Y-86677197D01*
X174792783Y-86630283D01*
X174839697Y-86591782D01*
X174893225Y-86563171D01*
X174951300Y-86545553D01*
X175017840Y-86539000D01*
X183362160Y-86539000D01*
X183428700Y-86545553D01*
X183428700Y-86545553D01*
G37*
G36*
X206168700Y-86545553D02*
G01*
X206226775Y-86563171D01*
X206280303Y-86591782D01*
X206327217Y-86630283D01*
X206365718Y-86677197D01*
X206394329Y-86730725D01*
X206411947Y-86788800D01*
X206418500Y-86855340D01*
X206418500Y-90324660D01*
X206411947Y-90391200D01*
X206394329Y-90449275D01*
X206365718Y-90502803D01*
X206327217Y-90549717D01*
X206280303Y-90588218D01*
X206226775Y-90616829D01*
X206168700Y-90634447D01*
X206102160Y-90641000D01*
X197757840Y-90641000D01*
X197691300Y-90634447D01*
X197633225Y-90616829D01*
X197579697Y-90588218D01*
X197532783Y-90549717D01*
X197494282Y-90502803D01*
X197465671Y-90449275D01*
X197448053Y-90391200D01*
X197441500Y-90324660D01*
X197441500Y-86855340D01*
X197448053Y-86788800D01*
X197465671Y-86730725D01*
X197494282Y-86677197D01*
X197532783Y-86630283D01*
X197579697Y-86591782D01*
X197633225Y-86563171D01*
X197691300Y-86545553D01*
X197757840Y-86539000D01*
X206102160Y-86539000D01*
X206168700Y-86545553D01*
X206168700Y-86545553D01*
G37*
G36*
X194808700Y-86545553D02*
G01*
X194866775Y-86563171D01*
X194920303Y-86591782D01*
X194967217Y-86630283D01*
X195005718Y-86677197D01*
X195034329Y-86730725D01*
X195051947Y-86788800D01*
X195058500Y-86855340D01*
X195058500Y-90324660D01*
X195051947Y-90391200D01*
X195034329Y-90449275D01*
X195005718Y-90502803D01*
X194967217Y-90549717D01*
X194920303Y-90588218D01*
X194866775Y-90616829D01*
X194808700Y-90634447D01*
X194742160Y-90641000D01*
X186397840Y-90641000D01*
X186331300Y-90634447D01*
X186273225Y-90616829D01*
X186219697Y-90588218D01*
X186172783Y-90549717D01*
X186134282Y-90502803D01*
X186105671Y-90449275D01*
X186088053Y-90391200D01*
X186081500Y-90324660D01*
X186081500Y-86855340D01*
X186088053Y-86788800D01*
X186105671Y-86730725D01*
X186134282Y-86677197D01*
X186172783Y-86630283D01*
X186219697Y-86591782D01*
X186273225Y-86563171D01*
X186331300Y-86545553D01*
X186397840Y-86539000D01*
X194742160Y-86539000D01*
X194808700Y-86545553D01*
X194808700Y-86545553D01*
G37*
G36*
X172043700Y-86544353D02*
G01*
X172101775Y-86561971D01*
X172155303Y-86590582D01*
X172202217Y-86629083D01*
X172240718Y-86675997D01*
X172269329Y-86729525D01*
X172286947Y-86787600D01*
X172293500Y-86854140D01*
X172293500Y-90323460D01*
X172286947Y-90390000D01*
X172269329Y-90448075D01*
X172240718Y-90501603D01*
X172202217Y-90548517D01*
X172155303Y-90587018D01*
X172101775Y-90615629D01*
X172043700Y-90633247D01*
X171977160Y-90639800D01*
X163632840Y-90639800D01*
X163566300Y-90633247D01*
X163508225Y-90615629D01*
X163454697Y-90587018D01*
X163407783Y-90548517D01*
X163369282Y-90501603D01*
X163340671Y-90448075D01*
X163323053Y-90390000D01*
X163316500Y-90323460D01*
X163316500Y-86854140D01*
X163323053Y-86787600D01*
X163340671Y-86729525D01*
X163369282Y-86675997D01*
X163407783Y-86629083D01*
X163454697Y-86590582D01*
X163508225Y-86561971D01*
X163566300Y-86544353D01*
X163632840Y-86537800D01*
X171977160Y-86537800D01*
X172043700Y-86544353D01*
X172043700Y-86544353D01*
G37*
G36*
X141151400Y-86535553D02*
G01*
X141209475Y-86553171D01*
X141263003Y-86581782D01*
X141309917Y-86620283D01*
X141348418Y-86667197D01*
X141377029Y-86720725D01*
X141394647Y-86778800D01*
X141401200Y-86845340D01*
X141401200Y-90314660D01*
X141394647Y-90381200D01*
X141377029Y-90439275D01*
X141348418Y-90492803D01*
X141309917Y-90539717D01*
X141263003Y-90578218D01*
X141209475Y-90606829D01*
X141151400Y-90624447D01*
X141084860Y-90631000D01*
X131115540Y-90631000D01*
X131049000Y-90624447D01*
X130990925Y-90606829D01*
X130937397Y-90578218D01*
X130890483Y-90539717D01*
X130851982Y-90492803D01*
X130823371Y-90439275D01*
X130805753Y-90381200D01*
X130799200Y-90314660D01*
X130799200Y-86845340D01*
X130805753Y-86778800D01*
X130823371Y-86720725D01*
X130851982Y-86667197D01*
X130890483Y-86620283D01*
X130937397Y-86581782D01*
X130990925Y-86553171D01*
X131049000Y-86535553D01*
X131115540Y-86529000D01*
X141084860Y-86529000D01*
X141151400Y-86535553D01*
X141151400Y-86535553D01*
G37*
G36*
X128131400Y-86535553D02*
G01*
X128189475Y-86553171D01*
X128243003Y-86581782D01*
X128289917Y-86620283D01*
X128328418Y-86667197D01*
X128357029Y-86720725D01*
X128374647Y-86778800D01*
X128381200Y-86845340D01*
X128381200Y-90314660D01*
X128374647Y-90381200D01*
X128357029Y-90439275D01*
X128328418Y-90492803D01*
X128289917Y-90539717D01*
X128243003Y-90578218D01*
X128189475Y-90606829D01*
X128131400Y-90624447D01*
X128064860Y-90631000D01*
X118095540Y-90631000D01*
X118029000Y-90624447D01*
X117970925Y-90606829D01*
X117917397Y-90578218D01*
X117870483Y-90539717D01*
X117831982Y-90492803D01*
X117803371Y-90439275D01*
X117785753Y-90381200D01*
X117779200Y-90314660D01*
X117779200Y-86845340D01*
X117785753Y-86778800D01*
X117803371Y-86720725D01*
X117831982Y-86667197D01*
X117870483Y-86620283D01*
X117917397Y-86581782D01*
X117970925Y-86553171D01*
X118029000Y-86535553D01*
X118095540Y-86529000D01*
X128064860Y-86529000D01*
X128131400Y-86535553D01*
X128131400Y-86535553D01*
G37*
G36*
X160651000Y-86535553D02*
G01*
X160709075Y-86553171D01*
X160762603Y-86581782D01*
X160809517Y-86620283D01*
X160848018Y-86667197D01*
X160876629Y-86720725D01*
X160894247Y-86778800D01*
X160900800Y-86845340D01*
X160900800Y-90314660D01*
X160894247Y-90381200D01*
X160876629Y-90439275D01*
X160848018Y-90492803D01*
X160809517Y-90539717D01*
X160762603Y-90578218D01*
X160709075Y-90606829D01*
X160651000Y-90624447D01*
X160584460Y-90631000D01*
X144115140Y-90631000D01*
X144048600Y-90624447D01*
X143990525Y-90606829D01*
X143936997Y-90578218D01*
X143890083Y-90539717D01*
X143851582Y-90492803D01*
X143822971Y-90439275D01*
X143805353Y-90381200D01*
X143798800Y-90314660D01*
X143798800Y-86845340D01*
X143805353Y-86778800D01*
X143822971Y-86720725D01*
X143851582Y-86667197D01*
X143890083Y-86620283D01*
X143936997Y-86581782D01*
X143990525Y-86553171D01*
X144048600Y-86535553D01*
X144115140Y-86529000D01*
X160584460Y-86529000D01*
X160651000Y-86535553D01*
X160651000Y-86535553D01*
G37*
G36*
X193191600Y-77735553D02*
G01*
X193249675Y-77753171D01*
X193303203Y-77781782D01*
X193350117Y-77820283D01*
X193388618Y-77867197D01*
X193417229Y-77920725D01*
X193434847Y-77978800D01*
X193441400Y-78045340D01*
X193441400Y-81514660D01*
X193434847Y-81581200D01*
X193417229Y-81639275D01*
X193388618Y-81692803D01*
X193350117Y-81739717D01*
X193303203Y-81778218D01*
X193249675Y-81806829D01*
X193191600Y-81824447D01*
X193125060Y-81831000D01*
X189655740Y-81831000D01*
X189589200Y-81824447D01*
X189531125Y-81806829D01*
X189477597Y-81778218D01*
X189430683Y-81739717D01*
X189392182Y-81692803D01*
X189363571Y-81639275D01*
X189345953Y-81581200D01*
X189339400Y-81514660D01*
X189339400Y-78045340D01*
X189345953Y-77978800D01*
X189363571Y-77920725D01*
X189392182Y-77867197D01*
X189430683Y-77820283D01*
X189477597Y-77781782D01*
X189531125Y-77753171D01*
X189589200Y-77735553D01*
X189655740Y-77729000D01*
X193125060Y-77729000D01*
X193191600Y-77735553D01*
X193191600Y-77735553D01*
G37*
G36*
X186701600Y-77735553D02*
G01*
X186759675Y-77753171D01*
X186813203Y-77781782D01*
X186860117Y-77820283D01*
X186898618Y-77867197D01*
X186927229Y-77920725D01*
X186944847Y-77978800D01*
X186951400Y-78045340D01*
X186951400Y-81514660D01*
X186944847Y-81581200D01*
X186927229Y-81639275D01*
X186898618Y-81692803D01*
X186860117Y-81739717D01*
X186813203Y-81778218D01*
X186759675Y-81806829D01*
X186701600Y-81824447D01*
X186635060Y-81831000D01*
X183165740Y-81831000D01*
X183099200Y-81824447D01*
X183041125Y-81806829D01*
X182987597Y-81778218D01*
X182940683Y-81739717D01*
X182902182Y-81692803D01*
X182873571Y-81639275D01*
X182855953Y-81581200D01*
X182849400Y-81514660D01*
X182849400Y-78045340D01*
X182855953Y-77978800D01*
X182873571Y-77920725D01*
X182902182Y-77867197D01*
X182940683Y-77820283D01*
X182987597Y-77781782D01*
X183041125Y-77753171D01*
X183099200Y-77735553D01*
X183165740Y-77729000D01*
X186635060Y-77729000D01*
X186701600Y-77735553D01*
X186701600Y-77735553D01*
G37*
G36*
X121631600Y-77735553D02*
G01*
X121689675Y-77753171D01*
X121743203Y-77781782D01*
X121790117Y-77820283D01*
X121828618Y-77867197D01*
X121857229Y-77920725D01*
X121874847Y-77978800D01*
X121881400Y-78045340D01*
X121881400Y-81514660D01*
X121874847Y-81581200D01*
X121857229Y-81639275D01*
X121828618Y-81692803D01*
X121790117Y-81739717D01*
X121743203Y-81778218D01*
X121689675Y-81806829D01*
X121631600Y-81824447D01*
X121565060Y-81831000D01*
X118095740Y-81831000D01*
X118029200Y-81824447D01*
X117971125Y-81806829D01*
X117917597Y-81778218D01*
X117870683Y-81739717D01*
X117832182Y-81692803D01*
X117803571Y-81639275D01*
X117785953Y-81581200D01*
X117779400Y-81514660D01*
X117779400Y-78045340D01*
X117785953Y-77978800D01*
X117803571Y-77920725D01*
X117832182Y-77867197D01*
X117870683Y-77820283D01*
X117917597Y-77781782D01*
X117971125Y-77753171D01*
X118029200Y-77735553D01*
X118095740Y-77729000D01*
X121565060Y-77729000D01*
X121631600Y-77735553D01*
X121631600Y-77735553D01*
G37*
G36*
X141151600Y-77735553D02*
G01*
X141209675Y-77753171D01*
X141263203Y-77781782D01*
X141310117Y-77820283D01*
X141348618Y-77867197D01*
X141377229Y-77920725D01*
X141394847Y-77978800D01*
X141401400Y-78045340D01*
X141401400Y-81514660D01*
X141394847Y-81581200D01*
X141377229Y-81639275D01*
X141348618Y-81692803D01*
X141310117Y-81739717D01*
X141263203Y-81778218D01*
X141209675Y-81806829D01*
X141151600Y-81824447D01*
X141085060Y-81831000D01*
X137615740Y-81831000D01*
X137549200Y-81824447D01*
X137491125Y-81806829D01*
X137437597Y-81778218D01*
X137390683Y-81739717D01*
X137352182Y-81692803D01*
X137323571Y-81639275D01*
X137305953Y-81581200D01*
X137299400Y-81514660D01*
X137299400Y-78045340D01*
X137305953Y-77978800D01*
X137323571Y-77920725D01*
X137352182Y-77867197D01*
X137390683Y-77820283D01*
X137437597Y-77781782D01*
X137491125Y-77753171D01*
X137549200Y-77735553D01*
X137615740Y-77729000D01*
X141085060Y-77729000D01*
X141151600Y-77735553D01*
X141151600Y-77735553D01*
G37*
G36*
X134651600Y-77735553D02*
G01*
X134709675Y-77753171D01*
X134763203Y-77781782D01*
X134810117Y-77820283D01*
X134848618Y-77867197D01*
X134877229Y-77920725D01*
X134894847Y-77978800D01*
X134901400Y-78045340D01*
X134901400Y-81514660D01*
X134894847Y-81581200D01*
X134877229Y-81639275D01*
X134848618Y-81692803D01*
X134810117Y-81739717D01*
X134763203Y-81778218D01*
X134709675Y-81806829D01*
X134651600Y-81824447D01*
X134585060Y-81831000D01*
X131115740Y-81831000D01*
X131049200Y-81824447D01*
X130991125Y-81806829D01*
X130937597Y-81778218D01*
X130890683Y-81739717D01*
X130852182Y-81692803D01*
X130823571Y-81639275D01*
X130805953Y-81581200D01*
X130799400Y-81514660D01*
X130799400Y-78045340D01*
X130805953Y-77978800D01*
X130823571Y-77920725D01*
X130852182Y-77867197D01*
X130890683Y-77820283D01*
X130937597Y-77781782D01*
X130991125Y-77753171D01*
X131049200Y-77735553D01*
X131115740Y-77729000D01*
X134585060Y-77729000D01*
X134651600Y-77735553D01*
X134651600Y-77735553D01*
G37*
G36*
X128141600Y-77735553D02*
G01*
X128199675Y-77753171D01*
X128253203Y-77781782D01*
X128300117Y-77820283D01*
X128338618Y-77867197D01*
X128367229Y-77920725D01*
X128384847Y-77978800D01*
X128391400Y-78045340D01*
X128391400Y-81514660D01*
X128384847Y-81581200D01*
X128367229Y-81639275D01*
X128338618Y-81692803D01*
X128300117Y-81739717D01*
X128253203Y-81778218D01*
X128199675Y-81806829D01*
X128141600Y-81824447D01*
X128075060Y-81831000D01*
X124605740Y-81831000D01*
X124539200Y-81824447D01*
X124481125Y-81806829D01*
X124427597Y-81778218D01*
X124380683Y-81739717D01*
X124342182Y-81692803D01*
X124313571Y-81639275D01*
X124295953Y-81581200D01*
X124289400Y-81514660D01*
X124289400Y-78045340D01*
X124295953Y-77978800D01*
X124313571Y-77920725D01*
X124342182Y-77867197D01*
X124380683Y-77820283D01*
X124427597Y-77781782D01*
X124481125Y-77753171D01*
X124539200Y-77735553D01*
X124605740Y-77729000D01*
X128075060Y-77729000D01*
X128141600Y-77735553D01*
X128141600Y-77735553D01*
G37*
G36*
X180201600Y-77725553D02*
G01*
X180259675Y-77743171D01*
X180313203Y-77771782D01*
X180360117Y-77810283D01*
X180398618Y-77857197D01*
X180427229Y-77910725D01*
X180444847Y-77968800D01*
X180451400Y-78035340D01*
X180451400Y-81504660D01*
X180444847Y-81571200D01*
X180427229Y-81629275D01*
X180398618Y-81682803D01*
X180360117Y-81729717D01*
X180313203Y-81768218D01*
X180259675Y-81796829D01*
X180201600Y-81814447D01*
X180135060Y-81821000D01*
X176665740Y-81821000D01*
X176599200Y-81814447D01*
X176541125Y-81796829D01*
X176487597Y-81768218D01*
X176440683Y-81729717D01*
X176402182Y-81682803D01*
X176373571Y-81629275D01*
X176355953Y-81571200D01*
X176349400Y-81504660D01*
X176349400Y-78035340D01*
X176355953Y-77968800D01*
X176373571Y-77910725D01*
X176402182Y-77857197D01*
X176440683Y-77810283D01*
X176487597Y-77771782D01*
X176541125Y-77743171D01*
X176599200Y-77725553D01*
X176665740Y-77719000D01*
X180135060Y-77719000D01*
X180201600Y-77725553D01*
X180201600Y-77725553D01*
G37*
G36*
X206171400Y-77725553D02*
G01*
X206229475Y-77743171D01*
X206283003Y-77771782D01*
X206329917Y-77810283D01*
X206368418Y-77857197D01*
X206397029Y-77910725D01*
X206414647Y-77968800D01*
X206421200Y-78035340D01*
X206421200Y-81504660D01*
X206414647Y-81571200D01*
X206397029Y-81629275D01*
X206368418Y-81682803D01*
X206329917Y-81729717D01*
X206283003Y-81768218D01*
X206229475Y-81796829D01*
X206171400Y-81814447D01*
X206104860Y-81821000D01*
X196135540Y-81821000D01*
X196069000Y-81814447D01*
X196010925Y-81796829D01*
X195957397Y-81768218D01*
X195910483Y-81729717D01*
X195871982Y-81682803D01*
X195843371Y-81629275D01*
X195825753Y-81571200D01*
X195819200Y-81504660D01*
X195819200Y-78035340D01*
X195825753Y-77968800D01*
X195843371Y-77910725D01*
X195871982Y-77857197D01*
X195910483Y-77810283D01*
X195957397Y-77771782D01*
X196010925Y-77743171D01*
X196069000Y-77725553D01*
X196135540Y-77719000D01*
X206104860Y-77719000D01*
X206171400Y-77725553D01*
X206171400Y-77725553D01*
G37*
G36*
X173691600Y-77725553D02*
G01*
X173749675Y-77743171D01*
X173803203Y-77771782D01*
X173850117Y-77810283D01*
X173888618Y-77857197D01*
X173917229Y-77910725D01*
X173934847Y-77968800D01*
X173941400Y-78035340D01*
X173941400Y-81504660D01*
X173934847Y-81571200D01*
X173917229Y-81629275D01*
X173888618Y-81682803D01*
X173850117Y-81729717D01*
X173803203Y-81768218D01*
X173749675Y-81796829D01*
X173691600Y-81814447D01*
X173625060Y-81821000D01*
X170155740Y-81821000D01*
X170089200Y-81814447D01*
X170031125Y-81796829D01*
X169977597Y-81768218D01*
X169930683Y-81729717D01*
X169892182Y-81682803D01*
X169863571Y-81629275D01*
X169845953Y-81571200D01*
X169839400Y-81504660D01*
X169839400Y-78035340D01*
X169845953Y-77968800D01*
X169863571Y-77910725D01*
X169892182Y-77857197D01*
X169930683Y-77810283D01*
X169977597Y-77771782D01*
X170031125Y-77743171D01*
X170089200Y-77725553D01*
X170155740Y-77719000D01*
X173625060Y-77719000D01*
X173691600Y-77725553D01*
X173691600Y-77725553D01*
G37*
G36*
X167181600Y-77725553D02*
G01*
X167239675Y-77743171D01*
X167293203Y-77771782D01*
X167340117Y-77810283D01*
X167378618Y-77857197D01*
X167407229Y-77910725D01*
X167424847Y-77968800D01*
X167431400Y-78035340D01*
X167431400Y-81504660D01*
X167424847Y-81571200D01*
X167407229Y-81629275D01*
X167378618Y-81682803D01*
X167340117Y-81729717D01*
X167293203Y-81768218D01*
X167239675Y-81796829D01*
X167181600Y-81814447D01*
X167115060Y-81821000D01*
X163645740Y-81821000D01*
X163579200Y-81814447D01*
X163521125Y-81796829D01*
X163467597Y-81768218D01*
X163420683Y-81729717D01*
X163382182Y-81682803D01*
X163353571Y-81629275D01*
X163335953Y-81571200D01*
X163329400Y-81504660D01*
X163329400Y-78035340D01*
X163335953Y-77968800D01*
X163353571Y-77910725D01*
X163382182Y-77857197D01*
X163420683Y-77810283D01*
X163467597Y-77771782D01*
X163521125Y-77743171D01*
X163579200Y-77725553D01*
X163645740Y-77719000D01*
X167115060Y-77719000D01*
X167181600Y-77725553D01*
X167181600Y-77725553D01*
G37*
G36*
X160671600Y-77725553D02*
G01*
X160729675Y-77743171D01*
X160783203Y-77771782D01*
X160830117Y-77810283D01*
X160868618Y-77857197D01*
X160897229Y-77910725D01*
X160914847Y-77968800D01*
X160921400Y-78035340D01*
X160921400Y-81504660D01*
X160914847Y-81571200D01*
X160897229Y-81629275D01*
X160868618Y-81682803D01*
X160830117Y-81729717D01*
X160783203Y-81768218D01*
X160729675Y-81796829D01*
X160671600Y-81814447D01*
X160605060Y-81821000D01*
X157135740Y-81821000D01*
X157069200Y-81814447D01*
X157011125Y-81796829D01*
X156957597Y-81768218D01*
X156910683Y-81729717D01*
X156872182Y-81682803D01*
X156843571Y-81629275D01*
X156825953Y-81571200D01*
X156819400Y-81504660D01*
X156819400Y-78035340D01*
X156825953Y-77968800D01*
X156843571Y-77910725D01*
X156872182Y-77857197D01*
X156910683Y-77810283D01*
X156957597Y-77771782D01*
X157011125Y-77743171D01*
X157069200Y-77725553D01*
X157135740Y-77719000D01*
X160605060Y-77719000D01*
X160671600Y-77725553D01*
X160671600Y-77725553D01*
G37*
G36*
X154161600Y-77725553D02*
G01*
X154219675Y-77743171D01*
X154273203Y-77771782D01*
X154320117Y-77810283D01*
X154358618Y-77857197D01*
X154387229Y-77910725D01*
X154404847Y-77968800D01*
X154411400Y-78035340D01*
X154411400Y-81504660D01*
X154404847Y-81571200D01*
X154387229Y-81629275D01*
X154358618Y-81682803D01*
X154320117Y-81729717D01*
X154273203Y-81768218D01*
X154219675Y-81796829D01*
X154161600Y-81814447D01*
X154095060Y-81821000D01*
X150625740Y-81821000D01*
X150559200Y-81814447D01*
X150501125Y-81796829D01*
X150447597Y-81768218D01*
X150400683Y-81729717D01*
X150362182Y-81682803D01*
X150333571Y-81629275D01*
X150315953Y-81571200D01*
X150309400Y-81504660D01*
X150309400Y-78035340D01*
X150315953Y-77968800D01*
X150333571Y-77910725D01*
X150362182Y-77857197D01*
X150400683Y-77810283D01*
X150447597Y-77771782D01*
X150501125Y-77743171D01*
X150559200Y-77725553D01*
X150625740Y-77719000D01*
X154095060Y-77719000D01*
X154161600Y-77725553D01*
X154161600Y-77725553D01*
G37*
G36*
X147661600Y-77725553D02*
G01*
X147719675Y-77743171D01*
X147773203Y-77771782D01*
X147820117Y-77810283D01*
X147858618Y-77857197D01*
X147887229Y-77910725D01*
X147904847Y-77968800D01*
X147911400Y-78035340D01*
X147911400Y-81504660D01*
X147904847Y-81571200D01*
X147887229Y-81629275D01*
X147858618Y-81682803D01*
X147820117Y-81729717D01*
X147773203Y-81768218D01*
X147719675Y-81796829D01*
X147661600Y-81814447D01*
X147595060Y-81821000D01*
X144125740Y-81821000D01*
X144059200Y-81814447D01*
X144001125Y-81796829D01*
X143947597Y-81768218D01*
X143900683Y-81729717D01*
X143862182Y-81682803D01*
X143833571Y-81629275D01*
X143815953Y-81571200D01*
X143809400Y-81504660D01*
X143809400Y-78035340D01*
X143815953Y-77968800D01*
X143833571Y-77910725D01*
X143862182Y-77857197D01*
X143900683Y-77810283D01*
X143947597Y-77771782D01*
X144001125Y-77743171D01*
X144059200Y-77725553D01*
X144125740Y-77719000D01*
X147595060Y-77719000D01*
X147661600Y-77725553D01*
X147661600Y-77725553D01*
G37*
G36*
X203611000Y-49471253D02*
G01*
X203512967Y-49964098D01*
X203320668Y-50428350D01*
X203320667Y-50428352D01*
X203041491Y-50846168D01*
X202686168Y-51201491D01*
X202268352Y-51480667D01*
X202268351Y-51480668D01*
X202268350Y-51480668D01*
X201804098Y-51672967D01*
X201311253Y-51771000D01*
X200808747Y-51771000D01*
X200315902Y-51672967D01*
X199851650Y-51480668D01*
X199851649Y-51480668D01*
X199851648Y-51480667D01*
X199433832Y-51201491D01*
X199078509Y-50846168D01*
X198799333Y-50428352D01*
X198799332Y-50428350D01*
X198607033Y-49964098D01*
X198509000Y-49471253D01*
X198509000Y-41169000D01*
X203611000Y-41169000D01*
X203611000Y-49471253D01*
X203611000Y-49471253D01*
G37*
G36*
X166108014Y-46866973D02*
G01*
X166211878Y-46898479D01*
X166255907Y-46922013D01*
X166307599Y-46949643D01*
X166307601Y-46949644D01*
X166307600Y-46949644D01*
X166391501Y-47018499D01*
X166460356Y-47102400D01*
X166511521Y-47198121D01*
X166543027Y-47301985D01*
X166551000Y-47382933D01*
X166551000Y-48537067D01*
X166543027Y-48618015D01*
X166511521Y-48721879D01*
X166511519Y-48721882D01*
X166460357Y-48817600D01*
X166391501Y-48901501D01*
X166307600Y-48970357D01*
X166239055Y-49006995D01*
X166211879Y-49021521D01*
X166108015Y-49053027D01*
X166000000Y-49063666D01*
X165891986Y-49053027D01*
X165788122Y-49021521D01*
X165760946Y-49006995D01*
X165692401Y-48970357D01*
X165608500Y-48901501D01*
X165539644Y-48817600D01*
X165488482Y-48721882D01*
X165488480Y-48721879D01*
X165456974Y-48618015D01*
X165449001Y-48537067D01*
X165449000Y-47382934D01*
X165456973Y-47301986D01*
X165488479Y-47198122D01*
X165539644Y-47102400D01*
X165608499Y-47018499D01*
X165692400Y-46949644D01*
X165692399Y-46949644D01*
X165692401Y-46949643D01*
X165744093Y-46922013D01*
X165788121Y-46898479D01*
X165891985Y-46866973D01*
X166000000Y-46856334D01*
X166108014Y-46866973D01*
X166108014Y-46866973D01*
G37*
G36*
X157468014Y-46866973D02*
G01*
X157571878Y-46898479D01*
X157615907Y-46922013D01*
X157667599Y-46949643D01*
X157667601Y-46949644D01*
X157667600Y-46949644D01*
X157751501Y-47018499D01*
X157820356Y-47102400D01*
X157871521Y-47198121D01*
X157903027Y-47301985D01*
X157911000Y-47382933D01*
X157911000Y-48537067D01*
X157903027Y-48618015D01*
X157871521Y-48721879D01*
X157871519Y-48721882D01*
X157820357Y-48817600D01*
X157751501Y-48901501D01*
X157667600Y-48970357D01*
X157599055Y-49006995D01*
X157571879Y-49021521D01*
X157468015Y-49053027D01*
X157360000Y-49063666D01*
X157251986Y-49053027D01*
X157148122Y-49021521D01*
X157120946Y-49006995D01*
X157052401Y-48970357D01*
X156968500Y-48901501D01*
X156899644Y-48817600D01*
X156848482Y-48721882D01*
X156848480Y-48721879D01*
X156816974Y-48618015D01*
X156809001Y-48537067D01*
X156809000Y-47382934D01*
X156816973Y-47301986D01*
X156848479Y-47198122D01*
X156899644Y-47102400D01*
X156968499Y-47018499D01*
X157052400Y-46949644D01*
X157052399Y-46949644D01*
X157052401Y-46949643D01*
X157104093Y-46922013D01*
X157148121Y-46898479D01*
X157251985Y-46866973D01*
X157360000Y-46856334D01*
X157468014Y-46866973D01*
X157468014Y-46866973D01*
G37*
G36*
X158899672Y-47068449D02*
G01*
X158899674Y-47068450D01*
X158899675Y-47068450D01*
X158968103Y-47096793D01*
X159029686Y-47137942D01*
X159082058Y-47190314D01*
X159123207Y-47251897D01*
X159151550Y-47320325D01*
X159151551Y-47320328D01*
X159166000Y-47392966D01*
X159166000Y-47467033D01*
X159151550Y-47539675D01*
X159123207Y-47608103D01*
X159082058Y-47669686D01*
X159029686Y-47722058D01*
X158968103Y-47763207D01*
X158899675Y-47791550D01*
X158899674Y-47791550D01*
X158899672Y-47791551D01*
X158827034Y-47806000D01*
X158752966Y-47806000D01*
X158680328Y-47791551D01*
X158680326Y-47791550D01*
X158680325Y-47791550D01*
X158611897Y-47763207D01*
X158550314Y-47722058D01*
X158497942Y-47669686D01*
X158456793Y-47608103D01*
X158428450Y-47539675D01*
X158414000Y-47467033D01*
X158414000Y-47392966D01*
X158428449Y-47320328D01*
X158428450Y-47320325D01*
X158456793Y-47251897D01*
X158497942Y-47190314D01*
X158550314Y-47137942D01*
X158611897Y-47096793D01*
X158680325Y-47068450D01*
X158680326Y-47068450D01*
X158680328Y-47068449D01*
X158752966Y-47054000D01*
X158827034Y-47054000D01*
X158899672Y-47068449D01*
X158899672Y-47068449D01*
G37*
G36*
X164679672Y-47068449D02*
G01*
X164679674Y-47068450D01*
X164679675Y-47068450D01*
X164748103Y-47096793D01*
X164809686Y-47137942D01*
X164862058Y-47190314D01*
X164903207Y-47251897D01*
X164931550Y-47320325D01*
X164931551Y-47320328D01*
X164946000Y-47392966D01*
X164946000Y-47467033D01*
X164931550Y-47539675D01*
X164903207Y-47608103D01*
X164862058Y-47669686D01*
X164809686Y-47722058D01*
X164748103Y-47763207D01*
X164679675Y-47791550D01*
X164679674Y-47791550D01*
X164679672Y-47791551D01*
X164607034Y-47806000D01*
X164532966Y-47806000D01*
X164460328Y-47791551D01*
X164460326Y-47791550D01*
X164460325Y-47791550D01*
X164391897Y-47763207D01*
X164330314Y-47722058D01*
X164277942Y-47669686D01*
X164236793Y-47608103D01*
X164208450Y-47539675D01*
X164194000Y-47467033D01*
X164194000Y-47392966D01*
X164208449Y-47320328D01*
X164208450Y-47320325D01*
X164236793Y-47251897D01*
X164277942Y-47190314D01*
X164330314Y-47137942D01*
X164391897Y-47096793D01*
X164460325Y-47068450D01*
X164460326Y-47068450D01*
X164460328Y-47068449D01*
X164532966Y-47054000D01*
X164607034Y-47054000D01*
X164679672Y-47068449D01*
X164679672Y-47068449D01*
G37*
G36*
X209774549Y-42559116D02*
G01*
X209885734Y-42581232D01*
X210095203Y-42667997D01*
X210283720Y-42793960D01*
X210444040Y-42954280D01*
X210570003Y-43142797D01*
X210656768Y-43352266D01*
X210701000Y-43574636D01*
X210701000Y-43801364D01*
X210656768Y-44023734D01*
X210570003Y-44233203D01*
X210444040Y-44421720D01*
X210283720Y-44582040D01*
X210095203Y-44708003D01*
X209885734Y-44794768D01*
X209774549Y-44816884D01*
X209663365Y-44839000D01*
X209436635Y-44839000D01*
X209325451Y-44816884D01*
X209214266Y-44794768D01*
X209004797Y-44708003D01*
X208816280Y-44582040D01*
X208655960Y-44421720D01*
X208529997Y-44233203D01*
X208443232Y-44023734D01*
X208399000Y-43801364D01*
X208399000Y-43574636D01*
X208443232Y-43352266D01*
X208529997Y-43142797D01*
X208655960Y-42954280D01*
X208816280Y-42793960D01*
X209004797Y-42667997D01*
X209214266Y-42581232D01*
X209325451Y-42559116D01*
X209436635Y-42537000D01*
X209663365Y-42537000D01*
X209774549Y-42559116D01*
X209774549Y-42559116D01*
G37*
G36*
X115032549Y-42559116D02*
G01*
X115143734Y-42581232D01*
X115353203Y-42667997D01*
X115541720Y-42793960D01*
X115702040Y-42954280D01*
X115828003Y-43142797D01*
X115914768Y-43352266D01*
X115959000Y-43574636D01*
X115959000Y-43801364D01*
X115914768Y-44023734D01*
X115828003Y-44233203D01*
X115702040Y-44421720D01*
X115541720Y-44582040D01*
X115353203Y-44708003D01*
X115143734Y-44794768D01*
X115032549Y-44816884D01*
X114921365Y-44839000D01*
X114694635Y-44839000D01*
X114583451Y-44816884D01*
X114472266Y-44794768D01*
X114262797Y-44708003D01*
X114074280Y-44582040D01*
X113913960Y-44421720D01*
X113787997Y-44233203D01*
X113701232Y-44023734D01*
X113657000Y-43801364D01*
X113657000Y-43574636D01*
X113701232Y-43352266D01*
X113787997Y-43142797D01*
X113913960Y-42954280D01*
X114074280Y-42793960D01*
X114262797Y-42667997D01*
X114472266Y-42581232D01*
X114583451Y-42559116D01*
X114694635Y-42537000D01*
X114921365Y-42537000D01*
X115032549Y-42559116D01*
X115032549Y-42559116D01*
G37*
G36*
X157468014Y-42936973D02*
G01*
X157571878Y-42968479D01*
X157615907Y-42992013D01*
X157667599Y-43019643D01*
X157667601Y-43019644D01*
X157667600Y-43019644D01*
X157751501Y-43088499D01*
X157820356Y-43172400D01*
X157871521Y-43268121D01*
X157903027Y-43371985D01*
X157911000Y-43452933D01*
X157911000Y-44107067D01*
X157903027Y-44188015D01*
X157871521Y-44291879D01*
X157871519Y-44291882D01*
X157820357Y-44387600D01*
X157751501Y-44471501D01*
X157667600Y-44540357D01*
X157599055Y-44576995D01*
X157571879Y-44591521D01*
X157468015Y-44623027D01*
X157360000Y-44633666D01*
X157251986Y-44623027D01*
X157148122Y-44591521D01*
X157120946Y-44576995D01*
X157052401Y-44540357D01*
X156968500Y-44471501D01*
X156899645Y-44387601D01*
X156848480Y-44291879D01*
X156830680Y-44233201D01*
X156816973Y-44188015D01*
X156809000Y-44107067D01*
X156809000Y-43452934D01*
X156816973Y-43371986D01*
X156848479Y-43268122D01*
X156899644Y-43172400D01*
X156968499Y-43088499D01*
X157052400Y-43019644D01*
X157052399Y-43019644D01*
X157052401Y-43019643D01*
X157104093Y-42992013D01*
X157148121Y-42968479D01*
X157251985Y-42936973D01*
X157360000Y-42926334D01*
X157468014Y-42936973D01*
X157468014Y-42936973D01*
G37*
G36*
X166108014Y-42936973D02*
G01*
X166211878Y-42968479D01*
X166255907Y-42992013D01*
X166307599Y-43019643D01*
X166307601Y-43019644D01*
X166307600Y-43019644D01*
X166391501Y-43088499D01*
X166460356Y-43172400D01*
X166511521Y-43268121D01*
X166543027Y-43371985D01*
X166551000Y-43452933D01*
X166551000Y-44107067D01*
X166543027Y-44188015D01*
X166511521Y-44291879D01*
X166511519Y-44291882D01*
X166460357Y-44387600D01*
X166391501Y-44471501D01*
X166307600Y-44540357D01*
X166239055Y-44576995D01*
X166211879Y-44591521D01*
X166108015Y-44623027D01*
X166000000Y-44633666D01*
X165891986Y-44623027D01*
X165788122Y-44591521D01*
X165760946Y-44576995D01*
X165692401Y-44540357D01*
X165608500Y-44471501D01*
X165539645Y-44387601D01*
X165488480Y-44291879D01*
X165470680Y-44233201D01*
X165456973Y-44188015D01*
X165449000Y-44107067D01*
X165449000Y-43452934D01*
X165456973Y-43371986D01*
X165488479Y-43268122D01*
X165539644Y-43172400D01*
X165608499Y-43088499D01*
X165692400Y-43019644D01*
X165692399Y-43019644D01*
X165692401Y-43019643D01*
X165744093Y-42992013D01*
X165788121Y-42968479D01*
X165891985Y-42936973D01*
X166000000Y-42926334D01*
X166108014Y-42936973D01*
X166108014Y-42936973D01*
G37*
M02*
