G04 #@! TF.GenerationSoftware,KiCad,Pcbnew,(5.1.2-1)-1*
G04 #@! TF.CreationDate,2020-07-23T10:17:53-07:00*
G04 #@! TF.ProjectId,tiny-touch,74696e79-2d74-46f7-9563-682e6b696361,rev?*
G04 #@! TF.SameCoordinates,Original*
G04 #@! TF.FileFunction,Soldermask,Bot*
G04 #@! TF.FilePolarity,Negative*
%FSLAX46Y46*%
G04 Gerber Fmt 4.6, Leading zero omitted, Abs format (unit mm)*
G04 Created by KiCad (PCBNEW (5.1.2-1)-1) date 2020-07-23 10:17:53*
%MOMM*%
%LPD*%
G04 APERTURE LIST*
%ADD10C,0.100000*%
G04 APERTURE END LIST*
D10*
G36*
X209774549Y-136031116D02*
G01*
X209885734Y-136053232D01*
X210095203Y-136139997D01*
X210283720Y-136265960D01*
X210444040Y-136426280D01*
X210570003Y-136614797D01*
X210656768Y-136824266D01*
X210701000Y-137046636D01*
X210701000Y-137273364D01*
X210656768Y-137495734D01*
X210570003Y-137705203D01*
X210444040Y-137893720D01*
X210283720Y-138054040D01*
X210095203Y-138180003D01*
X209885734Y-138266768D01*
X209774549Y-138288884D01*
X209663365Y-138311000D01*
X209436635Y-138311000D01*
X209325451Y-138288884D01*
X209214266Y-138266768D01*
X209004797Y-138180003D01*
X208816280Y-138054040D01*
X208655960Y-137893720D01*
X208529997Y-137705203D01*
X208443232Y-137495734D01*
X208399000Y-137273364D01*
X208399000Y-137046636D01*
X208443232Y-136824266D01*
X208529997Y-136614797D01*
X208655960Y-136426280D01*
X208816280Y-136265960D01*
X209004797Y-136139997D01*
X209214266Y-136053232D01*
X209325451Y-136031116D01*
X209436635Y-136009000D01*
X209663365Y-136009000D01*
X209774549Y-136031116D01*
X209774549Y-136031116D01*
G37*
G36*
X115032549Y-136031116D02*
G01*
X115143734Y-136053232D01*
X115353203Y-136139997D01*
X115541720Y-136265960D01*
X115702040Y-136426280D01*
X115828003Y-136614797D01*
X115914768Y-136824266D01*
X115959000Y-137046636D01*
X115959000Y-137273364D01*
X115914768Y-137495734D01*
X115828003Y-137705203D01*
X115702040Y-137893720D01*
X115541720Y-138054040D01*
X115353203Y-138180003D01*
X115143734Y-138266768D01*
X115032549Y-138288884D01*
X114921365Y-138311000D01*
X114694635Y-138311000D01*
X114583451Y-138288884D01*
X114472266Y-138266768D01*
X114262797Y-138180003D01*
X114074280Y-138054040D01*
X113913960Y-137893720D01*
X113787997Y-137705203D01*
X113701232Y-137495734D01*
X113657000Y-137273364D01*
X113657000Y-137046636D01*
X113701232Y-136824266D01*
X113787997Y-136614797D01*
X113913960Y-136426280D01*
X114074280Y-136265960D01*
X114262797Y-136139997D01*
X114472266Y-136053232D01*
X114583451Y-136031116D01*
X114694635Y-136009000D01*
X114921365Y-136009000D01*
X115032549Y-136031116D01*
X115032549Y-136031116D01*
G37*
G36*
X120045000Y-72111000D02*
G01*
X118643000Y-72111000D01*
X118643000Y-70459000D01*
X120045000Y-70459000D01*
X120045000Y-72111000D01*
X120045000Y-72111000D01*
G37*
G36*
X115545000Y-72111000D02*
G01*
X114143000Y-72111000D01*
X114143000Y-70459000D01*
X115545000Y-70459000D01*
X115545000Y-72111000D01*
X115545000Y-72111000D01*
G37*
G36*
X144631000Y-69740500D02*
G01*
X132229000Y-69740500D01*
X132229000Y-68163500D01*
X144631000Y-68163500D01*
X144631000Y-69740500D01*
X144631000Y-69740500D01*
G37*
G36*
X131480500Y-67415000D02*
G01*
X129903500Y-67415000D01*
X129903500Y-55013000D01*
X131480500Y-55013000D01*
X131480500Y-67415000D01*
X131480500Y-67415000D01*
G37*
G36*
X146956500Y-67415000D02*
G01*
X145379500Y-67415000D01*
X145379500Y-55013000D01*
X146956500Y-55013000D01*
X146956500Y-67415000D01*
X146956500Y-67415000D01*
G37*
G36*
X120045000Y-64161000D02*
G01*
X118643000Y-64161000D01*
X118643000Y-62509000D01*
X120045000Y-62509000D01*
X120045000Y-64161000D01*
X120045000Y-64161000D01*
G37*
G36*
X115545000Y-64161000D02*
G01*
X114143000Y-64161000D01*
X114143000Y-62509000D01*
X115545000Y-62509000D01*
X115545000Y-64161000D01*
X115545000Y-64161000D01*
G37*
G36*
X118407000Y-59459000D02*
G01*
X117305000Y-59459000D01*
X117305000Y-58357000D01*
X118407000Y-58357000D01*
X118407000Y-59459000D01*
X118407000Y-59459000D01*
G37*
G36*
X122171000Y-59236000D02*
G01*
X121669000Y-59236000D01*
X121669000Y-58084000D01*
X122171000Y-58084000D01*
X122171000Y-59236000D01*
X122171000Y-59236000D01*
G37*
G36*
X121521000Y-57336000D02*
G01*
X121019000Y-57336000D01*
X121019000Y-56184000D01*
X121521000Y-56184000D01*
X121521000Y-57336000D01*
X121521000Y-57336000D01*
G37*
G36*
X122821000Y-57336000D02*
G01*
X122319000Y-57336000D01*
X122319000Y-56184000D01*
X122821000Y-56184000D01*
X122821000Y-57336000D01*
X122821000Y-57336000D01*
G37*
G36*
X118407000Y-56959000D02*
G01*
X117305000Y-56959000D01*
X117305000Y-55857000D01*
X118407000Y-55857000D01*
X118407000Y-56959000D01*
X118407000Y-56959000D01*
G37*
G36*
X157844499Y-53643445D02*
G01*
X157881995Y-53654820D01*
X157916554Y-53673292D01*
X157946847Y-53698153D01*
X157971708Y-53728446D01*
X157990180Y-53763005D01*
X158001555Y-53800501D01*
X158006000Y-53845638D01*
X158006000Y-54584362D01*
X158001555Y-54629499D01*
X157990180Y-54666995D01*
X157971708Y-54701554D01*
X157946847Y-54731847D01*
X157916554Y-54756708D01*
X157881995Y-54775180D01*
X157844499Y-54786555D01*
X157799362Y-54791000D01*
X157160638Y-54791000D01*
X157115501Y-54786555D01*
X157078005Y-54775180D01*
X157043446Y-54756708D01*
X157013153Y-54731847D01*
X156988292Y-54701554D01*
X156969820Y-54666995D01*
X156958445Y-54629499D01*
X156954000Y-54584362D01*
X156954000Y-53845638D01*
X156958445Y-53800501D01*
X156969820Y-53763005D01*
X156988292Y-53728446D01*
X157013153Y-53698153D01*
X157043446Y-53673292D01*
X157078005Y-53654820D01*
X157115501Y-53643445D01*
X157160638Y-53639000D01*
X157799362Y-53639000D01*
X157844499Y-53643445D01*
X157844499Y-53643445D01*
G37*
G36*
X166734499Y-53643445D02*
G01*
X166771995Y-53654820D01*
X166806554Y-53673292D01*
X166836847Y-53698153D01*
X166861708Y-53728446D01*
X166880180Y-53763005D01*
X166891555Y-53800501D01*
X166896000Y-53845638D01*
X166896000Y-54584362D01*
X166891555Y-54629499D01*
X166880180Y-54666995D01*
X166861708Y-54701554D01*
X166836847Y-54731847D01*
X166806554Y-54756708D01*
X166771995Y-54775180D01*
X166734499Y-54786555D01*
X166689362Y-54791000D01*
X166050638Y-54791000D01*
X166005501Y-54786555D01*
X165968005Y-54775180D01*
X165933446Y-54756708D01*
X165903153Y-54731847D01*
X165878292Y-54701554D01*
X165859820Y-54666995D01*
X165848445Y-54629499D01*
X165844000Y-54584362D01*
X165844000Y-53845638D01*
X165848445Y-53800501D01*
X165859820Y-53763005D01*
X165878292Y-53728446D01*
X165903153Y-53698153D01*
X165933446Y-53673292D01*
X165968005Y-53654820D01*
X166005501Y-53643445D01*
X166050638Y-53639000D01*
X166689362Y-53639000D01*
X166734499Y-53643445D01*
X166734499Y-53643445D01*
G37*
G36*
X161279000Y-54666000D02*
G01*
X160117000Y-54666000D01*
X160117000Y-52014000D01*
X161279000Y-52014000D01*
X161279000Y-54666000D01*
X161279000Y-54666000D01*
G37*
G36*
X163479000Y-54666000D02*
G01*
X162317000Y-54666000D01*
X162317000Y-52014000D01*
X163479000Y-52014000D01*
X163479000Y-54666000D01*
X163479000Y-54666000D01*
G37*
G36*
X144631000Y-54264500D02*
G01*
X132229000Y-54264500D01*
X132229000Y-52687500D01*
X144631000Y-52687500D01*
X144631000Y-54264500D01*
X144631000Y-54264500D01*
G37*
G36*
X121177499Y-52564445D02*
G01*
X121214995Y-52575820D01*
X121249554Y-52594292D01*
X121279847Y-52619153D01*
X121304708Y-52649446D01*
X121323180Y-52684005D01*
X121334555Y-52721501D01*
X121339000Y-52766638D01*
X121339000Y-53405362D01*
X121334555Y-53450499D01*
X121323180Y-53487995D01*
X121304708Y-53522554D01*
X121279847Y-53552847D01*
X121249554Y-53577708D01*
X121214995Y-53596180D01*
X121177499Y-53607555D01*
X121132362Y-53612000D01*
X120393638Y-53612000D01*
X120348501Y-53607555D01*
X120311005Y-53596180D01*
X120276446Y-53577708D01*
X120246153Y-53552847D01*
X120221292Y-53522554D01*
X120202820Y-53487995D01*
X120191445Y-53450499D01*
X120187000Y-53405362D01*
X120187000Y-52766638D01*
X120191445Y-52721501D01*
X120202820Y-52684005D01*
X120221292Y-52649446D01*
X120246153Y-52619153D01*
X120276446Y-52594292D01*
X120311005Y-52575820D01*
X120348501Y-52564445D01*
X120393638Y-52560000D01*
X121132362Y-52560000D01*
X121177499Y-52564445D01*
X121177499Y-52564445D01*
G37*
G36*
X119427499Y-52564445D02*
G01*
X119464995Y-52575820D01*
X119499554Y-52594292D01*
X119529847Y-52619153D01*
X119554708Y-52649446D01*
X119573180Y-52684005D01*
X119584555Y-52721501D01*
X119589000Y-52766638D01*
X119589000Y-53405362D01*
X119584555Y-53450499D01*
X119573180Y-53487995D01*
X119554708Y-53522554D01*
X119529847Y-53552847D01*
X119499554Y-53577708D01*
X119464995Y-53596180D01*
X119427499Y-53607555D01*
X119382362Y-53612000D01*
X118643638Y-53612000D01*
X118598501Y-53607555D01*
X118561005Y-53596180D01*
X118526446Y-53577708D01*
X118496153Y-53552847D01*
X118471292Y-53522554D01*
X118452820Y-53487995D01*
X118441445Y-53450499D01*
X118437000Y-53405362D01*
X118437000Y-52766638D01*
X118441445Y-52721501D01*
X118452820Y-52684005D01*
X118471292Y-52649446D01*
X118496153Y-52619153D01*
X118526446Y-52594292D01*
X118561005Y-52575820D01*
X118598501Y-52564445D01*
X118643638Y-52560000D01*
X119382362Y-52560000D01*
X119427499Y-52564445D01*
X119427499Y-52564445D01*
G37*
G36*
X124316499Y-52119445D02*
G01*
X124353995Y-52130820D01*
X124388554Y-52149292D01*
X124418847Y-52174153D01*
X124443708Y-52204446D01*
X124462180Y-52239005D01*
X124473555Y-52276501D01*
X124478000Y-52321638D01*
X124478000Y-53060362D01*
X124473555Y-53105499D01*
X124462180Y-53142995D01*
X124443708Y-53177554D01*
X124418847Y-53207847D01*
X124388554Y-53232708D01*
X124353995Y-53251180D01*
X124316499Y-53262555D01*
X124271362Y-53267000D01*
X123632638Y-53267000D01*
X123587501Y-53262555D01*
X123550005Y-53251180D01*
X123515446Y-53232708D01*
X123485153Y-53207847D01*
X123460292Y-53177554D01*
X123441820Y-53142995D01*
X123430445Y-53105499D01*
X123426000Y-53060362D01*
X123426000Y-52321638D01*
X123430445Y-52276501D01*
X123441820Y-52239005D01*
X123460292Y-52204446D01*
X123485153Y-52174153D01*
X123515446Y-52149292D01*
X123550005Y-52130820D01*
X123587501Y-52119445D01*
X123632638Y-52115000D01*
X124271362Y-52115000D01*
X124316499Y-52119445D01*
X124316499Y-52119445D01*
G37*
G36*
X157844499Y-51893445D02*
G01*
X157881995Y-51904820D01*
X157916554Y-51923292D01*
X157946847Y-51948153D01*
X157971708Y-51978446D01*
X157990180Y-52013005D01*
X158001555Y-52050501D01*
X158006000Y-52095638D01*
X158006000Y-52834362D01*
X158001555Y-52879499D01*
X157990180Y-52916995D01*
X157971708Y-52951554D01*
X157946847Y-52981847D01*
X157916554Y-53006708D01*
X157881995Y-53025180D01*
X157844499Y-53036555D01*
X157799362Y-53041000D01*
X157160638Y-53041000D01*
X157115501Y-53036555D01*
X157078005Y-53025180D01*
X157043446Y-53006708D01*
X157013153Y-52981847D01*
X156988292Y-52951554D01*
X156969820Y-52916995D01*
X156958445Y-52879499D01*
X156954000Y-52834362D01*
X156954000Y-52095638D01*
X156958445Y-52050501D01*
X156969820Y-52013005D01*
X156988292Y-51978446D01*
X157013153Y-51948153D01*
X157043446Y-51923292D01*
X157078005Y-51904820D01*
X157115501Y-51893445D01*
X157160638Y-51889000D01*
X157799362Y-51889000D01*
X157844499Y-51893445D01*
X157844499Y-51893445D01*
G37*
G36*
X166734499Y-51893445D02*
G01*
X166771995Y-51904820D01*
X166806554Y-51923292D01*
X166836847Y-51948153D01*
X166861708Y-51978446D01*
X166880180Y-52013005D01*
X166891555Y-52050501D01*
X166896000Y-52095638D01*
X166896000Y-52834362D01*
X166891555Y-52879499D01*
X166880180Y-52916995D01*
X166861708Y-52951554D01*
X166836847Y-52981847D01*
X166806554Y-53006708D01*
X166771995Y-53025180D01*
X166734499Y-53036555D01*
X166689362Y-53041000D01*
X166050638Y-53041000D01*
X166005501Y-53036555D01*
X165968005Y-53025180D01*
X165933446Y-53006708D01*
X165903153Y-52981847D01*
X165878292Y-52951554D01*
X165859820Y-52916995D01*
X165848445Y-52879499D01*
X165844000Y-52834362D01*
X165844000Y-52095638D01*
X165848445Y-52050501D01*
X165859820Y-52013005D01*
X165878292Y-51978446D01*
X165903153Y-51948153D01*
X165933446Y-51923292D01*
X165968005Y-51904820D01*
X166005501Y-51893445D01*
X166050638Y-51889000D01*
X166689362Y-51889000D01*
X166734499Y-51893445D01*
X166734499Y-51893445D01*
G37*
G36*
X203611000Y-49471253D02*
G01*
X203512967Y-49964098D01*
X203338616Y-50385020D01*
X203320667Y-50428352D01*
X203041491Y-50846168D01*
X202686168Y-51201491D01*
X202268352Y-51480667D01*
X202268351Y-51480668D01*
X202268350Y-51480668D01*
X201804098Y-51672967D01*
X201311253Y-51771000D01*
X200808747Y-51771000D01*
X200315902Y-51672967D01*
X199851650Y-51480668D01*
X199851649Y-51480668D01*
X199851648Y-51480667D01*
X199433832Y-51201491D01*
X199078509Y-50846168D01*
X198799333Y-50428352D01*
X198781384Y-50385020D01*
X198607033Y-49964098D01*
X198509000Y-49471253D01*
X198509000Y-41169000D01*
X203611000Y-41169000D01*
X203611000Y-49471253D01*
X203611000Y-49471253D01*
G37*
G36*
X124316499Y-50369445D02*
G01*
X124353995Y-50380820D01*
X124388554Y-50399292D01*
X124418847Y-50424153D01*
X124443708Y-50454446D01*
X124462180Y-50489005D01*
X124473555Y-50526501D01*
X124478000Y-50571638D01*
X124478000Y-51310362D01*
X124473555Y-51355499D01*
X124462180Y-51392995D01*
X124443708Y-51427554D01*
X124418847Y-51457847D01*
X124388554Y-51482708D01*
X124353995Y-51501180D01*
X124316499Y-51512555D01*
X124271362Y-51517000D01*
X123632638Y-51517000D01*
X123587501Y-51512555D01*
X123550005Y-51501180D01*
X123515446Y-51482708D01*
X123485153Y-51457847D01*
X123460292Y-51427554D01*
X123441820Y-51392995D01*
X123430445Y-51355499D01*
X123426000Y-51310362D01*
X123426000Y-50571638D01*
X123430445Y-50526501D01*
X123441820Y-50489005D01*
X123460292Y-50454446D01*
X123485153Y-50424153D01*
X123515446Y-50399292D01*
X123550005Y-50380820D01*
X123587501Y-50369445D01*
X123632638Y-50365000D01*
X124271362Y-50365000D01*
X124316499Y-50369445D01*
X124316499Y-50369445D01*
G37*
G36*
X175095499Y-49860445D02*
G01*
X175132995Y-49871820D01*
X175167554Y-49890292D01*
X175197847Y-49915153D01*
X175222708Y-49945446D01*
X175241180Y-49980005D01*
X175252555Y-50017501D01*
X175257000Y-50062638D01*
X175257000Y-50701362D01*
X175252555Y-50746499D01*
X175241180Y-50783995D01*
X175222708Y-50818554D01*
X175197847Y-50848847D01*
X175167554Y-50873708D01*
X175132995Y-50892180D01*
X175095499Y-50903555D01*
X175050362Y-50908000D01*
X174311638Y-50908000D01*
X174266501Y-50903555D01*
X174229005Y-50892180D01*
X174194446Y-50873708D01*
X174164153Y-50848847D01*
X174139292Y-50818554D01*
X174120820Y-50783995D01*
X174109445Y-50746499D01*
X174105000Y-50701362D01*
X174105000Y-50062638D01*
X174109445Y-50017501D01*
X174120820Y-49980005D01*
X174139292Y-49945446D01*
X174164153Y-49915153D01*
X174194446Y-49890292D01*
X174229005Y-49871820D01*
X174266501Y-49860445D01*
X174311638Y-49856000D01*
X175050362Y-49856000D01*
X175095499Y-49860445D01*
X175095499Y-49860445D01*
G37*
G36*
X176845499Y-49860445D02*
G01*
X176882995Y-49871820D01*
X176917554Y-49890292D01*
X176947847Y-49915153D01*
X176972708Y-49945446D01*
X176991180Y-49980005D01*
X177002555Y-50017501D01*
X177007000Y-50062638D01*
X177007000Y-50701362D01*
X177002555Y-50746499D01*
X176991180Y-50783995D01*
X176972708Y-50818554D01*
X176947847Y-50848847D01*
X176917554Y-50873708D01*
X176882995Y-50892180D01*
X176845499Y-50903555D01*
X176800362Y-50908000D01*
X176061638Y-50908000D01*
X176016501Y-50903555D01*
X175979005Y-50892180D01*
X175944446Y-50873708D01*
X175914153Y-50848847D01*
X175889292Y-50818554D01*
X175870820Y-50783995D01*
X175859445Y-50746499D01*
X175855000Y-50701362D01*
X175855000Y-50062638D01*
X175859445Y-50017501D01*
X175870820Y-49980005D01*
X175889292Y-49945446D01*
X175914153Y-49915153D01*
X175944446Y-49890292D01*
X175979005Y-49871820D01*
X176016501Y-49860445D01*
X176061638Y-49856000D01*
X176800362Y-49856000D01*
X176845499Y-49860445D01*
X176845499Y-49860445D01*
G37*
G36*
X179145499Y-49820445D02*
G01*
X179182995Y-49831820D01*
X179217554Y-49850292D01*
X179247847Y-49875153D01*
X179272708Y-49905446D01*
X179291180Y-49940005D01*
X179302555Y-49977501D01*
X179307000Y-50022638D01*
X179307000Y-50661362D01*
X179302555Y-50706499D01*
X179291180Y-50743995D01*
X179272708Y-50778554D01*
X179247847Y-50808847D01*
X179217554Y-50833708D01*
X179182995Y-50852180D01*
X179145499Y-50863555D01*
X179100362Y-50868000D01*
X178361638Y-50868000D01*
X178316501Y-50863555D01*
X178279005Y-50852180D01*
X178244446Y-50833708D01*
X178214153Y-50808847D01*
X178189292Y-50778554D01*
X178170820Y-50743995D01*
X178159445Y-50706499D01*
X178155000Y-50661362D01*
X178155000Y-50022638D01*
X178159445Y-49977501D01*
X178170820Y-49940005D01*
X178189292Y-49905446D01*
X178214153Y-49875153D01*
X178244446Y-49850292D01*
X178279005Y-49831820D01*
X178316501Y-49820445D01*
X178361638Y-49816000D01*
X179100362Y-49816000D01*
X179145499Y-49820445D01*
X179145499Y-49820445D01*
G37*
G36*
X180895499Y-49820445D02*
G01*
X180932995Y-49831820D01*
X180967554Y-49850292D01*
X180997847Y-49875153D01*
X181022708Y-49905446D01*
X181041180Y-49940005D01*
X181052555Y-49977501D01*
X181057000Y-50022638D01*
X181057000Y-50661362D01*
X181052555Y-50706499D01*
X181041180Y-50743995D01*
X181022708Y-50778554D01*
X180997847Y-50808847D01*
X180967554Y-50833708D01*
X180932995Y-50852180D01*
X180895499Y-50863555D01*
X180850362Y-50868000D01*
X180111638Y-50868000D01*
X180066501Y-50863555D01*
X180029005Y-50852180D01*
X179994446Y-50833708D01*
X179964153Y-50808847D01*
X179939292Y-50778554D01*
X179920820Y-50743995D01*
X179909445Y-50706499D01*
X179905000Y-50661362D01*
X179905000Y-50022638D01*
X179909445Y-49977501D01*
X179920820Y-49940005D01*
X179939292Y-49905446D01*
X179964153Y-49875153D01*
X179994446Y-49850292D01*
X180029005Y-49831820D01*
X180066501Y-49820445D01*
X180111638Y-49816000D01*
X180850362Y-49816000D01*
X180895499Y-49820445D01*
X180895499Y-49820445D01*
G37*
G36*
X185005499Y-49810445D02*
G01*
X185042995Y-49821820D01*
X185077554Y-49840292D01*
X185107847Y-49865153D01*
X185132708Y-49895446D01*
X185151180Y-49930005D01*
X185162555Y-49967501D01*
X185167000Y-50012638D01*
X185167000Y-50651362D01*
X185162555Y-50696499D01*
X185151180Y-50733995D01*
X185132708Y-50768554D01*
X185107847Y-50798847D01*
X185077554Y-50823708D01*
X185042995Y-50842180D01*
X185005499Y-50853555D01*
X184960362Y-50858000D01*
X184221638Y-50858000D01*
X184176501Y-50853555D01*
X184139005Y-50842180D01*
X184104446Y-50823708D01*
X184074153Y-50798847D01*
X184049292Y-50768554D01*
X184030820Y-50733995D01*
X184019445Y-50696499D01*
X184015000Y-50651362D01*
X184015000Y-50012638D01*
X184019445Y-49967501D01*
X184030820Y-49930005D01*
X184049292Y-49895446D01*
X184074153Y-49865153D01*
X184104446Y-49840292D01*
X184139005Y-49821820D01*
X184176501Y-49810445D01*
X184221638Y-49806000D01*
X184960362Y-49806000D01*
X185005499Y-49810445D01*
X185005499Y-49810445D01*
G37*
G36*
X183255499Y-49810445D02*
G01*
X183292995Y-49821820D01*
X183327554Y-49840292D01*
X183357847Y-49865153D01*
X183382708Y-49895446D01*
X183401180Y-49930005D01*
X183412555Y-49967501D01*
X183417000Y-50012638D01*
X183417000Y-50651362D01*
X183412555Y-50696499D01*
X183401180Y-50733995D01*
X183382708Y-50768554D01*
X183357847Y-50798847D01*
X183327554Y-50823708D01*
X183292995Y-50842180D01*
X183255499Y-50853555D01*
X183210362Y-50858000D01*
X182471638Y-50858000D01*
X182426501Y-50853555D01*
X182389005Y-50842180D01*
X182354446Y-50823708D01*
X182324153Y-50798847D01*
X182299292Y-50768554D01*
X182280820Y-50733995D01*
X182269445Y-50696499D01*
X182265000Y-50651362D01*
X182265000Y-50012638D01*
X182269445Y-49967501D01*
X182280820Y-49930005D01*
X182299292Y-49895446D01*
X182324153Y-49865153D01*
X182354446Y-49840292D01*
X182389005Y-49821820D01*
X182426501Y-49810445D01*
X182471638Y-49806000D01*
X183210362Y-49806000D01*
X183255499Y-49810445D01*
X183255499Y-49810445D01*
G37*
G36*
X165256000Y-50651000D02*
G01*
X158104000Y-50651000D01*
X158104000Y-48099000D01*
X165256000Y-48099000D01*
X165256000Y-50651000D01*
X165256000Y-50651000D01*
G37*
G36*
X154592499Y-49262445D02*
G01*
X154629995Y-49273820D01*
X154664554Y-49292292D01*
X154694847Y-49317153D01*
X154719708Y-49347446D01*
X154738180Y-49382005D01*
X154749555Y-49419501D01*
X154754000Y-49464638D01*
X154754000Y-50103362D01*
X154749555Y-50148499D01*
X154738180Y-50185995D01*
X154719708Y-50220554D01*
X154694847Y-50250847D01*
X154664554Y-50275708D01*
X154629995Y-50294180D01*
X154592499Y-50305555D01*
X154547362Y-50310000D01*
X153808638Y-50310000D01*
X153763501Y-50305555D01*
X153726005Y-50294180D01*
X153691446Y-50275708D01*
X153661153Y-50250847D01*
X153636292Y-50220554D01*
X153617820Y-50185995D01*
X153606445Y-50148499D01*
X153602000Y-50103362D01*
X153602000Y-49464638D01*
X153606445Y-49419501D01*
X153617820Y-49382005D01*
X153636292Y-49347446D01*
X153661153Y-49317153D01*
X153691446Y-49292292D01*
X153726005Y-49273820D01*
X153763501Y-49262445D01*
X153808638Y-49258000D01*
X154547362Y-49258000D01*
X154592499Y-49262445D01*
X154592499Y-49262445D01*
G37*
G36*
X152842499Y-49262445D02*
G01*
X152879995Y-49273820D01*
X152914554Y-49292292D01*
X152944847Y-49317153D01*
X152969708Y-49347446D01*
X152988180Y-49382005D01*
X152999555Y-49419501D01*
X153004000Y-49464638D01*
X153004000Y-50103362D01*
X152999555Y-50148499D01*
X152988180Y-50185995D01*
X152969708Y-50220554D01*
X152944847Y-50250847D01*
X152914554Y-50275708D01*
X152879995Y-50294180D01*
X152842499Y-50305555D01*
X152797362Y-50310000D01*
X152058638Y-50310000D01*
X152013501Y-50305555D01*
X151976005Y-50294180D01*
X151941446Y-50275708D01*
X151911153Y-50250847D01*
X151886292Y-50220554D01*
X151867820Y-50185995D01*
X151856445Y-50148499D01*
X151852000Y-50103362D01*
X151852000Y-49464638D01*
X151856445Y-49419501D01*
X151867820Y-49382005D01*
X151886292Y-49347446D01*
X151911153Y-49317153D01*
X151941446Y-49292292D01*
X151976005Y-49273820D01*
X152013501Y-49262445D01*
X152058638Y-49258000D01*
X152797362Y-49258000D01*
X152842499Y-49262445D01*
X152842499Y-49262445D01*
G37*
G36*
X121177499Y-48500445D02*
G01*
X121214995Y-48511820D01*
X121249554Y-48530292D01*
X121279847Y-48555153D01*
X121304708Y-48585446D01*
X121323180Y-48620005D01*
X121334555Y-48657501D01*
X121339000Y-48702638D01*
X121339000Y-49341362D01*
X121334555Y-49386499D01*
X121323180Y-49423995D01*
X121304708Y-49458554D01*
X121279847Y-49488847D01*
X121249554Y-49513708D01*
X121214995Y-49532180D01*
X121177499Y-49543555D01*
X121132362Y-49548000D01*
X120393638Y-49548000D01*
X120348501Y-49543555D01*
X120311005Y-49532180D01*
X120276446Y-49513708D01*
X120246153Y-49488847D01*
X120221292Y-49458554D01*
X120202820Y-49423995D01*
X120191445Y-49386499D01*
X120187000Y-49341362D01*
X120187000Y-48702638D01*
X120191445Y-48657501D01*
X120202820Y-48620005D01*
X120221292Y-48585446D01*
X120246153Y-48555153D01*
X120276446Y-48530292D01*
X120311005Y-48511820D01*
X120348501Y-48500445D01*
X120393638Y-48496000D01*
X121132362Y-48496000D01*
X121177499Y-48500445D01*
X121177499Y-48500445D01*
G37*
G36*
X119427499Y-48500445D02*
G01*
X119464995Y-48511820D01*
X119499554Y-48530292D01*
X119529847Y-48555153D01*
X119554708Y-48585446D01*
X119573180Y-48620005D01*
X119584555Y-48657501D01*
X119589000Y-48702638D01*
X119589000Y-49341362D01*
X119584555Y-49386499D01*
X119573180Y-49423995D01*
X119554708Y-49458554D01*
X119529847Y-49488847D01*
X119499554Y-49513708D01*
X119464995Y-49532180D01*
X119427499Y-49543555D01*
X119382362Y-49548000D01*
X118643638Y-49548000D01*
X118598501Y-49543555D01*
X118561005Y-49532180D01*
X118526446Y-49513708D01*
X118496153Y-49488847D01*
X118471292Y-49458554D01*
X118452820Y-49423995D01*
X118441445Y-49386499D01*
X118437000Y-49341362D01*
X118437000Y-48702638D01*
X118441445Y-48657501D01*
X118452820Y-48620005D01*
X118471292Y-48585446D01*
X118496153Y-48555153D01*
X118526446Y-48530292D01*
X118561005Y-48511820D01*
X118598501Y-48500445D01*
X118643638Y-48496000D01*
X119382362Y-48496000D01*
X119427499Y-48500445D01*
X119427499Y-48500445D01*
G37*
G36*
X131161000Y-49531000D02*
G01*
X130259000Y-49531000D01*
X130259000Y-48529000D01*
X131161000Y-48529000D01*
X131161000Y-49531000D01*
X131161000Y-49531000D01*
G37*
G36*
X134730499Y-48168445D02*
G01*
X134767995Y-48179820D01*
X134802554Y-48198292D01*
X134832847Y-48223153D01*
X134857708Y-48253446D01*
X134876180Y-48288005D01*
X134887555Y-48325501D01*
X134892000Y-48370638D01*
X134892000Y-49109362D01*
X134887555Y-49154499D01*
X134876180Y-49191995D01*
X134857708Y-49226554D01*
X134832847Y-49256847D01*
X134802554Y-49281708D01*
X134767995Y-49300180D01*
X134730499Y-49311555D01*
X134685362Y-49316000D01*
X134046638Y-49316000D01*
X134001501Y-49311555D01*
X133964005Y-49300180D01*
X133929446Y-49281708D01*
X133899153Y-49256847D01*
X133874292Y-49226554D01*
X133855820Y-49191995D01*
X133844445Y-49154499D01*
X133840000Y-49109362D01*
X133840000Y-48370638D01*
X133844445Y-48325501D01*
X133855820Y-48288005D01*
X133874292Y-48253446D01*
X133899153Y-48223153D01*
X133929446Y-48198292D01*
X133964005Y-48179820D01*
X134001501Y-48168445D01*
X134046638Y-48164000D01*
X134685362Y-48164000D01*
X134730499Y-48168445D01*
X134730499Y-48168445D01*
G37*
G36*
X164679672Y-47068449D02*
G01*
X164679674Y-47068450D01*
X164679675Y-47068450D01*
X164748103Y-47096793D01*
X164809686Y-47137942D01*
X164862058Y-47190314D01*
X164903207Y-47251897D01*
X164913879Y-47277663D01*
X164931551Y-47320328D01*
X164946000Y-47392966D01*
X164946000Y-47467034D01*
X164935131Y-47521677D01*
X164931550Y-47539675D01*
X164903207Y-47608103D01*
X164862058Y-47669686D01*
X164809686Y-47722058D01*
X164748103Y-47763207D01*
X164679675Y-47791550D01*
X164679674Y-47791550D01*
X164679672Y-47791551D01*
X164607034Y-47806000D01*
X164532966Y-47806000D01*
X164460328Y-47791551D01*
X164460326Y-47791550D01*
X164460325Y-47791550D01*
X164391897Y-47763207D01*
X164330314Y-47722058D01*
X164277942Y-47669686D01*
X164236793Y-47608103D01*
X164208450Y-47539675D01*
X164204870Y-47521677D01*
X164194000Y-47467034D01*
X164194000Y-47392966D01*
X164208449Y-47320328D01*
X164226121Y-47277663D01*
X164236793Y-47251897D01*
X164277942Y-47190314D01*
X164330314Y-47137942D01*
X164391897Y-47096793D01*
X164460325Y-47068450D01*
X164460326Y-47068450D01*
X164460328Y-47068449D01*
X164532966Y-47054000D01*
X164607034Y-47054000D01*
X164679672Y-47068449D01*
X164679672Y-47068449D01*
G37*
G36*
X158899672Y-47068449D02*
G01*
X158899674Y-47068450D01*
X158899675Y-47068450D01*
X158968103Y-47096793D01*
X159029686Y-47137942D01*
X159082058Y-47190314D01*
X159123207Y-47251897D01*
X159133879Y-47277663D01*
X159151551Y-47320328D01*
X159166000Y-47392966D01*
X159166000Y-47467034D01*
X159155131Y-47521677D01*
X159151550Y-47539675D01*
X159123207Y-47608103D01*
X159082058Y-47669686D01*
X159029686Y-47722058D01*
X158968103Y-47763207D01*
X158899675Y-47791550D01*
X158899674Y-47791550D01*
X158899672Y-47791551D01*
X158827034Y-47806000D01*
X158752966Y-47806000D01*
X158680328Y-47791551D01*
X158680326Y-47791550D01*
X158680325Y-47791550D01*
X158611897Y-47763207D01*
X158550314Y-47722058D01*
X158497942Y-47669686D01*
X158456793Y-47608103D01*
X158428450Y-47539675D01*
X158424870Y-47521677D01*
X158414000Y-47467034D01*
X158414000Y-47392966D01*
X158428449Y-47320328D01*
X158446121Y-47277663D01*
X158456793Y-47251897D01*
X158497942Y-47190314D01*
X158550314Y-47137942D01*
X158611897Y-47096793D01*
X158680325Y-47068450D01*
X158680326Y-47068450D01*
X158680328Y-47068449D01*
X158752966Y-47054000D01*
X158827034Y-47054000D01*
X158899672Y-47068449D01*
X158899672Y-47068449D01*
G37*
G36*
X134730499Y-46418445D02*
G01*
X134767995Y-46429820D01*
X134802554Y-46448292D01*
X134832847Y-46473153D01*
X134857708Y-46503446D01*
X134876180Y-46538005D01*
X134887555Y-46575501D01*
X134892000Y-46620638D01*
X134892000Y-47359362D01*
X134887555Y-47404499D01*
X134876180Y-47441995D01*
X134857708Y-47476554D01*
X134832847Y-47506847D01*
X134802554Y-47531708D01*
X134767995Y-47550180D01*
X134730499Y-47561555D01*
X134685362Y-47566000D01*
X134046638Y-47566000D01*
X134001501Y-47561555D01*
X133964005Y-47550180D01*
X133929446Y-47531708D01*
X133899153Y-47506847D01*
X133874292Y-47476554D01*
X133855820Y-47441995D01*
X133844445Y-47404499D01*
X133840000Y-47359362D01*
X133840000Y-46620638D01*
X133844445Y-46575501D01*
X133855820Y-46538005D01*
X133874292Y-46503446D01*
X133899153Y-46473153D01*
X133929446Y-46448292D01*
X133964005Y-46429820D01*
X134001501Y-46418445D01*
X134046638Y-46414000D01*
X134685362Y-46414000D01*
X134730499Y-46418445D01*
X134730499Y-46418445D01*
G37*
G36*
X132111000Y-47531000D02*
G01*
X131209000Y-47531000D01*
X131209000Y-46529000D01*
X132111000Y-46529000D01*
X132111000Y-47531000D01*
X132111000Y-47531000D01*
G37*
G36*
X130211000Y-47531000D02*
G01*
X129309000Y-47531000D01*
X129309000Y-46529000D01*
X130211000Y-46529000D01*
X130211000Y-47531000D01*
X130211000Y-47531000D01*
G37*
G36*
X138155562Y-45838181D02*
G01*
X138190481Y-45848774D01*
X138222663Y-45865976D01*
X138250873Y-45889127D01*
X138274024Y-45917337D01*
X138291226Y-45949519D01*
X138301819Y-45984438D01*
X138306000Y-46026895D01*
X138306000Y-47168105D01*
X138301819Y-47210562D01*
X138291226Y-47245481D01*
X138274024Y-47277663D01*
X138250873Y-47305873D01*
X138222663Y-47329024D01*
X138190481Y-47346226D01*
X138155562Y-47356819D01*
X138113105Y-47361000D01*
X136646895Y-47361000D01*
X136604438Y-47356819D01*
X136569519Y-47346226D01*
X136537337Y-47329024D01*
X136509127Y-47305873D01*
X136485976Y-47277663D01*
X136468774Y-47245481D01*
X136458181Y-47210562D01*
X136454000Y-47168105D01*
X136454000Y-46026895D01*
X136458181Y-45984438D01*
X136468774Y-45949519D01*
X136485976Y-45917337D01*
X136509127Y-45889127D01*
X136537337Y-45865976D01*
X136569519Y-45848774D01*
X136604438Y-45838181D01*
X136646895Y-45834000D01*
X138113105Y-45834000D01*
X138155562Y-45838181D01*
X138155562Y-45838181D01*
G37*
G36*
X152842499Y-46214445D02*
G01*
X152879995Y-46225820D01*
X152914554Y-46244292D01*
X152944847Y-46269153D01*
X152969708Y-46299446D01*
X152988180Y-46334005D01*
X152999555Y-46371501D01*
X153004000Y-46416638D01*
X153004000Y-47055362D01*
X152999555Y-47100499D01*
X152988180Y-47137995D01*
X152969708Y-47172554D01*
X152944847Y-47202847D01*
X152914554Y-47227708D01*
X152879995Y-47246180D01*
X152842499Y-47257555D01*
X152797362Y-47262000D01*
X152058638Y-47262000D01*
X152013501Y-47257555D01*
X151976005Y-47246180D01*
X151941446Y-47227708D01*
X151911153Y-47202847D01*
X151886292Y-47172554D01*
X151867820Y-47137995D01*
X151856445Y-47100499D01*
X151852000Y-47055362D01*
X151852000Y-46416638D01*
X151856445Y-46371501D01*
X151867820Y-46334005D01*
X151886292Y-46299446D01*
X151911153Y-46269153D01*
X151941446Y-46244292D01*
X151976005Y-46225820D01*
X152013501Y-46214445D01*
X152058638Y-46210000D01*
X152797362Y-46210000D01*
X152842499Y-46214445D01*
X152842499Y-46214445D01*
G37*
G36*
X154592499Y-46214445D02*
G01*
X154629995Y-46225820D01*
X154664554Y-46244292D01*
X154694847Y-46269153D01*
X154719708Y-46299446D01*
X154738180Y-46334005D01*
X154749555Y-46371501D01*
X154754000Y-46416638D01*
X154754000Y-47055362D01*
X154749555Y-47100499D01*
X154738180Y-47137995D01*
X154719708Y-47172554D01*
X154694847Y-47202847D01*
X154664554Y-47227708D01*
X154629995Y-47246180D01*
X154592499Y-47257555D01*
X154547362Y-47262000D01*
X153808638Y-47262000D01*
X153763501Y-47257555D01*
X153726005Y-47246180D01*
X153691446Y-47227708D01*
X153661153Y-47202847D01*
X153636292Y-47172554D01*
X153617820Y-47137995D01*
X153606445Y-47100499D01*
X153602000Y-47055362D01*
X153602000Y-46416638D01*
X153606445Y-46371501D01*
X153617820Y-46334005D01*
X153636292Y-46299446D01*
X153661153Y-46269153D01*
X153691446Y-46244292D01*
X153726005Y-46225820D01*
X153763501Y-46214445D01*
X153808638Y-46210000D01*
X154547362Y-46210000D01*
X154592499Y-46214445D01*
X154592499Y-46214445D01*
G37*
G36*
X171243499Y-45706445D02*
G01*
X171280995Y-45717820D01*
X171315554Y-45736292D01*
X171345847Y-45761153D01*
X171370708Y-45791446D01*
X171389180Y-45826005D01*
X171400555Y-45863501D01*
X171405000Y-45908638D01*
X171405000Y-46547362D01*
X171400555Y-46592499D01*
X171389180Y-46629995D01*
X171370708Y-46664554D01*
X171345847Y-46694847D01*
X171315554Y-46719708D01*
X171280995Y-46738180D01*
X171243499Y-46749555D01*
X171198362Y-46754000D01*
X170459638Y-46754000D01*
X170414501Y-46749555D01*
X170377005Y-46738180D01*
X170342446Y-46719708D01*
X170312153Y-46694847D01*
X170287292Y-46664554D01*
X170268820Y-46629995D01*
X170257445Y-46592499D01*
X170253000Y-46547362D01*
X170253000Y-45908638D01*
X170257445Y-45863501D01*
X170268820Y-45826005D01*
X170287292Y-45791446D01*
X170312153Y-45761153D01*
X170342446Y-45736292D01*
X170377005Y-45717820D01*
X170414501Y-45706445D01*
X170459638Y-45702000D01*
X171198362Y-45702000D01*
X171243499Y-45706445D01*
X171243499Y-45706445D01*
G37*
G36*
X172993499Y-45706445D02*
G01*
X173030995Y-45717820D01*
X173065554Y-45736292D01*
X173095847Y-45761153D01*
X173120708Y-45791446D01*
X173139180Y-45826005D01*
X173150555Y-45863501D01*
X173155000Y-45908638D01*
X173155000Y-46547362D01*
X173150555Y-46592499D01*
X173139180Y-46629995D01*
X173120708Y-46664554D01*
X173095847Y-46694847D01*
X173065554Y-46719708D01*
X173030995Y-46738180D01*
X172993499Y-46749555D01*
X172948362Y-46754000D01*
X172209638Y-46754000D01*
X172164501Y-46749555D01*
X172127005Y-46738180D01*
X172092446Y-46719708D01*
X172062153Y-46694847D01*
X172037292Y-46664554D01*
X172018820Y-46629995D01*
X172007445Y-46592499D01*
X172003000Y-46547362D01*
X172003000Y-45908638D01*
X172007445Y-45863501D01*
X172018820Y-45826005D01*
X172037292Y-45791446D01*
X172062153Y-45761153D01*
X172092446Y-45736292D01*
X172127005Y-45717820D01*
X172164501Y-45706445D01*
X172209638Y-45702000D01*
X172948362Y-45702000D01*
X172993499Y-45706445D01*
X172993499Y-45706445D01*
G37*
G36*
X179089499Y-45660445D02*
G01*
X179126995Y-45671820D01*
X179161554Y-45690292D01*
X179191847Y-45715153D01*
X179216708Y-45745446D01*
X179235180Y-45780005D01*
X179246555Y-45817501D01*
X179251000Y-45862638D01*
X179251000Y-46501362D01*
X179246555Y-46546499D01*
X179235180Y-46583995D01*
X179216708Y-46618554D01*
X179191847Y-46648847D01*
X179161554Y-46673708D01*
X179126995Y-46692180D01*
X179089499Y-46703555D01*
X179044362Y-46708000D01*
X178305638Y-46708000D01*
X178260501Y-46703555D01*
X178223005Y-46692180D01*
X178188446Y-46673708D01*
X178158153Y-46648847D01*
X178133292Y-46618554D01*
X178114820Y-46583995D01*
X178103445Y-46546499D01*
X178099000Y-46501362D01*
X178099000Y-45862638D01*
X178103445Y-45817501D01*
X178114820Y-45780005D01*
X178133292Y-45745446D01*
X178158153Y-45715153D01*
X178188446Y-45690292D01*
X178223005Y-45671820D01*
X178260501Y-45660445D01*
X178305638Y-45656000D01*
X179044362Y-45656000D01*
X179089499Y-45660445D01*
X179089499Y-45660445D01*
G37*
G36*
X180839499Y-45660445D02*
G01*
X180876995Y-45671820D01*
X180911554Y-45690292D01*
X180941847Y-45715153D01*
X180966708Y-45745446D01*
X180985180Y-45780005D01*
X180996555Y-45817501D01*
X181001000Y-45862638D01*
X181001000Y-46501362D01*
X180996555Y-46546499D01*
X180985180Y-46583995D01*
X180966708Y-46618554D01*
X180941847Y-46648847D01*
X180911554Y-46673708D01*
X180876995Y-46692180D01*
X180839499Y-46703555D01*
X180794362Y-46708000D01*
X180055638Y-46708000D01*
X180010501Y-46703555D01*
X179973005Y-46692180D01*
X179938446Y-46673708D01*
X179908153Y-46648847D01*
X179883292Y-46618554D01*
X179864820Y-46583995D01*
X179853445Y-46546499D01*
X179849000Y-46501362D01*
X179849000Y-45862638D01*
X179853445Y-45817501D01*
X179864820Y-45780005D01*
X179883292Y-45745446D01*
X179908153Y-45715153D01*
X179938446Y-45690292D01*
X179973005Y-45671820D01*
X180010501Y-45660445D01*
X180055638Y-45656000D01*
X180794362Y-45656000D01*
X180839499Y-45660445D01*
X180839499Y-45660445D01*
G37*
G36*
X175209499Y-45660445D02*
G01*
X175246995Y-45671820D01*
X175281554Y-45690292D01*
X175311847Y-45715153D01*
X175336708Y-45745446D01*
X175355180Y-45780005D01*
X175366555Y-45817501D01*
X175371000Y-45862638D01*
X175371000Y-46501362D01*
X175366555Y-46546499D01*
X175355180Y-46583995D01*
X175336708Y-46618554D01*
X175311847Y-46648847D01*
X175281554Y-46673708D01*
X175246995Y-46692180D01*
X175209499Y-46703555D01*
X175164362Y-46708000D01*
X174425638Y-46708000D01*
X174380501Y-46703555D01*
X174343005Y-46692180D01*
X174308446Y-46673708D01*
X174278153Y-46648847D01*
X174253292Y-46618554D01*
X174234820Y-46583995D01*
X174223445Y-46546499D01*
X174219000Y-46501362D01*
X174219000Y-45862638D01*
X174223445Y-45817501D01*
X174234820Y-45780005D01*
X174253292Y-45745446D01*
X174278153Y-45715153D01*
X174308446Y-45690292D01*
X174343005Y-45671820D01*
X174380501Y-45660445D01*
X174425638Y-45656000D01*
X175164362Y-45656000D01*
X175209499Y-45660445D01*
X175209499Y-45660445D01*
G37*
G36*
X176959499Y-45660445D02*
G01*
X176996995Y-45671820D01*
X177031554Y-45690292D01*
X177061847Y-45715153D01*
X177086708Y-45745446D01*
X177105180Y-45780005D01*
X177116555Y-45817501D01*
X177121000Y-45862638D01*
X177121000Y-46501362D01*
X177116555Y-46546499D01*
X177105180Y-46583995D01*
X177086708Y-46618554D01*
X177061847Y-46648847D01*
X177031554Y-46673708D01*
X176996995Y-46692180D01*
X176959499Y-46703555D01*
X176914362Y-46708000D01*
X176175638Y-46708000D01*
X176130501Y-46703555D01*
X176093005Y-46692180D01*
X176058446Y-46673708D01*
X176028153Y-46648847D01*
X176003292Y-46618554D01*
X175984820Y-46583995D01*
X175973445Y-46546499D01*
X175969000Y-46501362D01*
X175969000Y-45862638D01*
X175973445Y-45817501D01*
X175984820Y-45780005D01*
X176003292Y-45745446D01*
X176028153Y-45715153D01*
X176058446Y-45690292D01*
X176093005Y-45671820D01*
X176130501Y-45660445D01*
X176175638Y-45656000D01*
X176914362Y-45656000D01*
X176959499Y-45660445D01*
X176959499Y-45660445D01*
G37*
G36*
X184894499Y-45650445D02*
G01*
X184931995Y-45661820D01*
X184966554Y-45680292D01*
X184996847Y-45705153D01*
X185021708Y-45735446D01*
X185040180Y-45770005D01*
X185051555Y-45807501D01*
X185056000Y-45852638D01*
X185056000Y-46491362D01*
X185051555Y-46536499D01*
X185040180Y-46573995D01*
X185021708Y-46608554D01*
X184996847Y-46638847D01*
X184966554Y-46663708D01*
X184931995Y-46682180D01*
X184894499Y-46693555D01*
X184849362Y-46698000D01*
X184110638Y-46698000D01*
X184065501Y-46693555D01*
X184028005Y-46682180D01*
X183993446Y-46663708D01*
X183963153Y-46638847D01*
X183938292Y-46608554D01*
X183919820Y-46573995D01*
X183908445Y-46536499D01*
X183904000Y-46491362D01*
X183904000Y-45852638D01*
X183908445Y-45807501D01*
X183919820Y-45770005D01*
X183938292Y-45735446D01*
X183963153Y-45705153D01*
X183993446Y-45680292D01*
X184028005Y-45661820D01*
X184065501Y-45650445D01*
X184110638Y-45646000D01*
X184849362Y-45646000D01*
X184894499Y-45650445D01*
X184894499Y-45650445D01*
G37*
G36*
X183144499Y-45650445D02*
G01*
X183181995Y-45661820D01*
X183216554Y-45680292D01*
X183246847Y-45705153D01*
X183271708Y-45735446D01*
X183290180Y-45770005D01*
X183301555Y-45807501D01*
X183306000Y-45852638D01*
X183306000Y-46491362D01*
X183301555Y-46536499D01*
X183290180Y-46573995D01*
X183271708Y-46608554D01*
X183246847Y-46638847D01*
X183216554Y-46663708D01*
X183181995Y-46682180D01*
X183144499Y-46693555D01*
X183099362Y-46698000D01*
X182360638Y-46698000D01*
X182315501Y-46693555D01*
X182278005Y-46682180D01*
X182243446Y-46663708D01*
X182213153Y-46638847D01*
X182188292Y-46608554D01*
X182169820Y-46573995D01*
X182158445Y-46536499D01*
X182154000Y-46491362D01*
X182154000Y-45852638D01*
X182158445Y-45807501D01*
X182169820Y-45770005D01*
X182188292Y-45735446D01*
X182213153Y-45705153D01*
X182243446Y-45680292D01*
X182278005Y-45661820D01*
X182315501Y-45650445D01*
X182360638Y-45646000D01*
X183099362Y-45646000D01*
X183144499Y-45650445D01*
X183144499Y-45650445D01*
G37*
G36*
X134231000Y-45421000D02*
G01*
X133279000Y-45421000D01*
X133279000Y-44119000D01*
X134231000Y-44119000D01*
X134231000Y-45421000D01*
X134231000Y-45421000D01*
G37*
G36*
X131181000Y-45421000D02*
G01*
X130229000Y-45421000D01*
X130229000Y-44119000D01*
X131181000Y-44119000D01*
X131181000Y-45421000D01*
X131181000Y-45421000D01*
G37*
G36*
X126652499Y-44182445D02*
G01*
X126689995Y-44193820D01*
X126724554Y-44212292D01*
X126754847Y-44237153D01*
X126779708Y-44267446D01*
X126798180Y-44302005D01*
X126809555Y-44339501D01*
X126814000Y-44384638D01*
X126814000Y-45023362D01*
X126809555Y-45068499D01*
X126798180Y-45105995D01*
X126779708Y-45140554D01*
X126754847Y-45170847D01*
X126724554Y-45195708D01*
X126689995Y-45214180D01*
X126652499Y-45225555D01*
X126607362Y-45230000D01*
X125868638Y-45230000D01*
X125823501Y-45225555D01*
X125786005Y-45214180D01*
X125751446Y-45195708D01*
X125721153Y-45170847D01*
X125696292Y-45140554D01*
X125677820Y-45105995D01*
X125666445Y-45068499D01*
X125662000Y-45023362D01*
X125662000Y-44384638D01*
X125666445Y-44339501D01*
X125677820Y-44302005D01*
X125696292Y-44267446D01*
X125721153Y-44237153D01*
X125751446Y-44212292D01*
X125786005Y-44193820D01*
X125823501Y-44182445D01*
X125868638Y-44178000D01*
X126607362Y-44178000D01*
X126652499Y-44182445D01*
X126652499Y-44182445D01*
G37*
G36*
X128402499Y-44182445D02*
G01*
X128439995Y-44193820D01*
X128474554Y-44212292D01*
X128504847Y-44237153D01*
X128529708Y-44267446D01*
X128548180Y-44302005D01*
X128559555Y-44339501D01*
X128564000Y-44384638D01*
X128564000Y-45023362D01*
X128559555Y-45068499D01*
X128548180Y-45105995D01*
X128529708Y-45140554D01*
X128504847Y-45170847D01*
X128474554Y-45195708D01*
X128439995Y-45214180D01*
X128402499Y-45225555D01*
X128357362Y-45230000D01*
X127618638Y-45230000D01*
X127573501Y-45225555D01*
X127536005Y-45214180D01*
X127501446Y-45195708D01*
X127471153Y-45170847D01*
X127446292Y-45140554D01*
X127427820Y-45105995D01*
X127416445Y-45068499D01*
X127412000Y-45023362D01*
X127412000Y-44384638D01*
X127416445Y-44339501D01*
X127427820Y-44302005D01*
X127446292Y-44267446D01*
X127471153Y-44237153D01*
X127501446Y-44212292D01*
X127536005Y-44193820D01*
X127573501Y-44182445D01*
X127618638Y-44178000D01*
X128357362Y-44178000D01*
X128402499Y-44182445D01*
X128402499Y-44182445D01*
G37*
G36*
X115032549Y-42559116D02*
G01*
X115143734Y-42581232D01*
X115353203Y-42667997D01*
X115541720Y-42793960D01*
X115702040Y-42954280D01*
X115828003Y-43142797D01*
X115828004Y-43142799D01*
X115914768Y-43352267D01*
X115959000Y-43574635D01*
X115959000Y-43801365D01*
X115914768Y-44023733D01*
X115833214Y-44220624D01*
X115828003Y-44233203D01*
X115702040Y-44421720D01*
X115541720Y-44582040D01*
X115353203Y-44708003D01*
X115353202Y-44708004D01*
X115353201Y-44708004D01*
X115319411Y-44722000D01*
X115143734Y-44794768D01*
X115032549Y-44816884D01*
X114921365Y-44839000D01*
X114694635Y-44839000D01*
X114583451Y-44816884D01*
X114472266Y-44794768D01*
X114296589Y-44722000D01*
X114262799Y-44708004D01*
X114262798Y-44708004D01*
X114262797Y-44708003D01*
X114074280Y-44582040D01*
X113913960Y-44421720D01*
X113787997Y-44233203D01*
X113782787Y-44220624D01*
X113701232Y-44023733D01*
X113657000Y-43801365D01*
X113657000Y-43574635D01*
X113701232Y-43352267D01*
X113787996Y-43142799D01*
X113787997Y-43142797D01*
X113913960Y-42954280D01*
X114074280Y-42793960D01*
X114262797Y-42667997D01*
X114472266Y-42581232D01*
X114583451Y-42559116D01*
X114694635Y-42537000D01*
X114921365Y-42537000D01*
X115032549Y-42559116D01*
X115032549Y-42559116D01*
G37*
G36*
X209774549Y-42559116D02*
G01*
X209885734Y-42581232D01*
X210095203Y-42667997D01*
X210283720Y-42793960D01*
X210444040Y-42954280D01*
X210570003Y-43142797D01*
X210570004Y-43142799D01*
X210656768Y-43352267D01*
X210701000Y-43574635D01*
X210701000Y-43801365D01*
X210656768Y-44023733D01*
X210575214Y-44220624D01*
X210570003Y-44233203D01*
X210444040Y-44421720D01*
X210283720Y-44582040D01*
X210095203Y-44708003D01*
X210095202Y-44708004D01*
X210095201Y-44708004D01*
X210061411Y-44722000D01*
X209885734Y-44794768D01*
X209774549Y-44816884D01*
X209663365Y-44839000D01*
X209436635Y-44839000D01*
X209325451Y-44816884D01*
X209214266Y-44794768D01*
X209038589Y-44722000D01*
X209004799Y-44708004D01*
X209004798Y-44708004D01*
X209004797Y-44708003D01*
X208816280Y-44582040D01*
X208655960Y-44421720D01*
X208529997Y-44233203D01*
X208524787Y-44220624D01*
X208443232Y-44023733D01*
X208399000Y-43801365D01*
X208399000Y-43574635D01*
X208443232Y-43352267D01*
X208529996Y-43142799D01*
X208529997Y-43142797D01*
X208655960Y-42954280D01*
X208816280Y-42793960D01*
X209004797Y-42667997D01*
X209214266Y-42581232D01*
X209325451Y-42559116D01*
X209436635Y-42537000D01*
X209663365Y-42537000D01*
X209774549Y-42559116D01*
X209774549Y-42559116D01*
G37*
G36*
X143162499Y-43674445D02*
G01*
X143199995Y-43685820D01*
X143234554Y-43704292D01*
X143264847Y-43729153D01*
X143289708Y-43759446D01*
X143308180Y-43794005D01*
X143319555Y-43831501D01*
X143324000Y-43876638D01*
X143324000Y-44515362D01*
X143319555Y-44560499D01*
X143308180Y-44597995D01*
X143289708Y-44632554D01*
X143264847Y-44662847D01*
X143234554Y-44687708D01*
X143199995Y-44706180D01*
X143162499Y-44717555D01*
X143117362Y-44722000D01*
X142378638Y-44722000D01*
X142333501Y-44717555D01*
X142296005Y-44706180D01*
X142261446Y-44687708D01*
X142231153Y-44662847D01*
X142206292Y-44632554D01*
X142187820Y-44597995D01*
X142176445Y-44560499D01*
X142172000Y-44515362D01*
X142172000Y-43876638D01*
X142176445Y-43831501D01*
X142187820Y-43794005D01*
X142206292Y-43759446D01*
X142231153Y-43729153D01*
X142261446Y-43704292D01*
X142296005Y-43685820D01*
X142333501Y-43674445D01*
X142378638Y-43670000D01*
X143117362Y-43670000D01*
X143162499Y-43674445D01*
X143162499Y-43674445D01*
G37*
G36*
X141412499Y-43674445D02*
G01*
X141449995Y-43685820D01*
X141484554Y-43704292D01*
X141514847Y-43729153D01*
X141539708Y-43759446D01*
X141558180Y-43794005D01*
X141569555Y-43831501D01*
X141574000Y-43876638D01*
X141574000Y-44515362D01*
X141569555Y-44560499D01*
X141558180Y-44597995D01*
X141539708Y-44632554D01*
X141514847Y-44662847D01*
X141484554Y-44687708D01*
X141449995Y-44706180D01*
X141412499Y-44717555D01*
X141367362Y-44722000D01*
X140628638Y-44722000D01*
X140583501Y-44717555D01*
X140546005Y-44706180D01*
X140511446Y-44687708D01*
X140481153Y-44662847D01*
X140456292Y-44632554D01*
X140437820Y-44597995D01*
X140426445Y-44560499D01*
X140422000Y-44515362D01*
X140422000Y-43876638D01*
X140426445Y-43831501D01*
X140437820Y-43794005D01*
X140456292Y-43759446D01*
X140481153Y-43729153D01*
X140511446Y-43704292D01*
X140546005Y-43685820D01*
X140583501Y-43674445D01*
X140628638Y-43670000D01*
X141367362Y-43670000D01*
X141412499Y-43674445D01*
X141412499Y-43674445D01*
G37*
G36*
X138155562Y-42863181D02*
G01*
X138190481Y-42873774D01*
X138222663Y-42890976D01*
X138250873Y-42914127D01*
X138274024Y-42942337D01*
X138291226Y-42974519D01*
X138301819Y-43009438D01*
X138306000Y-43051895D01*
X138306000Y-44193105D01*
X138301819Y-44235562D01*
X138291226Y-44270481D01*
X138274024Y-44302663D01*
X138250873Y-44330873D01*
X138222663Y-44354024D01*
X138190481Y-44371226D01*
X138155562Y-44381819D01*
X138113105Y-44386000D01*
X136646895Y-44386000D01*
X136604438Y-44381819D01*
X136569519Y-44371226D01*
X136537337Y-44354024D01*
X136509127Y-44330873D01*
X136485976Y-44302663D01*
X136468774Y-44270481D01*
X136458181Y-44235562D01*
X136454000Y-44193105D01*
X136454000Y-43051895D01*
X136458181Y-43009438D01*
X136468774Y-42974519D01*
X136485976Y-42942337D01*
X136509127Y-42914127D01*
X136537337Y-42890976D01*
X136569519Y-42873774D01*
X136604438Y-42863181D01*
X136646895Y-42859000D01*
X138113105Y-42859000D01*
X138155562Y-42863181D01*
X138155562Y-42863181D01*
G37*
M02*
