G04 #@! TF.GenerationSoftware,KiCad,Pcbnew,(5.1.2-1)-1*
G04 #@! TF.CreationDate,2020-07-23T10:17:53-07:00*
G04 #@! TF.ProjectId,tiny-touch,74696e79-2d74-46f7-9563-682e6b696361,rev?*
G04 #@! TF.SameCoordinates,Original*
G04 #@! TF.FileFunction,Legend,Bot*
G04 #@! TF.FilePolarity,Positive*
%FSLAX46Y46*%
G04 Gerber Fmt 4.6, Leading zero omitted, Abs format (unit mm)*
G04 Created by KiCad (PCBNEW (5.1.2-1)-1) date 2020-07-23 10:17:53*
%MOMM*%
%LPD*%
G04 APERTURE LIST*
%ADD10C,0.120000*%
%ADD11C,0.200000*%
%ADD12C,0.250000*%
%ADD13C,0.150000*%
%ADD14C,0.254000*%
G04 APERTURE END LIST*
D10*
X120324000Y-64080000D02*
X120324000Y-70540000D01*
X115794000Y-64080000D02*
X118394000Y-64080000D01*
X113864000Y-64080000D02*
X113864000Y-70540000D01*
X115794000Y-70540000D02*
X118394000Y-70540000D01*
X113894000Y-64080000D02*
X113864000Y-64080000D01*
X120324000Y-64080000D02*
X120294000Y-64080000D01*
X120324000Y-70540000D02*
X120294000Y-70540000D01*
X113864000Y-70540000D02*
X113894000Y-70540000D01*
X118706000Y-59558000D02*
X118706000Y-56408000D01*
X117006000Y-59558000D02*
X117006000Y-56408000D01*
X118706000Y-59558000D02*
X117006000Y-59558000D01*
X160898000Y-51730000D02*
X163348000Y-51730000D01*
X162698000Y-54950000D02*
X160898000Y-54950000D01*
X132290000Y-48790000D02*
X132290000Y-47330000D01*
X129130000Y-48790000D02*
X129130000Y-46630000D01*
X129130000Y-48790000D02*
X130060000Y-48790000D01*
X132290000Y-48790000D02*
X131360000Y-48790000D01*
X165860000Y-53511267D02*
X165860000Y-53168733D01*
X166880000Y-53511267D02*
X166880000Y-53168733D01*
X157990000Y-53168733D02*
X157990000Y-53511267D01*
X156970000Y-53168733D02*
X156970000Y-53511267D01*
X119716733Y-52576000D02*
X120059267Y-52576000D01*
X119716733Y-53596000D02*
X120059267Y-53596000D01*
X153131733Y-46226000D02*
X153474267Y-46226000D01*
X153131733Y-47246000D02*
X153474267Y-47246000D01*
X153131733Y-49274000D02*
X153474267Y-49274000D01*
X153131733Y-50294000D02*
X153474267Y-50294000D01*
X141701733Y-43686000D02*
X142044267Y-43686000D01*
X141701733Y-44706000D02*
X142044267Y-44706000D01*
D11*
X120820000Y-56235000D02*
X120820000Y-57285000D01*
X122920000Y-57635000D02*
X120920000Y-57635000D01*
X122920000Y-57785000D02*
X122920000Y-57635000D01*
X120920000Y-57785000D02*
X122920000Y-57785000D01*
X120920000Y-57635000D02*
X120920000Y-57785000D01*
D10*
X138290000Y-44507936D02*
X138290000Y-45712064D01*
X136470000Y-44507936D02*
X136470000Y-45712064D01*
D12*
X130330000Y-67964000D02*
G75*
G03X130330000Y-67964000I-125000J0D01*
G01*
D11*
X131780000Y-54564000D02*
X131780000Y-67864000D01*
X145080000Y-54564000D02*
X131780000Y-54564000D01*
X145080000Y-67864000D02*
X145080000Y-54564000D01*
X131780000Y-67864000D02*
X145080000Y-67864000D01*
X130020890Y-44725000D02*
G75*
G03X130020890Y-44725000I-17890J0D01*
G01*
X130930000Y-45570000D02*
X133530000Y-45570000D01*
X133530000Y-43970000D02*
X130930000Y-43970000D01*
D10*
X123442000Y-51987267D02*
X123442000Y-51644733D01*
X124462000Y-51987267D02*
X124462000Y-51644733D01*
X119716733Y-48512000D02*
X120059267Y-48512000D01*
X119716733Y-49532000D02*
X120059267Y-49532000D01*
X175384733Y-49872000D02*
X175727267Y-49872000D01*
X175384733Y-50892000D02*
X175727267Y-50892000D01*
X179434733Y-49832000D02*
X179777267Y-49832000D01*
X179434733Y-50852000D02*
X179777267Y-50852000D01*
X183544733Y-49822000D02*
X183887267Y-49822000D01*
X183544733Y-50842000D02*
X183887267Y-50842000D01*
X171532733Y-45718000D02*
X171875267Y-45718000D01*
X171532733Y-46738000D02*
X171875267Y-46738000D01*
X175498733Y-45672000D02*
X175841267Y-45672000D01*
X175498733Y-46692000D02*
X175841267Y-46692000D01*
X179378733Y-45672000D02*
X179721267Y-45672000D01*
X179378733Y-46692000D02*
X179721267Y-46692000D01*
X183433733Y-45662000D02*
X183776267Y-45662000D01*
X183433733Y-46682000D02*
X183776267Y-46682000D01*
X127284267Y-45214000D02*
X126941733Y-45214000D01*
X127284267Y-44194000D02*
X126941733Y-44194000D01*
X133856000Y-48036267D02*
X133856000Y-47693733D01*
X134876000Y-48036267D02*
X134876000Y-47693733D01*
D13*
X113448761Y-65976666D02*
X113496380Y-66119523D01*
X113496380Y-66357619D01*
X113448761Y-66452857D01*
X113401142Y-66500476D01*
X113305904Y-66548095D01*
X113210666Y-66548095D01*
X113115428Y-66500476D01*
X113067809Y-66452857D01*
X113020190Y-66357619D01*
X112972571Y-66167142D01*
X112924952Y-66071904D01*
X112877333Y-66024285D01*
X112782095Y-65976666D01*
X112686857Y-65976666D01*
X112591619Y-66024285D01*
X112544000Y-66071904D01*
X112496380Y-66167142D01*
X112496380Y-66405238D01*
X112544000Y-66548095D01*
X112496380Y-66881428D02*
X113496380Y-67119523D01*
X112782095Y-67310000D01*
X113496380Y-67500476D01*
X112496380Y-67738571D01*
X113496380Y-68643333D02*
X113496380Y-68071904D01*
X113496380Y-68357619D02*
X112496380Y-68357619D01*
X112639238Y-68262380D01*
X112734476Y-68167142D01*
X112782095Y-68071904D01*
X120158380Y-56919904D02*
X119158380Y-56919904D01*
X119158380Y-57158000D01*
X119206000Y-57300857D01*
X119301238Y-57396095D01*
X119396476Y-57443714D01*
X119586952Y-57491333D01*
X119729809Y-57491333D01*
X119920285Y-57443714D01*
X120015523Y-57396095D01*
X120110761Y-57300857D01*
X120158380Y-57158000D01*
X120158380Y-56919904D01*
X119253619Y-57872285D02*
X119206000Y-57919904D01*
X119158380Y-58015142D01*
X119158380Y-58253238D01*
X119206000Y-58348476D01*
X119253619Y-58396095D01*
X119348857Y-58443714D01*
X119444095Y-58443714D01*
X119586952Y-58396095D01*
X120158380Y-57824666D01*
X120158380Y-58443714D01*
X163418095Y-46188380D02*
X163418095Y-46997904D01*
X163370476Y-47093142D01*
X163322857Y-47140761D01*
X163227619Y-47188380D01*
X163037142Y-47188380D01*
X162941904Y-47140761D01*
X162894285Y-47093142D01*
X162846666Y-46997904D01*
X162846666Y-46188380D01*
X162418095Y-47140761D02*
X162275238Y-47188380D01*
X162037142Y-47188380D01*
X161941904Y-47140761D01*
X161894285Y-47093142D01*
X161846666Y-46997904D01*
X161846666Y-46902666D01*
X161894285Y-46807428D01*
X161941904Y-46759809D01*
X162037142Y-46712190D01*
X162227619Y-46664571D01*
X162322857Y-46616952D01*
X162370476Y-46569333D01*
X162418095Y-46474095D01*
X162418095Y-46378857D01*
X162370476Y-46283619D01*
X162322857Y-46236000D01*
X162227619Y-46188380D01*
X161989523Y-46188380D01*
X161846666Y-46236000D01*
X161084761Y-46664571D02*
X160941904Y-46712190D01*
X160894285Y-46759809D01*
X160846666Y-46855047D01*
X160846666Y-46997904D01*
X160894285Y-47093142D01*
X160941904Y-47140761D01*
X161037142Y-47188380D01*
X161418095Y-47188380D01*
X161418095Y-46188380D01*
X161084761Y-46188380D01*
X160989523Y-46236000D01*
X160941904Y-46283619D01*
X160894285Y-46378857D01*
X160894285Y-46474095D01*
X160941904Y-46569333D01*
X160989523Y-46616952D01*
X161084761Y-46664571D01*
X161418095Y-46664571D01*
X159894285Y-47188380D02*
X160465714Y-47188380D01*
X160180000Y-47188380D02*
X160180000Y-46188380D01*
X160275238Y-46331238D01*
X160370476Y-46426476D01*
X160465714Y-46474095D01*
X162559904Y-57110380D02*
X162559904Y-57919904D01*
X162512285Y-58015142D01*
X162464666Y-58062761D01*
X162369428Y-58110380D01*
X162178952Y-58110380D01*
X162083714Y-58062761D01*
X162036095Y-58015142D01*
X161988476Y-57919904D01*
X161988476Y-57110380D01*
X161559904Y-57205619D02*
X161512285Y-57158000D01*
X161417047Y-57110380D01*
X161178952Y-57110380D01*
X161083714Y-57158000D01*
X161036095Y-57205619D01*
X160988476Y-57300857D01*
X160988476Y-57396095D01*
X161036095Y-57538952D01*
X161607523Y-58110380D01*
X160988476Y-58110380D01*
X127662380Y-47268095D02*
X128471904Y-47268095D01*
X128567142Y-47315714D01*
X128614761Y-47363333D01*
X128662380Y-47458571D01*
X128662380Y-47649047D01*
X128614761Y-47744285D01*
X128567142Y-47791904D01*
X128471904Y-47839523D01*
X127662380Y-47839523D01*
X128662380Y-48839523D02*
X128662380Y-48268095D01*
X128662380Y-48553809D02*
X127662380Y-48553809D01*
X127805238Y-48458571D01*
X127900476Y-48363333D01*
X127948095Y-48268095D01*
X168252380Y-53173333D02*
X167776190Y-52840000D01*
X168252380Y-52601904D02*
X167252380Y-52601904D01*
X167252380Y-52982857D01*
X167300000Y-53078095D01*
X167347619Y-53125714D01*
X167442857Y-53173333D01*
X167585714Y-53173333D01*
X167680952Y-53125714D01*
X167728571Y-53078095D01*
X167776190Y-52982857D01*
X167776190Y-52601904D01*
X167252380Y-54030476D02*
X167252380Y-53840000D01*
X167300000Y-53744761D01*
X167347619Y-53697142D01*
X167490476Y-53601904D01*
X167680952Y-53554285D01*
X168061904Y-53554285D01*
X168157142Y-53601904D01*
X168204761Y-53649523D01*
X168252380Y-53744761D01*
X168252380Y-53935238D01*
X168204761Y-54030476D01*
X168157142Y-54078095D01*
X168061904Y-54125714D01*
X167823809Y-54125714D01*
X167728571Y-54078095D01*
X167680952Y-54030476D01*
X167633333Y-53935238D01*
X167633333Y-53744761D01*
X167680952Y-53649523D01*
X167728571Y-53601904D01*
X167823809Y-53554285D01*
X156502380Y-53173333D02*
X156026190Y-52840000D01*
X156502380Y-52601904D02*
X155502380Y-52601904D01*
X155502380Y-52982857D01*
X155550000Y-53078095D01*
X155597619Y-53125714D01*
X155692857Y-53173333D01*
X155835714Y-53173333D01*
X155930952Y-53125714D01*
X155978571Y-53078095D01*
X156026190Y-52982857D01*
X156026190Y-52601904D01*
X155502380Y-54078095D02*
X155502380Y-53601904D01*
X155978571Y-53554285D01*
X155930952Y-53601904D01*
X155883333Y-53697142D01*
X155883333Y-53935238D01*
X155930952Y-54030476D01*
X155978571Y-54078095D01*
X156073809Y-54125714D01*
X156311904Y-54125714D01*
X156407142Y-54078095D01*
X156454761Y-54030476D01*
X156502380Y-53935238D01*
X156502380Y-53697142D01*
X156454761Y-53601904D01*
X156407142Y-53554285D01*
X120054666Y-54968380D02*
X120388000Y-54492190D01*
X120626095Y-54968380D02*
X120626095Y-53968380D01*
X120245142Y-53968380D01*
X120149904Y-54016000D01*
X120102285Y-54063619D01*
X120054666Y-54158857D01*
X120054666Y-54301714D01*
X120102285Y-54396952D01*
X120149904Y-54444571D01*
X120245142Y-54492190D01*
X120626095Y-54492190D01*
X119197523Y-54301714D02*
X119197523Y-54968380D01*
X119435619Y-53920761D02*
X119673714Y-54635047D01*
X119054666Y-54635047D01*
X153469666Y-48618380D02*
X153803000Y-48142190D01*
X154041095Y-48618380D02*
X154041095Y-47618380D01*
X153660142Y-47618380D01*
X153564904Y-47666000D01*
X153517285Y-47713619D01*
X153469666Y-47808857D01*
X153469666Y-47951714D01*
X153517285Y-48046952D01*
X153564904Y-48094571D01*
X153660142Y-48142190D01*
X154041095Y-48142190D01*
X153136333Y-47618380D02*
X152517285Y-47618380D01*
X152850619Y-47999333D01*
X152707761Y-47999333D01*
X152612523Y-48046952D01*
X152564904Y-48094571D01*
X152517285Y-48189809D01*
X152517285Y-48427904D01*
X152564904Y-48523142D01*
X152612523Y-48570761D01*
X152707761Y-48618380D01*
X152993476Y-48618380D01*
X153088714Y-48570761D01*
X153136333Y-48523142D01*
X153469666Y-51666380D02*
X153803000Y-51190190D01*
X154041095Y-51666380D02*
X154041095Y-50666380D01*
X153660142Y-50666380D01*
X153564904Y-50714000D01*
X153517285Y-50761619D01*
X153469666Y-50856857D01*
X153469666Y-50999714D01*
X153517285Y-51094952D01*
X153564904Y-51142571D01*
X153660142Y-51190190D01*
X154041095Y-51190190D01*
X153088714Y-50761619D02*
X153041095Y-50714000D01*
X152945857Y-50666380D01*
X152707761Y-50666380D01*
X152612523Y-50714000D01*
X152564904Y-50761619D01*
X152517285Y-50856857D01*
X152517285Y-50952095D01*
X152564904Y-51094952D01*
X153136333Y-51666380D01*
X152517285Y-51666380D01*
X142039666Y-46078380D02*
X142373000Y-45602190D01*
X142611095Y-46078380D02*
X142611095Y-45078380D01*
X142230142Y-45078380D01*
X142134904Y-45126000D01*
X142087285Y-45173619D01*
X142039666Y-45268857D01*
X142039666Y-45411714D01*
X142087285Y-45506952D01*
X142134904Y-45554571D01*
X142230142Y-45602190D01*
X142611095Y-45602190D01*
X141087285Y-46078380D02*
X141658714Y-46078380D01*
X141373000Y-46078380D02*
X141373000Y-45078380D01*
X141468238Y-45221238D01*
X141563476Y-45316476D01*
X141658714Y-45364095D01*
D14*
X122040952Y-55559476D02*
X122161904Y-55499000D01*
X122282857Y-55378047D01*
X122464285Y-55196619D01*
X122585238Y-55136142D01*
X122706190Y-55136142D01*
X122645714Y-55438523D02*
X122766666Y-55378047D01*
X122887619Y-55257095D01*
X122948095Y-55015190D01*
X122948095Y-54591857D01*
X122887619Y-54349952D01*
X122766666Y-54229000D01*
X122645714Y-54168523D01*
X122403809Y-54168523D01*
X122282857Y-54229000D01*
X122161904Y-54349952D01*
X122101428Y-54591857D01*
X122101428Y-55015190D01*
X122161904Y-55257095D01*
X122282857Y-55378047D01*
X122403809Y-55438523D01*
X122645714Y-55438523D01*
X120891904Y-55438523D02*
X121617619Y-55438523D01*
X121254761Y-55438523D02*
X121254761Y-54168523D01*
X121375714Y-54349952D01*
X121496666Y-54470904D01*
X121617619Y-54531380D01*
D13*
X136012380Y-43943333D02*
X135012380Y-43943333D01*
X135012380Y-44324285D01*
X135060000Y-44419523D01*
X135107619Y-44467142D01*
X135202857Y-44514761D01*
X135345714Y-44514761D01*
X135440952Y-44467142D01*
X135488571Y-44419523D01*
X135536190Y-44324285D01*
X135536190Y-43943333D01*
X135488571Y-45276666D02*
X135488571Y-44943333D01*
X136012380Y-44943333D02*
X135012380Y-44943333D01*
X135012380Y-45419523D01*
X136012380Y-46324285D02*
X136012380Y-45752857D01*
X136012380Y-46038571D02*
X135012380Y-46038571D01*
X135155238Y-45943333D01*
X135250476Y-45848095D01*
X135298095Y-45752857D01*
D14*
X139669761Y-61788523D02*
X139669761Y-60518523D01*
X138339285Y-61667571D02*
X138399761Y-61728047D01*
X138581190Y-61788523D01*
X138702142Y-61788523D01*
X138883571Y-61728047D01*
X139004523Y-61607095D01*
X139065000Y-61486142D01*
X139125476Y-61244238D01*
X139125476Y-61062809D01*
X139065000Y-60820904D01*
X139004523Y-60699952D01*
X138883571Y-60579000D01*
X138702142Y-60518523D01*
X138581190Y-60518523D01*
X138399761Y-60579000D01*
X138339285Y-60639476D01*
X137129761Y-61788523D02*
X137855476Y-61788523D01*
X137492619Y-61788523D02*
X137492619Y-60518523D01*
X137613571Y-60699952D01*
X137734523Y-60820904D01*
X137855476Y-60881380D01*
X133147380Y-43479523D02*
X133147380Y-42209523D01*
X132845000Y-42209523D01*
X132663571Y-42270000D01*
X132542619Y-42390952D01*
X132482142Y-42511904D01*
X132421666Y-42753809D01*
X132421666Y-42935238D01*
X132482142Y-43177142D01*
X132542619Y-43298095D01*
X132663571Y-43419047D01*
X132845000Y-43479523D01*
X133147380Y-43479523D01*
X131212142Y-43479523D02*
X131937857Y-43479523D01*
X131575000Y-43479523D02*
X131575000Y-42209523D01*
X131695952Y-42390952D01*
X131816904Y-42511904D01*
X131937857Y-42572380D01*
D13*
X125739142Y-51173142D02*
X125786761Y-51125523D01*
X125834380Y-50982666D01*
X125834380Y-50887428D01*
X125786761Y-50744571D01*
X125691523Y-50649333D01*
X125596285Y-50601714D01*
X125405809Y-50554095D01*
X125262952Y-50554095D01*
X125072476Y-50601714D01*
X124977238Y-50649333D01*
X124882000Y-50744571D01*
X124834380Y-50887428D01*
X124834380Y-50982666D01*
X124882000Y-51125523D01*
X124929619Y-51173142D01*
X125834380Y-52125523D02*
X125834380Y-51554095D01*
X125834380Y-51839809D02*
X124834380Y-51839809D01*
X124977238Y-51744571D01*
X125072476Y-51649333D01*
X125120095Y-51554095D01*
X125834380Y-53077904D02*
X125834380Y-52506476D01*
X125834380Y-52792190D02*
X124834380Y-52792190D01*
X124977238Y-52696952D01*
X125072476Y-52601714D01*
X125120095Y-52506476D01*
X120530857Y-50809142D02*
X120578476Y-50856761D01*
X120721333Y-50904380D01*
X120816571Y-50904380D01*
X120959428Y-50856761D01*
X121054666Y-50761523D01*
X121102285Y-50666285D01*
X121149904Y-50475809D01*
X121149904Y-50332952D01*
X121102285Y-50142476D01*
X121054666Y-50047238D01*
X120959428Y-49952000D01*
X120816571Y-49904380D01*
X120721333Y-49904380D01*
X120578476Y-49952000D01*
X120530857Y-49999619D01*
X119578476Y-50904380D02*
X120149904Y-50904380D01*
X119864190Y-50904380D02*
X119864190Y-49904380D01*
X119959428Y-50047238D01*
X120054666Y-50142476D01*
X120149904Y-50190095D01*
X118959428Y-49904380D02*
X118864190Y-49904380D01*
X118768952Y-49952000D01*
X118721333Y-49999619D01*
X118673714Y-50094857D01*
X118626095Y-50285333D01*
X118626095Y-50523428D01*
X118673714Y-50713904D01*
X118721333Y-50809142D01*
X118768952Y-50856761D01*
X118864190Y-50904380D01*
X118959428Y-50904380D01*
X119054666Y-50856761D01*
X119102285Y-50809142D01*
X119149904Y-50713904D01*
X119197523Y-50523428D01*
X119197523Y-50285333D01*
X119149904Y-50094857D01*
X119102285Y-49999619D01*
X119054666Y-49952000D01*
X118959428Y-49904380D01*
X175722666Y-52169142D02*
X175770285Y-52216761D01*
X175913142Y-52264380D01*
X176008380Y-52264380D01*
X176151238Y-52216761D01*
X176246476Y-52121523D01*
X176294095Y-52026285D01*
X176341714Y-51835809D01*
X176341714Y-51692952D01*
X176294095Y-51502476D01*
X176246476Y-51407238D01*
X176151238Y-51312000D01*
X176008380Y-51264380D01*
X175913142Y-51264380D01*
X175770285Y-51312000D01*
X175722666Y-51359619D01*
X175246476Y-52264380D02*
X175056000Y-52264380D01*
X174960761Y-52216761D01*
X174913142Y-52169142D01*
X174817904Y-52026285D01*
X174770285Y-51835809D01*
X174770285Y-51454857D01*
X174817904Y-51359619D01*
X174865523Y-51312000D01*
X174960761Y-51264380D01*
X175151238Y-51264380D01*
X175246476Y-51312000D01*
X175294095Y-51359619D01*
X175341714Y-51454857D01*
X175341714Y-51692952D01*
X175294095Y-51788190D01*
X175246476Y-51835809D01*
X175151238Y-51883428D01*
X174960761Y-51883428D01*
X174865523Y-51835809D01*
X174817904Y-51788190D01*
X174770285Y-51692952D01*
X179772666Y-52129142D02*
X179820285Y-52176761D01*
X179963142Y-52224380D01*
X180058380Y-52224380D01*
X180201238Y-52176761D01*
X180296476Y-52081523D01*
X180344095Y-51986285D01*
X180391714Y-51795809D01*
X180391714Y-51652952D01*
X180344095Y-51462476D01*
X180296476Y-51367238D01*
X180201238Y-51272000D01*
X180058380Y-51224380D01*
X179963142Y-51224380D01*
X179820285Y-51272000D01*
X179772666Y-51319619D01*
X179201238Y-51652952D02*
X179296476Y-51605333D01*
X179344095Y-51557714D01*
X179391714Y-51462476D01*
X179391714Y-51414857D01*
X179344095Y-51319619D01*
X179296476Y-51272000D01*
X179201238Y-51224380D01*
X179010761Y-51224380D01*
X178915523Y-51272000D01*
X178867904Y-51319619D01*
X178820285Y-51414857D01*
X178820285Y-51462476D01*
X178867904Y-51557714D01*
X178915523Y-51605333D01*
X179010761Y-51652952D01*
X179201238Y-51652952D01*
X179296476Y-51700571D01*
X179344095Y-51748190D01*
X179391714Y-51843428D01*
X179391714Y-52033904D01*
X179344095Y-52129142D01*
X179296476Y-52176761D01*
X179201238Y-52224380D01*
X179010761Y-52224380D01*
X178915523Y-52176761D01*
X178867904Y-52129142D01*
X178820285Y-52033904D01*
X178820285Y-51843428D01*
X178867904Y-51748190D01*
X178915523Y-51700571D01*
X179010761Y-51652952D01*
X183882666Y-52119142D02*
X183930285Y-52166761D01*
X184073142Y-52214380D01*
X184168380Y-52214380D01*
X184311238Y-52166761D01*
X184406476Y-52071523D01*
X184454095Y-51976285D01*
X184501714Y-51785809D01*
X184501714Y-51642952D01*
X184454095Y-51452476D01*
X184406476Y-51357238D01*
X184311238Y-51262000D01*
X184168380Y-51214380D01*
X184073142Y-51214380D01*
X183930285Y-51262000D01*
X183882666Y-51309619D01*
X183549333Y-51214380D02*
X182882666Y-51214380D01*
X183311238Y-52214380D01*
X171870666Y-48015142D02*
X171918285Y-48062761D01*
X172061142Y-48110380D01*
X172156380Y-48110380D01*
X172299238Y-48062761D01*
X172394476Y-47967523D01*
X172442095Y-47872285D01*
X172489714Y-47681809D01*
X172489714Y-47538952D01*
X172442095Y-47348476D01*
X172394476Y-47253238D01*
X172299238Y-47158000D01*
X172156380Y-47110380D01*
X172061142Y-47110380D01*
X171918285Y-47158000D01*
X171870666Y-47205619D01*
X171013523Y-47110380D02*
X171204000Y-47110380D01*
X171299238Y-47158000D01*
X171346857Y-47205619D01*
X171442095Y-47348476D01*
X171489714Y-47538952D01*
X171489714Y-47919904D01*
X171442095Y-48015142D01*
X171394476Y-48062761D01*
X171299238Y-48110380D01*
X171108761Y-48110380D01*
X171013523Y-48062761D01*
X170965904Y-48015142D01*
X170918285Y-47919904D01*
X170918285Y-47681809D01*
X170965904Y-47586571D01*
X171013523Y-47538952D01*
X171108761Y-47491333D01*
X171299238Y-47491333D01*
X171394476Y-47538952D01*
X171442095Y-47586571D01*
X171489714Y-47681809D01*
X175836666Y-47969142D02*
X175884285Y-48016761D01*
X176027142Y-48064380D01*
X176122380Y-48064380D01*
X176265238Y-48016761D01*
X176360476Y-47921523D01*
X176408095Y-47826285D01*
X176455714Y-47635809D01*
X176455714Y-47492952D01*
X176408095Y-47302476D01*
X176360476Y-47207238D01*
X176265238Y-47112000D01*
X176122380Y-47064380D01*
X176027142Y-47064380D01*
X175884285Y-47112000D01*
X175836666Y-47159619D01*
X174931904Y-47064380D02*
X175408095Y-47064380D01*
X175455714Y-47540571D01*
X175408095Y-47492952D01*
X175312857Y-47445333D01*
X175074761Y-47445333D01*
X174979523Y-47492952D01*
X174931904Y-47540571D01*
X174884285Y-47635809D01*
X174884285Y-47873904D01*
X174931904Y-47969142D01*
X174979523Y-48016761D01*
X175074761Y-48064380D01*
X175312857Y-48064380D01*
X175408095Y-48016761D01*
X175455714Y-47969142D01*
X179716666Y-47969142D02*
X179764285Y-48016761D01*
X179907142Y-48064380D01*
X180002380Y-48064380D01*
X180145238Y-48016761D01*
X180240476Y-47921523D01*
X180288095Y-47826285D01*
X180335714Y-47635809D01*
X180335714Y-47492952D01*
X180288095Y-47302476D01*
X180240476Y-47207238D01*
X180145238Y-47112000D01*
X180002380Y-47064380D01*
X179907142Y-47064380D01*
X179764285Y-47112000D01*
X179716666Y-47159619D01*
X178859523Y-47397714D02*
X178859523Y-48064380D01*
X179097619Y-47016761D02*
X179335714Y-47731047D01*
X178716666Y-47731047D01*
X183771666Y-47959142D02*
X183819285Y-48006761D01*
X183962142Y-48054380D01*
X184057380Y-48054380D01*
X184200238Y-48006761D01*
X184295476Y-47911523D01*
X184343095Y-47816285D01*
X184390714Y-47625809D01*
X184390714Y-47482952D01*
X184343095Y-47292476D01*
X184295476Y-47197238D01*
X184200238Y-47102000D01*
X184057380Y-47054380D01*
X183962142Y-47054380D01*
X183819285Y-47102000D01*
X183771666Y-47149619D01*
X183438333Y-47054380D02*
X182819285Y-47054380D01*
X183152619Y-47435333D01*
X183009761Y-47435333D01*
X182914523Y-47482952D01*
X182866904Y-47530571D01*
X182819285Y-47625809D01*
X182819285Y-47863904D01*
X182866904Y-47959142D01*
X182914523Y-48006761D01*
X183009761Y-48054380D01*
X183295476Y-48054380D01*
X183390714Y-48006761D01*
X183438333Y-47959142D01*
X127279666Y-43631142D02*
X127327285Y-43678761D01*
X127470142Y-43726380D01*
X127565380Y-43726380D01*
X127708238Y-43678761D01*
X127803476Y-43583523D01*
X127851095Y-43488285D01*
X127898714Y-43297809D01*
X127898714Y-43154952D01*
X127851095Y-42964476D01*
X127803476Y-42869238D01*
X127708238Y-42774000D01*
X127565380Y-42726380D01*
X127470142Y-42726380D01*
X127327285Y-42774000D01*
X127279666Y-42821619D01*
X126898714Y-42821619D02*
X126851095Y-42774000D01*
X126755857Y-42726380D01*
X126517761Y-42726380D01*
X126422523Y-42774000D01*
X126374904Y-42821619D01*
X126327285Y-42916857D01*
X126327285Y-43012095D01*
X126374904Y-43154952D01*
X126946333Y-43726380D01*
X126327285Y-43726380D01*
X136153142Y-47698333D02*
X136200761Y-47650714D01*
X136248380Y-47507857D01*
X136248380Y-47412619D01*
X136200761Y-47269761D01*
X136105523Y-47174523D01*
X136010285Y-47126904D01*
X135819809Y-47079285D01*
X135676952Y-47079285D01*
X135486476Y-47126904D01*
X135391238Y-47174523D01*
X135296000Y-47269761D01*
X135248380Y-47412619D01*
X135248380Y-47507857D01*
X135296000Y-47650714D01*
X135343619Y-47698333D01*
X136248380Y-48650714D02*
X136248380Y-48079285D01*
X136248380Y-48365000D02*
X135248380Y-48365000D01*
X135391238Y-48269761D01*
X135486476Y-48174523D01*
X135534095Y-48079285D01*
M02*
