M48
; DRILL file {KiCad (5.1.2-1)-1} date Thursday, July 23, 2020 at 10:17:47 AM
; FORMAT={-:-/ absolute / inch / decimal}
; #@! TF.CreationDate,2020-07-23T10:17:47-07:00
; #@! TF.GenerationSoftware,Kicad,Pcbnew,(5.1.2-1)-1
; #@! TF.FileFunction,Plated,1,2,PTH
FMAT,2
INCH
T1C0.0157
T2C0.0236
T3C0.1575
%
G90
G05
T1
X4.4494Y-1.959
X4.4779Y-1.9948
X4.53Y-2.42
X4.5617Y-2.5432
X4.6038Y-2.8977
X4.6095Y-3.4231
X4.6227Y-3.5862
X4.6248Y-4.0249
X4.6806Y-2.9927
X4.71Y-2.17
X4.738Y-2.7322
X4.7495Y-2.6336
X4.78Y-2.52
X4.7954Y-2.6391
X4.8129Y-2.6809
X4.8129Y-2.9435
X4.8229Y-2.4794
X4.83Y-1.87
X4.8605Y-2.8763
X4.88Y-2.4
X4.88Y-2.51
X4.8801Y-5.1071
X4.9156Y-1.959
X4.9326Y-3.2972
X4.9334Y-2.6519
X4.9487Y-2.1281
X4.9512Y-2.7586
X4.957Y-2.5041
X4.9729Y-2.5793
X4.9744Y-1.87
X4.976Y-2.8145
X4.9773Y-2.0235
X4.9822Y-1.9564
X5.0088Y-2.7666
X5.0343Y-2.8866
X5.0362Y-1.9099
X5.0446Y-2.1655
X5.0698Y-2.7937
X5.0699Y-2.6686
X5.07Y-2.39
X5.07Y-2.55
X5.0716Y-1.9516
X5.076Y-2.0019
X5.0766Y-3.3589
X5.0776Y-2.8866
X5.0813Y-2.4392
X5.0832Y-2.6115
X5.1089Y-3.9795
X5.1526Y-2.7497
X5.1695Y-2.8855
X5.1754Y-2.0669
X5.1772Y-1.8054
X5.1906Y-4.0288
X5.1981Y-2.1748
X5.1991Y-2.4315
X5.2007Y-2.222
X5.2082Y-2.324
X5.2146Y-1.96
X5.2153Y-3.2634
X5.2386Y-2.5876
X5.2392Y-2.2686
X5.2461Y-2.6587
X5.2466Y-4.3307
X5.25Y-2.03
X5.2694Y-2.62
X5.2844Y-3.5902
X5.285Y-3.2517
X5.2861Y-2.2562
X5.2896Y-2.0315
X5.2964Y-2.1931
X5.2972Y-2.9119
X5.3013Y-2.8142
X5.3088Y-2.6224
X5.319Y-2.6618
X5.3213Y-1.6608
X5.33Y-2.85
X5.3317Y-5.1635
X5.3319Y-1.9745
X5.3361Y-2.4004
X5.34Y-1.87
X5.3438Y-4.5397
X5.3695Y-2.0517
X5.3713Y-5.0822
X5.3793Y-5.2741
X5.3909Y-2.8399
X5.3934Y-2.1626
X5.4004Y-2.3133
X5.4059Y-2.4917
X5.4227Y-5.1014
X5.4279Y-2.2848
X5.4303Y-2.0526
X5.44Y-5.0586
X5.4485Y-2.3526
X5.4551Y-2.5913
X5.4554Y-2.4007
X5.4784Y-2.4338
X5.4796Y-2.2117
X5.49Y-1.87
X5.4978Y-2.0518
X5.4997Y-2.6612
X5.5078Y-2.5212
X5.5091Y-2.2885
X5.5148Y-2.3298
X5.5324Y-5.3789
X5.5448Y-2.3713
X5.5472Y-2.5321
X5.5742Y-4.8322
X5.5781Y-4.78
X5.5878Y-2.2249
X5.5896Y-2.3923
X5.5919Y-4.092
X5.595Y-2.6095
X5.5961Y-3.675
X5.6075Y-2.0525
X5.613Y-2.8301
X5.6381Y-5.2043
X5.6468Y-2.2971
X5.6469Y-2.2429
X5.652Y-4.959
X5.662Y-4.3113
X5.67Y-2.02
X5.6755Y-2.6249
X5.6833Y-2.3928
X5.6834Y-2.7804
X5.6916Y-4.8565
X5.71Y-2.05
X5.7101Y-4.8096
X5.7162Y-2.1299
X5.7257Y-2.9491
X5.7392Y-2.6923
X5.74Y-1.94
X5.7504Y-4.8094
X5.7651Y-2.9491
X5.7809Y-4.7643
X5.809Y-2.331
X5.81Y-2.2608
X5.8113Y-4.6291
X5.8209Y-2.4889
X5.8253Y-2.7554
X5.8427Y-2.9428
X5.8538Y-2.3231
X5.8554Y-2.2608
X5.8624Y-2.5773
X5.8722Y-4.2828
X5.8873Y-2.0899
X5.8873Y-2.1299
X5.8895Y-2.7782
X5.89Y-1.87
X5.89Y-2.54
X5.8905Y-4.0958
X5.8942Y-5.3102
X5.8979Y-4.5856
X5.8997Y-5.0397
X5.924Y-5.385
X5.9299Y-2.0903
X5.9369Y-2.2646
X5.9401Y-3.6231
X5.95Y-1.92
X5.9633Y-2.6334
X5.9634Y-5.4001
X5.9667Y-1.8412
X5.9689Y-2.8959
X5.9763Y-1.8842
X5.9766Y-5.3068
X5.99Y-1.79
X5.9975Y-4.0405
X6.016Y-5.307
X6.0205Y-2.6476
X6.0206Y-2.8585
X6.0224Y-4.4604
X6.0431Y-2.1744
X6.0599Y-4.0042
X6.0888Y-4.555
X6.0919Y-5.3243
X6.0936Y-4.3332
X6.1011Y-3.1002
X6.11Y-2.16
X6.1121Y-2.7927
X6.1143Y-2.4804
X6.12Y-1.96
X6.1361Y-4.1344
X6.15Y-1.81
X6.1512Y-4.1807
X6.1683Y-2.6439
X6.1904Y-2.1977
X6.1906Y-2.4804
X6.1926Y-1.9954
X6.2175Y-2.8
X6.2263Y-2.0157
X6.2343Y-2.4578
X6.2379Y-2.1626
X6.2659Y-2.0796
X6.2737Y-2.4401
X6.2738Y-3.7237
X6.3134Y-2.6361
X6.3167Y-2.0117
X6.3307Y-1.8732
X6.3344Y-4.3336
X6.3377Y-4.5755
X6.3413Y-2.7464
X6.3427Y-4.6784
X6.3488Y-4.0888
X6.3589Y-2.4046
X6.36Y-2.24
X6.3836Y-2.7484
X6.3836Y-3.725
X6.3889Y-4.2914
X6.4029Y-3.9701
X6.4083Y-4.5891
X6.41Y-2.0157
X6.417Y-2.3869
X6.4525Y-2.4421
X6.4525Y-4.2885
X6.46Y-2.14
X6.481Y-2.5948
X6.5006Y-4.4749
X6.5078Y-3.3816
X6.5096Y-2.733
X6.5342Y-3.3523
X6.54Y-1.99
X6.5425Y-2.3692
X6.5553Y-2.2546
X6.5601Y-4.0518
X6.6149Y-3.1406
X6.6196Y-4.1807
X6.6372Y-2.377
X6.6664Y-2.6647
X6.69Y-1.77
X6.6928Y-2.1934
X6.6935Y-3.7177
X6.7127Y-2.2919
X6.7206Y-3.3313
X6.7471Y-4.5286
X6.7478Y-2.4333
X6.75Y-3.378
X6.7791Y-2.509
X6.7791Y-4.374
X6.8Y-1.77
X6.8084Y-3.2618
X6.8343Y-2.4004
X6.8851Y-3.941
X6.9127Y-2.9231
X6.922Y-2.0582
X7.0505Y-3.6962
X7.0559Y-2.0558
X7.0559Y-3.3843
X7.0844Y-2.6233
X7.1705Y-5.2332
X7.1716Y-4.3266
X7.1744Y-4.5867
X7.2071Y-4.8476
X7.3135Y-3.3305
X7.3758Y-4.0759
X7.3817Y-3.3171
X7.3822Y-4.1614
X7.3997Y-1.6523
X7.4298Y-3.291
X7.5722Y-4.3058
X7.7064Y-3.0386
T3
X7.9157Y-1.9378
T2
G00X6.1953Y-1.7118
M15
G01X6.1953Y-1.7354
M16
G05
G00X6.1953Y-1.8665
M15
G01X6.1953Y-1.9098
M16
G05
G00X6.5354Y-1.7118
M15
G01X6.5354Y-1.7354
M16
G05
G00X6.5354Y-1.8665
M15
G01X6.5354Y-1.9098
M16
G05
T0
M30
